<svg xmlns="http://www.w3.org/2000/svg" id="prefix__bg" width="516.521" height="369.963" viewBox="0 0 516.521 369.963">
    <defs>
        <style>
            .prefix__cls-1,.prefix__cls-2{fill:#779be7}.prefix__cls-1{opacity:.1}
        </style>
    </defs>
    <ellipse id="prefix__Ellipse_138" cx="77.744" cy="8.599" class="prefix__cls-1" data-name="Ellipse 138" rx="77.744" ry="8.599" transform="translate(195.556 352.764)"/>
    <path id="prefix__Path_438" d="M538.133 294.933C526.036 319.9 501.459 336.59 476 347.6c-34.283 14.826-72.037 20.706-109.272 18.219q-9.793-.647-19.517-2.082a246.155 246.155 0 0 1-65.255-19.02q-8.973-4.054-17.627-8.818a225.384 225.384 0 0 1-27.538-18.009q-3.293-2.514-6.5-5.156c-1.48-1.221-2.947-2.469-4.436-3.68a55.981 55.981 0 0 0-9.984-6.8 35.676 35.676 0 0 0-3.343-1.476c-11.423-4.345-24.6-2.705-36.488.683-9.037 2.555-17.841 6.085-26.891 8.6a89.27 89.27 0 0 1-12.257 2.605 65.228 65.228 0 0 1-27.551-2.4l-.761-.237q-1.913-.6-3.794-1.316l-.761-.292q-1.822-.7-3.566-1.508l-.761-.346q-1.822-.847-3.566-1.79c-.419-.219-.834-.455-1.243-.679a74.546 74.546 0 0 1-17.836-13.887c-.15-.15-.292-.305-.455-.455-.724-.783-1.435-1.58-2.122-2.4-.255-.3-.51-.6-.761-.911q-1.225-1.5-2.364-3.056c-.114-.15-.223-.305-.333-.455a65.856 65.856 0 0 1-7.684-13.892c-.064-.15-.123-.305-.178-.455q-.911-2.346-1.662-4.769c-.2-.674-.4-1.366-.574-2.04-.059-.2-.114-.405-.164-.606C58.269 251.285 58 241 58 230.766v-3.575c.073-16.547.328-33.377 2.769-49.7a2.073 2.073 0 0 1 .05-.337 155.2 155.2 0 0 1 3.329-16.315 120.354 120.354 0 0 1 5.607-16.534c5.616-13.209 13.783-25.228 22.851-36.369 22.819-28.016 52.775-51.568 87.837-60.354 37.781-9.487 79.771-.4 110.246 23.867 9.292 7.4 17.64 16.156 28.075 21.826 9.109 4.937 19.772 6.982 29.528 3.1 8.062-3.188 13.309-4.805 22.364-4.318a187.452 187.452 0 0 1 54.82 11.473c.711.26 1.421.528 2.127.8 45.87 17.558 85.309 52.425 105.8 97.229q.815 1.776 1.58 3.58c12.217 28.52 16.628 61.983 3.15 89.794z" class="prefix__cls-1" data-name="Path 438" transform="translate(-46.604 -43.893)"/>
    <path id="prefix__Path_439" d="M149.153 226.582v172.7a89.275 89.275 0 0 1-12.257 2.605 65.228 65.228 0 0 1-27.551-2.4l-.761-.237q-1.913-.6-3.794-1.316l-.761-.292q-1.822-.7-3.566-1.508l-.761-.346q-1.822-.847-3.566-1.79c-.419-.219-.834-.455-1.243-.679a74.545 74.545 0 0 1-17.836-13.887c-.15-.15-.292-.305-.455-.455-.724-.783-1.435-1.58-2.122-2.4-.255-.3-.51-.6-.761-.911q-1.225-1.5-2.364-3.056c-.114-.15-.223-.305-.333-.455a65.856 65.856 0 0 1-7.684-13.892c-.064-.15-.123-.305-.178-.455q-.911-2.346-1.662-4.769c-.2-.674-.4-1.366-.574-2.04-.059-.2-.114-.405-.164-.606C58.269 340.5 58 330.21 58 319.98v-3.575c.073-16.547.328-33.377 2.769-49.7a2.073 2.073 0 0 1 .05-.337 155.2 155.2 0 0 1 3.329-16.315h46.5v-23.471h9.3V207.73H139.9v18.852z" class="prefix__cls-1" data-name="Path 439" transform="translate(-46.604 -133.107)"/>
    <path id="prefix__Path_440" d="M722.882 366.2c-12.1 24.964-36.674 41.657-62.135 52.666-34.283 14.826-72.037 20.706-109.272 18.219q-9.793-.647-19.517-2.082a246.157 246.157 0 0 1-65.255-19.02q-8.973-4.054-17.627-8.818a225.377 225.377 0 0 1-27.538-18.009q-3.293-2.514-6.495-5.156c-1.48-1.221-2.947-2.469-4.436-3.68a55.98 55.98 0 0 0-9.984-6.8 35.676 35.676 0 0 0-3.343-1.476v-70.666h84.531v15.727h37.1V202.063h43.666v46h21.6v-27.235h17.845v-29.1h8.2V174.78c.711.26 1.421.528 2.127.8v16.156h7.989v29.114h17.841v27.237h26.294v103.77h41.794v-75.471h13.463c12.22 28.544 16.629 62.008 3.152 89.814z" class="prefix__cls-1" data-name="Path 440" transform="translate(-231.352 -115.165)"/>
    <path id="prefix__Rectangle_186" d="M0 0H19.517V19.517H0z" class="prefix__cls-1" data-name="Rectangle 186" transform="translate(300.605 104.206)"/>
    <path id="prefix__Rectangle_187" d="M0 0H19.517V19.517H0z" class="prefix__cls-1" data-name="Rectangle 187" transform="translate(300.605 144.665)"/>
    <path id="prefix__Rectangle_188" d="M0 0H19.517V19.517H0z" class="prefix__cls-1" data-name="Rectangle 188" transform="translate(300.605 185.12)"/>
    <path id="prefix__Rectangle_189" d="M0 0H19.517V19.517H0z" class="prefix__cls-1" data-name="Rectangle 189" transform="translate(300.605 225.579)"/>
    <path id="prefix__Rectangle_190" d="M0 0H19.517V19.517H0z" class="prefix__cls-1" data-name="Rectangle 190" transform="translate(300.605 266.038)"/>
    <path id="prefix__Path_441" d="M712.487 716.81v15.413q-9.792-.647-19.517-2.082V716.81z" class="prefix__cls-1" data-name="Path 441" transform="translate(-392.365 -410.317)"/>
    <path id="prefix__Rectangle_191" d="M0 0H68.316V8.841H0z" class="prefix__cls-1" data-name="Rectangle 191" transform="translate(172.363 211.437)"/>
    <path id="prefix__Rectangle_192" d="M0 0H68.316V8.841H0z" class="prefix__cls-1" data-name="Rectangle 192" transform="translate(172.363 238.282)"/>
    <path id="prefix__Path_442" d="M487.975 626v8.836h-50.484q-3.291-2.514-6.491-5.156c-1.48-1.221-2.947-2.469-4.436-3.68z" class="prefix__cls-1" data-name="Path 442" transform="translate(-247.296 -360.868)"/>
    <path id="prefix__Path_443" d="M533.956 685v8.841h-5.329Q519.654 689.764 511 685z" class="prefix__cls-1" data-name="Path 443" transform="translate(-293.276 -392.995)"/>
    <path id="prefix__Rectangle_193" d="M0 0H12.703V12.703H0z" class="prefix__cls-1" data-name="Rectangle 193" transform="translate(352.72 157.054)"/>
    <path id="prefix__Rectangle_194" d="M0 0H12.703V12.703H0z" class="prefix__cls-1" data-name="Rectangle 194" transform="translate(77.617 97.852)"/>
    <path id="prefix__Rectangle_195" d="M0 0H12.703V12.703H0z" class="prefix__cls-1" data-name="Rectangle 195" transform="translate(77.617 127.366)"/>
    <path id="prefix__Rectangle_196" d="M0 0H12.703V12.703H0z" class="prefix__cls-1" data-name="Rectangle 196" transform="translate(77.617 156.881)"/>
    <path id="prefix__Rectangle_197" d="M0 0H12.703V12.703H0z" class="prefix__cls-1" data-name="Rectangle 197" transform="translate(77.617 186.39)"/>
    <path id="prefix__Rectangle_198" d="M0 0H12.703V12.703H0z" class="prefix__cls-1" data-name="Rectangle 198" transform="translate(77.617 215.905)"/>
    <path id="prefix__Rectangle_199" d="M0 0H12.703V12.703H0z" class="prefix__cls-1" data-name="Rectangle 199" transform="translate(77.617 245.419)"/>
    <path id="prefix__Rectangle_200" d="M0 0H12.703V12.703H0z" class="prefix__cls-1" data-name="Rectangle 200" transform="translate(401.228 157.054)"/>
    <path id="prefix__Rectangle_201" d="M0 0H12.703V12.703H0z" class="prefix__cls-1" data-name="Rectangle 201" transform="translate(352.72 188.395)"/>
    <path id="prefix__Rectangle_202" d="M0 0H12.703V12.703H0z" class="prefix__cls-1" data-name="Rectangle 202" transform="translate(401.228 188.395)"/>
    <path id="prefix__Rectangle_203" d="M0 0H12.703V12.703H0z" class="prefix__cls-1" data-name="Rectangle 203" transform="translate(352.72 219.731)"/>
    <path id="prefix__Rectangle_204" d="M0 0H12.703V12.703H0z" class="prefix__cls-1" data-name="Rectangle 204" transform="translate(401.228 219.731)"/>
    <path id="prefix__Rectangle_205" d="M0 0H12.703V12.703H0z" class="prefix__cls-1" data-name="Rectangle 205" transform="translate(352.72 251.072)"/>
    <path id="prefix__Rectangle_206" d="M0 0H12.703V12.703H0z" class="prefix__cls-1" data-name="Rectangle 206" transform="translate(401.228 251.072)"/>
    <path id="prefix__Rectangle_207" d="M0 0H12.703V12.703H0z" class="prefix__cls-1" data-name="Rectangle 207" transform="translate(352.72 282.413)"/>
    <path id="prefix__Rectangle_208" d="M0 0H12.703V12.703H0z" class="prefix__cls-1" data-name="Rectangle 208" transform="translate(401.228 282.413)"/>
    <path id="prefix__Path_444" d="M774.41 697.094V688.9h12.7v7.028z" class="prefix__cls-1" data-name="Path 444" transform="translate(-421.69 -375.151)"/>
    <path id="prefix__Path_445" d="M64.06 336.48v7.288h48.585v-7.288zm4.327 6.832h-3.566v-6.377h3.566zm4.327 0h-3.566v-6.377h3.566zm4.327 0h-3.566v-6.377h3.566zm4.327 0H77.8v-6.377h3.566zm4.327 0h-3.567v-6.377h3.566zm4.327 0h-3.567v-6.377h3.566zm4.327 0h-3.567v-6.377h3.566zm4.327 0h-3.567v-6.377h3.566zm4.327 0h-3.567v-6.377H103zm4.327 0h-3.566v-6.377h3.566zm4.555 0h-3.795v-6.377h3.794z" class="prefix__cls-1" data-name="Path 445" transform="translate(-49.904 -203.215)"/>
    <path id="prefix__Path_451" d="M139 615.19c.41.232.824.456 1.243.679v-.223h3.566v2.013l.761.346v-2.359h3.566v3.867l.761.292v-4.159h3.794v5.466l.761.237v-6.159z" class="prefix__cls-1" data-name="Path 451" transform="translate(-90.711 -354.981)"/>
    <path id="prefix__Path_452" d="M456.358 197.983s-10.854-.651-9.565 6.955a1.854 1.854 0 0 0 .961 1.954s.023-.565 1.116-.373a4.838 4.838 0 0 0 1.18.059 2.437 2.437 0 0 0 1.439-.6s3.052-1.262 4.24-6.249c0 0 .879-1.089.843-1.366l-1.822.783a3.288 3.288 0 0 1 .132 2.419s-.059-2.373-.41-2.314c-.073 0-.952.455-.952.455s1.075 2.3.264 3.976c0 0 .31-2.838-.6-3.808l-1.289.752s1.257 2.378.405 4.318c0 0 .219-2.974-.679-4.136l-1.166.911s1.18 2.346.455 3.953c0 0-.1-3.462-.715-3.726a7.291 7.291 0 0 0-1.18 1.271s.811 1.7.31 2.6c0 0-.31-2.309-.56-2.318a7.653 7.653 0 0 0-1.125 2.578 5.575 5.575 0 0 1 .879-2.733 3.07 3.07 0 0 0-1.562.806s.159-1.079 1.822-1.175a7.085 7.085 0 0 1 1.066-1.23 6.711 6.711 0 0 0-2.642.305 2.974 2.974 0 0 1 2.942-.56l1.157-.938a9.868 9.868 0 0 0-3.106.023s1.057-.911 3.393-.246l1.257-.752a11.488 11.488 0 0 0-2.947-.255 4.518 4.518 0 0 1 3.311.055l.911-.405s-1.366-.264-1.749-.305-.419-.155-.419-.155a4.7 4.7 0 0 1 2.542.282 12.484 12.484 0 0 0 1.863-.811z" class="prefix__cls-1" data-name="Path 452" transform="translate(-258.256 -127.792)"/>
    <path id="prefix__Path_453" d="M404.267 279.127s-3.707 10.225 3.949 11.159a1.863 1.863 0 0 0 2.15-.369s-.537-.182-.041-1.175a5.108 5.108 0 0 0 .387-1.116 2.446 2.446 0 0 0-.159-1.549s-.342-3.284-4.792-5.839c0 0-.793-1.152-1.07-1.2l.232 1.977a3.283 3.283 0 0 1 2.355.56s-2.277-.615-2.337-.264c0 .073.169 1.043.169 1.043s2.514-.378 3.89.879c0 0-2.633-1.1-3.826-.506l.355 1.448s2.642-.533 4.259.838c0 0-2.792-1.057-4.158-.524l.542 1.366s2.583-.455 3.922.683c0 0-3.348-.911-3.776-.373a7.169 7.169 0 0 0 .884 1.489s1.863-.292 2.583.455c0 0-2.3-.36-2.382-.118a7.806 7.806 0 0 0 2.15 1.822 5.571 5.571 0 0 1-2.364-1.612 3.088 3.088 0 0 0 .332 1.722s-.993-.456-.61-2.068a7.333 7.333 0 0 1-.879-1.366 6.686 6.686 0 0 0-.455 2.614s-.733-1.13.3-2.979l-.578-1.366a9.128 9.128 0 0 0-.843 2.961s-.565-1.266.729-3.32l-.364-1.416a11.268 11.268 0 0 0-1.079 2.733 4.521 4.521 0 0 1 .993-3.161l-.132-.979s-.642 1.221-.793 1.59-.264.36-.264.36a4.665 4.665 0 0 1 .993-2.355 11.282 11.282 0 0 0-.272-2.044z" class="prefix__cls-1" data-name="Path 453" transform="translate(-234.668 -171.938)"/>
    <path id="prefix__Path_454" d="M562.305 260.211s-3.712 10.221 3.949 11.154A1.845 1.845 0 0 0 568.4 271s-.533-.178-.041-1.175a5.2 5.2 0 0 0 .392-1.111 2.465 2.465 0 0 0-.164-1.553s-.342-3.284-4.787-5.839c0 0-.792-1.148-1.07-1.2l.228 1.981a3.355 3.355 0 0 1 2.364.56s-2.277-.619-2.337-.264c0 .073.169 1.043.169 1.043s2.514-.378 3.885.875c0 0-2.633-1.1-3.821-.506l.355 1.448s2.637-.528 4.254.838c0 0-2.792-1.052-4.154-.524l.542 1.366s2.582-.455 3.922.679c0 0-3.352-.911-3.776-.374a7.183 7.183 0 0 0 .884 1.494s1.863-.3 2.578.455c0 0-2.3-.36-2.382-.123a7.851 7.851 0 0 0 2.154 1.822 5.574 5.574 0 0 1-2.364-1.617 3.059 3.059 0 0 0 .332 1.726s-.993-.456-.615-2.072a6.972 6.972 0 0 1-.875-1.366 6.6 6.6 0 0 0-.455 2.619s-.729-1.13.3-2.979l-.574-1.366a9.219 9.219 0 0 0-.847 2.965s-.565-1.271.729-3.325l-.36-1.417a11.362 11.362 0 0 0-1.08 2.733 4.5 4.5 0 0 1 .988-3.161l-.132-.975s-.638 1.221-.793 1.59-.26.355-.26.355a4.682 4.682 0 0 1 .988-2.355 11.574 11.574 0 0 0-.272-2.036z" class="prefix__cls-1" data-name="Path 454" transform="translate(-320.724 -161.635)"/>
    <path id="prefix__Path_455" d="M336.4 443.691s-3.708 10.225 3.949 11.154a1.854 1.854 0 0 0 2.15-.369s-.537-.178-.041-1.171a4.949 4.949 0 0 0 .387-1.116 2.459 2.459 0 0 0-.159-1.553s-.342-3.284-4.787-5.839c0 0-.8-1.148-1.075-1.2l.232 1.981a3.3 3.3 0 0 1 2.359.56s-2.277-.619-2.341-.264c0 .073.169 1.043.169 1.043s2.514-.378 3.89.875c0 0-2.633-1.1-3.826-.506l.36 1.448s2.637-.528 4.254.838c0 0-2.792-1.052-4.158-.524l.542 1.366s2.582-.455 3.922.679c0 0-3.348-.911-3.776-.373a7.037 7.037 0 0 0 .888 1.494s1.858-.3 2.578.455c0 0-2.3-.36-2.382-.123a7.8 7.8 0 0 0 2.15 1.822 5.574 5.574 0 0 1-2.359-1.617 3.083 3.083 0 0 0 .328 1.726s-.988-.456-.61-2.072a7.182 7.182 0 0 1-.879-1.366 6.716 6.716 0 0 0-.456 2.619s-.729-1.13.3-2.979l-.574-1.366a9.219 9.219 0 0 0-.847 2.965s-.565-1.271.729-3.32l-.364-1.421a11.355 11.355 0 0 0-1.079 2.733 4.522 4.522 0 0 1 .993-3.161l-.132-.975s-.642 1.221-.793 1.59-.264.355-.264.355a4.714 4.714 0 0 1 .993-2.355 11.142 11.142 0 0 0-.271-2.033z" class="prefix__cls-1" data-name="Path 455" transform="translate(-197.711 -261.545)"/>
    <path id="prefix__Path_456" d="M304.074 232.1s-3.712 10.225 3.944 11.159a1.863 1.863 0 0 0 2.15-.369s-.533-.182-.041-1.175a4.875 4.875 0 0 0 .387-1.116 2.464 2.464 0 0 0-.159-1.553s-.342-3.284-4.787-5.835c0 0-.792-1.152-1.075-1.2l.232 1.977a3.3 3.3 0 0 1 2.359.56s-2.277-.615-2.337-.264c0 .073.169 1.043.169 1.043s2.51-.378 3.885.875c0 0-2.633-1.1-3.821-.506l.355 1.453s2.637-.533 4.254.838c0 0-2.792-1.057-4.154-.528l.542 1.366s2.582-.455 3.917.679c0 0-3.348-.911-3.776-.369a7.029 7.029 0 0 0 .888 1.489s1.858-.292 2.578.455c0 0-2.3-.36-2.382-.118a7.882 7.882 0 0 0 2.15 1.822 5.542 5.542 0 0 1-2.359-1.612 3.046 3.046 0 0 0 .332 1.722s-.993-.455-.615-2.068a7.334 7.334 0 0 1-.879-1.366 6.715 6.715 0 0 0-.455 2.619s-.729-1.13.3-2.979l-.574-1.366a9.221 9.221 0 0 0-.847 2.961s-.565-1.266.729-3.32l-.364-1.417a11.464 11.464 0 0 0-1.079 2.733 4.517 4.517 0 0 1 .993-3.161l-.132-.979s-.638 1.221-.793 1.59-.264.355-.264.355a4.714 4.714 0 0 1 .993-2.355 11.648 11.648 0 0 0-.264-2.04z" class="prefix__cls-1" data-name="Path 456" transform="translate(-180.109 -146.328)"/>
    <path id="prefix__Path_457" d="M365.58 354s2.865 10.476 9.656 6.832a1.858 1.858 0 0 0 1.544-1.539s-.542.164-.711-.934a5.381 5.381 0 0 0-.323-1.139 2.487 2.487 0 0 0-1.029-1.175s-2.173-2.482-7.288-2.009c0 0-1.312-.483-1.562-.36l1.325 1.485a3.327 3.327 0 0 1 2.25-.911s-2.227.815-2.059 1.13c.032.068.738.756.738.756s1.822-1.758 3.68-1.526c0 0-2.788.62-3.416 1.79l1.13.984s1.845-1.959 3.958-1.772c0 0-2.888.747-3.7 1.968l1.239.815s1.822-1.872 3.594-1.708c0 0-3.252 1.2-3.3 1.872a7.015 7.015 0 0 0 1.581.711s1.366-1.312 2.364-1.125c0 0-2.086 1.029-2.018 1.275a8.1 8.1 0 0 0 2.8.237 5.53 5.53 0 0 1-2.86.041 3.093 3.093 0 0 0 1.266 1.221s-1.075.2-1.694-1.339a7.1 7.1 0 0 1-1.508-.615 6.683 6.683 0 0 0 1.134 2.4s-1.248-.5-1.471-2.605l-1.262-.793a9.519 9.519 0 0 0 1.02 2.91s-1.193-.711-1.321-3.134l-1.116-.947a11.287 11.287 0 0 0 .706 2.869 4.56 4.56 0 0 1-1.016-3.156l-.67-.72s.182 1.366.269 1.754 0 .455 0 .455a4.664 4.664 0 0 1-.547-2.5A11.367 11.367 0 0 0 365.58 354z" class="prefix__cls-1" data-name="Path 457" transform="translate(-214.091 -212.568)"/>
    <path id="prefix__Path_458" d="M536.21 374.589s2.865 10.476 9.661 6.832a1.854 1.854 0 0 0 1.539-1.54s-.537.164-.711-.934a4.9 4.9 0 0 0-.323-1.139 2.473 2.473 0 0 0-1.025-1.175s-2.173-2.482-7.287-2.009c0 0-1.312-.483-1.567-.36l1.33 1.485a3.327 3.327 0 0 1 2.25-.911s-2.227.815-2.063 1.134c.032.064.738.752.738.752s1.822-1.758 3.68-1.526c0 0-2.783.619-3.411 1.79l1.125.984s1.849-1.959 3.958-1.772c0 0-2.888.747-3.7 1.968l1.239.815s1.822-1.872 3.6-1.708c0 0-3.252 1.2-3.3 1.877a7.1 7.1 0 0 0 1.585.706s1.366-1.312 2.359-1.125c0 0-2.086 1.034-2.013 1.275a8.1 8.1 0 0 0 2.8.237 5.529 5.529 0 0 1-2.86.041 3.061 3.061 0 0 0 1.266 1.221s-1.075.2-1.7-1.339a7.1 7.1 0 0 1-1.508-.615 6.769 6.769 0 0 0 1.139 2.4 2.971 2.971 0 0 1-1.471-2.61l-1.262-.793a9.47 9.47 0 0 0 1.016 2.91s-1.193-.711-1.321-3.134l-1.111-.947a11.411 11.411 0 0 0 .7 2.869 4.546 4.546 0 0 1-1.011-3.156l-.669-.72s.182 1.366.269 1.754 0 .455 0 .455a4.665 4.665 0 0 1-.547-2.5s-1.289-1.587-1.394-1.492z" class="prefix__cls-1" data-name="Path 458" transform="translate(-307.004 -223.78)"/>
    <path id="prefix__Path_459" d="M922.97 660.774l4.587 4.842 7.273-12.816-.656-1.439z" class="prefix__cls-2" data-name="Path 459" transform="translate(-502.585 -354.709)"/>
    <path id="prefix__Path_537" d="M1048.124 795.1s19.258-1.161 16.989 12.334a3.281 3.281 0 0 1-1.713 3.466s-.032-1-1.977-.66a8.787 8.787 0 0 1-2.09.1 4.327 4.327 0 0 1-2.555-1.057s-5.416-2.236-7.52-11.082c0 0-1.558-1.931-1.494-2.428l3.248 1.366a5.83 5.83 0 0 0-.237 4.3s.1-4.209.729-4.1c.128 0 1.69.811 1.69.811s-1.913 4.1-.455 7.051c0 0-.547-5.01 1.066-6.755l2.277 1.334s-2.232 4.218-.719 7.661c0 0-.387-5.279 1.2-7.338l2.072 1.617s-2.1 4.158-.82 7.014c0 0 .168-6.144 1.271-6.609a12.228 12.228 0 0 1 2.086 2.255s-1.435 3.015-.542 4.609c0 0 .547-4.1.993-4.1 0 0 1.822 2.733 1.995 4.555a9.86 9.86 0 0 0-1.558-4.832 5.425 5.425 0 0 1 2.765 1.435s-.278-1.917-3.188-2.086a12.616 12.616 0 0 0-1.89-2.182 11.858 11.858 0 0 1 4.682.537s-1.558-1.822-5.22-.988l-2.045-1.667s3.84-.528 5.466.055c0 0-1.872-1.6-6.017-.456l-2.227-1.33a20.28 20.28 0 0 1 5.22-.456s-2.054-1.111-5.876.091l-1.589-.715s2.4-.455 3.1-.542.743-.269.743-.269a8.317 8.317 0 0 0-4.5.5s-3.415-1.225-3.36-1.439z" class="prefix__cls-2" data-name="Path 537" transform="translate(-657.615 -575.428)"/>
    <ellipse id="prefix__Ellipse_153" cx="13.628" cy="2.305" class="prefix__cls-1" data-name="Ellipse 153" rx="13.628" ry="2.305" transform="translate(452.486 356.836)"/>
    <ellipse id="prefix__Ellipse_154" cx="7.684" cy="1.298" class="prefix__cls-1" data-name="Ellipse 154" rx="7.684" ry="1.298" transform="translate(501.153 314.883)"/>
    <path id="prefix__Path_538" d="M1011.9 731.54s-13.108-.788-11.564 8.394a2.245 2.245 0 0 0 1.166 2.364s.023-.683 1.366-.455a5.988 5.988 0 0 0 1.425.068 2.969 2.969 0 0 0 1.74-.72s3.685-1.521 5.12-7.543c0 0 1.057-1.316 1.016-1.653l-2.209.943a3.991 3.991 0 0 1 .159 2.924s-.073-2.865-.5-2.8c-.087 0-1.148.551-1.148.551s1.3 2.783.319 4.8c0 0 .369-3.425-.729-4.6l-1.553.911s1.517 2.874.487 5.215c0 0 .264-3.594-.815-5.01l-1.412 1.1s1.426 2.833.556 4.773c0 0-.114-4.181-.861-4.5a8.633 8.633 0 0 0-1.426 1.539s.979 2.054.373 3.138c0 0-.373-2.787-.679-2.8a9.143 9.143 0 0 0-1.366 3.111 6.727 6.727 0 0 1 1.061-3.288 3.725 3.725 0 0 0-1.886.975s.191-1.3 2.186-1.417a8.776 8.776 0 0 1 1.289-1.489 8.115 8.115 0 0 0-3.188.369s1.061-1.23 3.553-.67l1.394-1.139a11.457 11.457 0 0 0-3.721.036s1.275-1.089 4.1-.3l1.517-.911a13.771 13.771 0 0 0-3.553-.305s1.4-.756 4 .064l1.084-.487s-1.631-.323-2.109-.374-.506-.182-.506-.182a5.661 5.661 0 0 1 3.065.342 12.93 12.93 0 0 0 2.249-.974z" class="prefix__cls-2" data-name="Path 538" transform="translate(-559.667 -418.328)"/>
    <ellipse id="prefix__Ellipse_155" cx="9.278" cy="1.567" class="prefix__cls-1" data-name="Ellipse 155" rx="9.278" ry="1.567" transform="translate(433.931 323.2)"/>
    <ellipse id="prefix__Ellipse_156" cx="13.628" cy="2.305" class="prefix__cls-1" data-name="Ellipse 156" rx="13.628" ry="2.305" transform="translate(0 336.695)"/>
    <path id="prefix__Path_539" fill="#a8a8a8" d="M42.81 759.655s7.77-.237 10.116-1.909 11.956-3.644 12.539-.984 11.683 13.309 2.906 13.377-20.391-1.366-22.732-2.792-2.829-7.692-2.829-7.692z" data-name="Path 539" transform="translate(187.785 -431.363)"/>
    <path id="prefix__Path_540" d="M68.52 774.215c-8.777.068-20.391-1.366-22.728-2.792-1.781-1.084-2.491-4.978-2.733-6.773H42.8s.492 6.272 2.828 7.693 13.956 2.865 22.732 2.792c2.532 0 3.407-.911 3.361-2.277-.349.842-1.315 1.342-3.201 1.357z" data-name="Path 540" opacity="0.2" transform="translate(-38.327 -436.367)"/>
</svg>
