<svg xmlns="http://www.w3.org/2000/svg" width="76.669" height="52.71" viewBox="0 0 76.669 52.71">
  <g id="credit-card" transform="translate(0 -80)">
    <path id="Path_1214" data-name="Path 1214" d="M68.283,80H8.386A8.4,8.4,0,0,0,0,88.386v35.938a8.4,8.4,0,0,0,8.386,8.386h59.9a8.4,8.4,0,0,0,8.386-8.386V88.386A8.4,8.4,0,0,0,68.283,80Zm-59.9,4.792h59.9a3.6,3.6,0,0,1,3.594,3.594v4.792H4.792V88.386A3.6,3.6,0,0,1,8.386,84.792Zm59.9,43.126H8.386a3.6,3.6,0,0,1-3.594-3.594V97.969H71.877v26.355A3.6,3.6,0,0,1,68.283,127.918Z" fill="#779be7"/>
    <path id="Path_1215" data-name="Path 1215" d="M84.792,311.188H82.4a2.4,2.4,0,0,1-2.4-2.4v-2.4a2.4,2.4,0,0,1,2.4-2.4h2.4a2.4,2.4,0,0,1,2.4,2.4v2.4A2.4,2.4,0,0,1,84.792,311.188Z" transform="translate(-68.021 -190.457)" fill="#779be7"/>
  </g>
</svg>
