<svg xmlns="http://www.w3.org/2000/svg" width="697.464" height="400.875" viewBox="0 0 697.464 400.875">
  <g id="fig1" transform="translate(-61 -32.355)">
    <g id="bg" transform="translate(143.863 63.267)">
      <ellipse id="Ellipse_138" data-name="Ellipse 138" cx="77.744" cy="8.599" rx="77.744" ry="8.599" transform="translate(195.556 352.764)" fill="#779be7" opacity="0.1"/>
      <path id="Path_438" data-name="Path 438" d="M538.133,294.933C526.036,319.9,501.459,336.59,476,347.6c-34.283,14.826-72.037,20.706-109.272,18.219q-9.793-.647-19.517-2.082a246.155,246.155,0,0,1-65.255-19.02q-8.973-4.054-17.627-8.818a225.384,225.384,0,0,1-27.538-18.009q-3.293-2.514-6.5-5.156c-1.48-1.221-2.947-2.469-4.436-3.68a55.981,55.981,0,0,0-9.984-6.8,35.676,35.676,0,0,0-3.343-1.476c-11.423-4.345-24.6-2.705-36.488.683-9.037,2.555-17.841,6.085-26.891,8.6a89.27,89.27,0,0,1-12.257,2.605,65.228,65.228,0,0,1-27.551-2.4l-.761-.237q-1.913-.6-3.794-1.316l-.761-.292q-1.822-.7-3.566-1.508l-.761-.346q-1.822-.847-3.566-1.79c-.419-.219-.834-.455-1.243-.679a74.546,74.546,0,0,1-17.836-13.887c-.15-.15-.292-.305-.455-.455-.724-.783-1.435-1.58-2.122-2.4-.255-.3-.51-.6-.761-.911q-1.225-1.5-2.364-3.056c-.114-.15-.223-.305-.333-.455a65.856,65.856,0,0,1-7.684-13.892c-.064-.15-.123-.305-.178-.455q-.911-2.346-1.662-4.769c-.2-.674-.4-1.366-.574-2.04-.059-.2-.114-.405-.164-.606C58.269,251.285,58,241,58,230.766v-3.575c.073-16.547.328-33.377,2.769-49.7a2.073,2.073,0,0,1,.05-.337,155.2,155.2,0,0,1,3.329-16.315,120.354,120.354,0,0,1,5.607-16.534c5.616-13.209,13.783-25.228,22.851-36.369,22.819-28.016,52.775-51.568,87.837-60.354,37.781-9.487,79.771-.4,110.246,23.867,9.292,7.4,17.64,16.156,28.075,21.826,9.109,4.937,19.772,6.982,29.528,3.1,8.062-3.188,13.309-4.805,22.364-4.318a187.452,187.452,0,0,1,54.82,11.473c.711.26,1.421.528,2.127.8,45.87,17.558,85.309,52.425,105.8,97.229q.815,1.776,1.58,3.58C547.2,233.659,551.611,267.122,538.133,294.933Z" transform="translate(-46.604 -43.893)" fill="#779be7" opacity="0.1"/>
      <path id="Path_439" data-name="Path 439" d="M149.153,226.582v172.7a89.275,89.275,0,0,1-12.257,2.605,65.228,65.228,0,0,1-27.551-2.4l-.761-.237q-1.913-.6-3.794-1.316l-.761-.292q-1.822-.7-3.566-1.508l-.761-.346q-1.822-.847-3.566-1.79c-.419-.219-.834-.455-1.243-.679a74.545,74.545,0,0,1-17.836-13.887c-.15-.15-.292-.305-.455-.455-.724-.783-1.435-1.58-2.122-2.4-.255-.3-.51-.6-.761-.911q-1.225-1.5-2.364-3.056c-.114-.15-.223-.305-.333-.455a65.856,65.856,0,0,1-7.684-13.892c-.064-.15-.123-.305-.178-.455q-.911-2.346-1.662-4.769c-.2-.674-.4-1.366-.574-2.04-.059-.2-.114-.405-.164-.606C58.269,340.5,58,330.21,58,319.98v-3.575c.073-16.547.328-33.377,2.769-49.7a2.073,2.073,0,0,1,.05-.337,155.2,155.2,0,0,1,3.329-16.315h46.5V226.582h9.3V207.73H139.9v18.852Z" transform="translate(-46.604 -133.107)" fill="#779be7" opacity="0.1"/>
      <path id="Path_440" data-name="Path 440" d="M722.882,366.2c-12.1,24.964-36.674,41.657-62.135,52.666-34.283,14.826-72.037,20.706-109.272,18.219q-9.793-.647-19.517-2.082a246.157,246.157,0,0,1-65.255-19.02q-8.973-4.054-17.627-8.818a225.377,225.377,0,0,1-27.538-18.009q-3.293-2.514-6.495-5.156c-1.48-1.221-2.947-2.469-4.436-3.68a55.98,55.98,0,0,0-9.984-6.8,35.676,35.676,0,0,0-3.343-1.476V301.378h84.531v15.727h37.1V202.063h43.666v46h21.6V220.828h17.845v-29.1h8.2V174.78c.711.26,1.421.528,2.127.8v16.156h7.989v29.114h17.841v27.237h26.294v103.77h41.794V276.386H719.73C731.95,304.93,736.359,338.394,722.882,366.2Z" transform="translate(-231.352 -115.165)" fill="#779be7" opacity="0.1"/>
      <rect id="Rectangle_186" data-name="Rectangle 186" width="19.517" height="19.517" transform="translate(300.605 104.206)" fill="#779be7" opacity="0.1"/>
      <rect id="Rectangle_187" data-name="Rectangle 187" width="19.517" height="19.517" transform="translate(300.605 144.665)" fill="#779be7" opacity="0.1"/>
      <rect id="Rectangle_188" data-name="Rectangle 188" width="19.517" height="19.517" transform="translate(300.605 185.12)" fill="#779be7" opacity="0.1"/>
      <rect id="Rectangle_189" data-name="Rectangle 189" width="19.517" height="19.517" transform="translate(300.605 225.579)" fill="#779be7" opacity="0.1"/>
      <rect id="Rectangle_190" data-name="Rectangle 190" width="19.517" height="19.517" transform="translate(300.605 266.038)" fill="#779be7" opacity="0.1"/>
      <path id="Path_441" data-name="Path 441" d="M712.487,716.81v15.413q-9.792-.647-19.517-2.082V716.81Z" transform="translate(-392.365 -410.317)" fill="#779be7" opacity="0.1"/>
      <rect id="Rectangle_191" data-name="Rectangle 191" width="68.316" height="8.841" transform="translate(172.363 211.437)" fill="#779be7" opacity="0.1"/>
      <rect id="Rectangle_192" data-name="Rectangle 192" width="68.316" height="8.841" transform="translate(172.363 238.282)" fill="#779be7" opacity="0.1"/>
      <path id="Path_442" data-name="Path 442" d="M487.975,626v8.836H437.491Q434.2,632.322,431,629.68c-1.48-1.221-2.947-2.469-4.436-3.68Z" transform="translate(-247.296 -360.868)" fill="#779be7" opacity="0.1"/>
      <path id="Path_443" data-name="Path 443" d="M533.956,685v8.841h-5.329Q519.654,689.764,511,685Z" transform="translate(-293.276 -392.995)" fill="#779be7" opacity="0.1"/>
      <rect id="Rectangle_193" data-name="Rectangle 193" width="12.703" height="12.703" transform="translate(352.72 157.054)" fill="#779be7" opacity="0.1"/>
      <rect id="Rectangle_194" data-name="Rectangle 194" width="12.703" height="12.703" transform="translate(77.617 97.852)" fill="#779be7" opacity="0.1"/>
      <rect id="Rectangle_195" data-name="Rectangle 195" width="12.703" height="12.703" transform="translate(77.617 127.366)" fill="#779be7" opacity="0.1"/>
      <rect id="Rectangle_196" data-name="Rectangle 196" width="12.703" height="12.703" transform="translate(77.617 156.881)" fill="#779be7" opacity="0.1"/>
      <rect id="Rectangle_197" data-name="Rectangle 197" width="12.703" height="12.703" transform="translate(77.617 186.39)" fill="#779be7" opacity="0.1"/>
      <rect id="Rectangle_198" data-name="Rectangle 198" width="12.703" height="12.703" transform="translate(77.617 215.905)" fill="#779be7" opacity="0.1"/>
      <rect id="Rectangle_199" data-name="Rectangle 199" width="12.703" height="12.703" transform="translate(77.617 245.419)" fill="#779be7" opacity="0.1"/>
      <rect id="Rectangle_200" data-name="Rectangle 200" width="12.703" height="12.703" transform="translate(401.228 157.054)" fill="#779be7" opacity="0.1"/>
      <rect id="Rectangle_201" data-name="Rectangle 201" width="12.703" height="12.703" transform="translate(352.72 188.395)" fill="#779be7" opacity="0.1"/>
      <rect id="Rectangle_202" data-name="Rectangle 202" width="12.703" height="12.703" transform="translate(401.228 188.395)" fill="#779be7" opacity="0.1"/>
      <rect id="Rectangle_203" data-name="Rectangle 203" width="12.703" height="12.703" transform="translate(352.72 219.731)" fill="#779be7" opacity="0.1"/>
      <rect id="Rectangle_204" data-name="Rectangle 204" width="12.703" height="12.703" transform="translate(401.228 219.731)" fill="#779be7" opacity="0.1"/>
      <rect id="Rectangle_205" data-name="Rectangle 205" width="12.703" height="12.703" transform="translate(352.72 251.072)" fill="#779be7" opacity="0.1"/>
      <rect id="Rectangle_206" data-name="Rectangle 206" width="12.703" height="12.703" transform="translate(401.228 251.072)" fill="#779be7" opacity="0.1"/>
      <rect id="Rectangle_207" data-name="Rectangle 207" width="12.703" height="12.703" transform="translate(352.72 282.413)" fill="#779be7" opacity="0.1"/>
      <rect id="Rectangle_208" data-name="Rectangle 208" width="12.703" height="12.703" transform="translate(401.228 282.413)" fill="#779be7" opacity="0.1"/>
      <path id="Path_444" data-name="Path 444" d="M774.41,697.094V688.9h12.7v7.028Z" transform="translate(-421.69 -375.151)" fill="#779be7" opacity="0.1"/>
      <path id="Path_445" data-name="Path 445" d="M64.06,336.48v7.288h48.585V336.48Zm4.327,6.832H64.821v-6.377h3.566Zm4.327,0H69.148v-6.377h3.566Zm4.327,0H73.475v-6.377h3.566Zm4.327,0H77.8v-6.377h3.566Zm4.327,0H82.128v-6.377h3.566Zm4.327,0H86.455v-6.377h3.566Zm4.327,0H90.782v-6.377h3.566Zm4.327,0H95.109v-6.377h3.566Zm4.327,0H99.436v-6.377H103Zm4.327,0h-3.566v-6.377h3.566Zm4.555,0H108.09v-6.377h3.794Z" transform="translate(-49.904 -203.215)" fill="#779be7" opacity="0.1"/>
      <path id="Path_451" data-name="Path 451" d="M139,615.19c.41.232.824.456,1.243.679v-.223h3.566v2.013l.761.346v-2.359h3.566v3.867l.761.292v-4.159h3.794v5.466l.761.237V615.19Z" transform="translate(-90.711 -354.981)" fill="#779be7" opacity="0.1"/>
      <path id="Path_452" data-name="Path 452" d="M456.358,197.983s-10.854-.651-9.565,6.955a1.854,1.854,0,0,0,.961,1.954s.023-.565,1.116-.373a4.838,4.838,0,0,0,1.18.059,2.437,2.437,0,0,0,1.439-.6h0s3.052-1.262,4.24-6.249c0,0,.879-1.089.843-1.366l-1.822.783a3.288,3.288,0,0,1,.132,2.419s-.059-2.373-.41-2.314c-.073,0-.952.455-.952.455s1.075,2.3.264,3.976c0,0,.31-2.838-.6-3.808l-1.289.752s1.257,2.378.405,4.318c0,0,.219-2.974-.679-4.136l-1.166.911s1.18,2.346.455,3.953c0,0-.1-3.462-.715-3.726a7.291,7.291,0,0,0-1.18,1.271s.811,1.7.31,2.6c0,0-.31-2.309-.56-2.318a7.653,7.653,0,0,0-1.125,2.578,5.575,5.575,0,0,1,.879-2.733,3.07,3.07,0,0,0-1.562.806s.159-1.079,1.822-1.175a7.085,7.085,0,0,1,1.066-1.23,6.711,6.711,0,0,0-2.642.305,2.974,2.974,0,0,1,2.942-.56l1.157-.938a9.868,9.868,0,0,0-3.106.023s1.057-.911,3.393-.246l1.257-.752a11.488,11.488,0,0,0-2.947-.255,4.518,4.518,0,0,1,3.311.055l.911-.405s-1.366-.264-1.749-.305-.419-.155-.419-.155a4.7,4.7,0,0,1,2.542.282A12.484,12.484,0,0,0,456.358,197.983Z" transform="translate(-258.256 -127.792)" fill="#779be7" opacity="0.1"/>
      <path id="Path_453" data-name="Path 453" d="M404.267,279.127s-3.707,10.225,3.949,11.159a1.863,1.863,0,0,0,2.15-.369s-.537-.182-.041-1.175a5.108,5.108,0,0,0,.387-1.116,2.446,2.446,0,0,0-.159-1.549h0s-.342-3.284-4.792-5.839c0,0-.793-1.152-1.07-1.2l.232,1.977a3.283,3.283,0,0,1,2.355.56s-2.277-.615-2.337-.264c0,.073.169,1.043.169,1.043s2.514-.378,3.89.879c0,0-2.633-1.1-3.826-.506l.355,1.448s2.642-.533,4.259.838c0,0-2.792-1.057-4.158-.524l.542,1.366s2.583-.455,3.922.683c0,0-3.348-.911-3.776-.373a7.169,7.169,0,0,0,.884,1.489s1.863-.292,2.583.455c0,0-2.3-.36-2.382-.118a7.806,7.806,0,0,0,2.15,1.822,5.571,5.571,0,0,1-2.364-1.612,3.088,3.088,0,0,0,.332,1.722s-.993-.456-.61-2.068a7.333,7.333,0,0,1-.879-1.366,6.686,6.686,0,0,0-.455,2.614s-.733-1.13.3-2.979l-.578-1.366a9.128,9.128,0,0,0-.843,2.961s-.565-1.266.729-3.32l-.364-1.416a11.268,11.268,0,0,0-1.079,2.733,4.521,4.521,0,0,1,.993-3.161l-.132-.979s-.642,1.221-.793,1.59-.264.36-.264.36a4.665,4.665,0,0,1,.993-2.355A11.282,11.282,0,0,0,404.267,279.127Z" transform="translate(-234.668 -171.938)" fill="#779be7" opacity="0.1"/>
      <path id="Path_454" data-name="Path 454" d="M562.305,260.211s-3.712,10.221,3.949,11.154A1.845,1.845,0,0,0,568.4,271s-.533-.178-.041-1.175a5.2,5.2,0,0,0,.392-1.111,2.465,2.465,0,0,0-.164-1.553h0s-.342-3.284-4.787-5.839c0,0-.792-1.148-1.07-1.2l.228,1.981a3.355,3.355,0,0,1,2.364.56s-2.277-.619-2.337-.264c0,.073.169,1.043.169,1.043s2.514-.378,3.885.875c0,0-2.633-1.1-3.821-.506l.355,1.448s2.637-.528,4.254.838c0,0-2.792-1.052-4.154-.524l.542,1.366s2.582-.455,3.922.679c0,0-3.352-.911-3.776-.374a7.183,7.183,0,0,0,.884,1.494s1.863-.3,2.578.455c0,0-2.3-.36-2.382-.123a7.851,7.851,0,0,0,2.154,1.822,5.574,5.574,0,0,1-2.364-1.617,3.059,3.059,0,0,0,.332,1.726s-.993-.456-.615-2.072a6.972,6.972,0,0,1-.875-1.366,6.6,6.6,0,0,0-.455,2.619s-.729-1.13.3-2.979l-.574-1.366a9.219,9.219,0,0,0-.847,2.965s-.565-1.271.729-3.325l-.36-1.417a11.362,11.362,0,0,0-1.08,2.733,4.5,4.5,0,0,1,.988-3.161l-.132-.975s-.638,1.221-.793,1.59-.26.355-.26.355a4.682,4.682,0,0,1,.988-2.355A11.574,11.574,0,0,0,562.305,260.211Z" transform="translate(-320.724 -161.635)" fill="#779be7" opacity="0.1"/>
      <path id="Path_455" data-name="Path 455" d="M336.4,443.691s-3.708,10.225,3.949,11.154a1.854,1.854,0,0,0,2.15-.369s-.537-.178-.041-1.171a4.949,4.949,0,0,0,.387-1.116,2.459,2.459,0,0,0-.159-1.553h0s-.342-3.284-4.787-5.839c0,0-.8-1.148-1.075-1.2l.232,1.981a3.3,3.3,0,0,1,2.359.56s-2.277-.619-2.341-.264c0,.073.169,1.043.169,1.043s2.514-.378,3.89.875c0,0-2.633-1.1-3.826-.506l.36,1.448s2.637-.528,4.254.838c0,0-2.792-1.052-4.158-.524l.542,1.366s2.582-.455,3.922.679c0,0-3.348-.911-3.776-.373a7.037,7.037,0,0,0,.888,1.494s1.858-.3,2.578.455c0,0-2.3-.36-2.382-.123a7.8,7.8,0,0,0,2.15,1.822,5.574,5.574,0,0,1-2.359-1.617,3.083,3.083,0,0,0,.328,1.726s-.988-.456-.61-2.072a7.182,7.182,0,0,1-.879-1.366,6.716,6.716,0,0,0-.456,2.619s-.729-1.13.3-2.979l-.574-1.366a9.219,9.219,0,0,0-.847,2.965s-.565-1.271.729-3.32l-.364-1.421a11.355,11.355,0,0,0-1.079,2.733,4.522,4.522,0,0,1,.993-3.161l-.132-.975s-.642,1.221-.793,1.59-.264.355-.264.355a4.714,4.714,0,0,1,.993-2.355A11.142,11.142,0,0,0,336.4,443.691Z" transform="translate(-197.711 -261.545)" fill="#779be7" opacity="0.1"/>
      <path id="Path_456" data-name="Path 456" d="M304.074,232.1s-3.712,10.225,3.944,11.159a1.863,1.863,0,0,0,2.15-.369s-.533-.182-.041-1.175a4.875,4.875,0,0,0,.387-1.116,2.464,2.464,0,0,0-.159-1.553h0s-.342-3.284-4.787-5.835c0,0-.792-1.152-1.075-1.2l.232,1.977a3.3,3.3,0,0,1,2.359.56s-2.277-.615-2.337-.264c0,.073.169,1.043.169,1.043s2.51-.378,3.885.875c0,0-2.633-1.1-3.821-.506l.355,1.453s2.637-.533,4.254.838c0,0-2.792-1.057-4.154-.528l.542,1.366s2.582-.455,3.917.679c0,0-3.348-.911-3.776-.369a7.029,7.029,0,0,0,.888,1.489s1.858-.292,2.578.455c0,0-2.3-.36-2.382-.118a7.882,7.882,0,0,0,2.15,1.822,5.542,5.542,0,0,1-2.359-1.612,3.046,3.046,0,0,0,.332,1.722s-.993-.455-.615-2.068a7.334,7.334,0,0,1-.879-1.366,6.715,6.715,0,0,0-.455,2.619s-.729-1.13.3-2.979l-.574-1.366a9.221,9.221,0,0,0-.847,2.961s-.565-1.266.729-3.32l-.364-1.417a11.464,11.464,0,0,0-1.079,2.733,4.517,4.517,0,0,1,.993-3.161l-.132-.979s-.638,1.221-.793,1.59-.264.355-.264.355a4.714,4.714,0,0,1,.993-2.355A11.648,11.648,0,0,0,304.074,232.1Z" transform="translate(-180.109 -146.328)" fill="#779be7" opacity="0.1"/>
      <path id="Path_457" data-name="Path 457" d="M365.58,354s2.865,10.476,9.656,6.832a1.858,1.858,0,0,0,1.544-1.539s-.542.164-.711-.934a5.381,5.381,0,0,0-.323-1.139,2.487,2.487,0,0,0-1.029-1.175h0s-2.173-2.482-7.288-2.009c0,0-1.312-.483-1.562-.36l1.325,1.485a3.327,3.327,0,0,1,2.25-.911s-2.227.815-2.059,1.13c.032.068.738.756.738.756s1.822-1.758,3.68-1.526c0,0-2.788.62-3.416,1.79l1.13.984s1.845-1.959,3.958-1.772c0,0-2.888.747-3.7,1.968l1.239.815s1.822-1.872,3.594-1.708c0,0-3.252,1.2-3.3,1.872a7.015,7.015,0,0,0,1.581.711s1.366-1.312,2.364-1.125c0,0-2.086,1.029-2.018,1.275a8.1,8.1,0,0,0,2.8.237,5.53,5.53,0,0,1-2.86.041,3.093,3.093,0,0,0,1.266,1.221s-1.075.2-1.694-1.339a7.1,7.1,0,0,1-1.508-.615,6.683,6.683,0,0,0,1.134,2.4s-1.248-.5-1.471-2.605l-1.262-.793a9.519,9.519,0,0,0,1.02,2.91s-1.193-.711-1.321-3.134l-1.116-.947a11.287,11.287,0,0,0,.706,2.869,4.56,4.56,0,0,1-1.016-3.156l-.67-.72s.182,1.366.269,1.754,0,.455,0,.455a4.664,4.664,0,0,1-.547-2.5A11.367,11.367,0,0,0,365.58,354Z" transform="translate(-214.091 -212.568)" fill="#779be7" opacity="0.1"/>
      <path id="Path_458" data-name="Path 458" d="M536.21,374.589s2.865,10.476,9.661,6.832a1.854,1.854,0,0,0,1.539-1.54s-.537.164-.711-.934a4.9,4.9,0,0,0-.323-1.139,2.473,2.473,0,0,0-1.025-1.175h0s-2.173-2.482-7.287-2.009c0,0-1.312-.483-1.567-.36l1.33,1.485a3.327,3.327,0,0,1,2.25-.911s-2.227.815-2.063,1.134c.032.064.738.752.738.752s1.822-1.758,3.68-1.526c0,0-2.783.619-3.411,1.79l1.125.984s1.849-1.959,3.958-1.772c0,0-2.888.747-3.7,1.968l1.239.815s1.822-1.872,3.6-1.708c0,0-3.252,1.2-3.3,1.877a7.1,7.1,0,0,0,1.585.706s1.366-1.312,2.359-1.125c0,0-2.086,1.034-2.013,1.275a8.1,8.1,0,0,0,2.8.237,5.529,5.529,0,0,1-2.86.041,3.061,3.061,0,0,0,1.266,1.221s-1.075.2-1.7-1.339a7.1,7.1,0,0,1-1.508-.615,6.769,6.769,0,0,0,1.139,2.4,2.971,2.971,0,0,1-1.471-2.61l-1.262-.793a9.47,9.47,0,0,0,1.016,2.91s-1.193-.711-1.321-3.134l-1.111-.947a11.411,11.411,0,0,0,.7,2.869,4.546,4.546,0,0,1-1.011-3.156l-.669-.72s.182,1.366.269,1.754,0,.455,0,.455a4.665,4.665,0,0,1-.547-2.5S536.315,374.494,536.21,374.589Z" transform="translate(-307.004 -223.78)" fill="#779be7" opacity="0.1"/>
      <path id="Path_459" data-name="Path 459" d="M922.97,660.774l4.587,4.842L934.83,652.8l-.656-1.439Z" transform="translate(-502.585 -354.709)" fill="#779be7"/>
      <path id="Path_537" data-name="Path 537" d="M1048.124,795.1s19.258-1.161,16.989,12.334a3.281,3.281,0,0,1-1.713,3.466s-.032-1-1.977-.66a8.787,8.787,0,0,1-2.09.1,4.327,4.327,0,0,1-2.555-1.057h0s-5.416-2.236-7.52-11.082c0,0-1.558-1.931-1.494-2.428l3.248,1.366a5.83,5.83,0,0,0-.237,4.3s.1-4.209.729-4.1c.128,0,1.69.811,1.69.811s-1.913,4.1-.455,7.051c0,0-.547-5.01,1.066-6.755l2.277,1.334s-2.232,4.218-.719,7.661c0,0-.387-5.279,1.2-7.338l2.072,1.617s-2.1,4.158-.82,7.014c0,0,.168-6.144,1.271-6.609a12.228,12.228,0,0,1,2.086,2.255s-1.435,3.015-.542,4.609c0,0,.547-4.1.993-4.1,0,0,1.822,2.733,1.995,4.555a9.86,9.86,0,0,0-1.558-4.832,5.425,5.425,0,0,1,2.765,1.435s-.278-1.917-3.188-2.086a12.616,12.616,0,0,0-1.89-2.182,11.858,11.858,0,0,1,4.682.537s-1.558-1.822-5.22-.988l-2.045-1.667s3.84-.528,5.466.055c0,0-1.872-1.6-6.017-.456l-2.227-1.33a20.28,20.28,0,0,1,5.22-.456s-2.054-1.111-5.876.091l-1.589-.715s2.4-.455,3.1-.542.743-.269.743-.269a8.317,8.317,0,0,0-4.5.5S1048.069,795.314,1048.124,795.1Z" transform="translate(-657.615 -575.428)" fill="#779be7"/>
      <ellipse id="Ellipse_153" data-name="Ellipse 153" cx="13.628" cy="2.305" rx="13.628" ry="2.305" transform="translate(452.486 356.836)" fill="#779be7" opacity="0.1"/>
      <ellipse id="Ellipse_154" data-name="Ellipse 154" cx="7.684" cy="1.298" rx="7.684" ry="1.298" transform="translate(501.153 314.883)" fill="#779be7" opacity="0.1"/>
      <path id="Path_538" data-name="Path 538" d="M1011.9,731.54s-13.108-.788-11.564,8.394a2.245,2.245,0,0,0,1.166,2.364s.023-.683,1.366-.455a5.988,5.988,0,0,0,1.425.068,2.969,2.969,0,0,0,1.74-.72h0s3.685-1.521,5.12-7.543c0,0,1.057-1.316,1.016-1.653l-2.209.943a3.991,3.991,0,0,1,.159,2.924s-.073-2.865-.5-2.8c-.087,0-1.148.551-1.148.551s1.3,2.783.319,4.8c0,0,.369-3.425-.729-4.6l-1.553.911s1.517,2.874.487,5.215c0,0,.264-3.594-.815-5.01l-1.412,1.1s1.426,2.833.556,4.773c0,0-.114-4.181-.861-4.5a8.633,8.633,0,0,0-1.426,1.539s.979,2.054.373,3.138c0,0-.373-2.787-.679-2.8a9.143,9.143,0,0,0-1.366,3.111,6.727,6.727,0,0,1,1.061-3.288,3.725,3.725,0,0,0-1.886.975s.191-1.3,2.186-1.417a8.776,8.776,0,0,1,1.289-1.489,8.115,8.115,0,0,0-3.188.369s1.061-1.23,3.553-.67l1.394-1.139a11.457,11.457,0,0,0-3.721.036s1.275-1.089,4.1-.3l1.517-.911a13.771,13.771,0,0,0-3.553-.305s1.4-.756,4,.064l1.084-.487s-1.631-.323-2.109-.374-.506-.182-.506-.182a5.661,5.661,0,0,1,3.065.342A12.93,12.93,0,0,0,1011.9,731.54Z" transform="translate(-559.667 -418.328)" fill="#779be7"/>
      <ellipse id="Ellipse_155" data-name="Ellipse 155" cx="9.278" cy="1.567" rx="9.278" ry="1.567" transform="translate(433.931 323.2)" fill="#779be7" opacity="0.1"/>
      <ellipse id="Ellipse_156" data-name="Ellipse 156" cx="13.628" cy="2.305" rx="13.628" ry="2.305" transform="translate(0 336.695)" fill="#779be7" opacity="0.1"/>
      <path id="Path_539" data-name="Path 539" d="M42.81,759.655s7.77-.237,10.116-1.909,11.956-3.644,12.539-.984,11.683,13.309,2.906,13.377-20.391-1.366-22.732-2.792S42.81,759.655,42.81,759.655Z" transform="translate(187.785 -431.363)" fill="#a8a8a8"/>
      <path id="Path_540" data-name="Path 540" d="M68.52,774.215c-8.777.068-20.391-1.366-22.728-2.792-1.781-1.084-2.491-4.978-2.733-6.773H42.8s.492,6.272,2.828,7.693,13.956,2.865,22.732,2.792c2.532,0,3.407-.911,3.361-2.277C71.372,773.7,70.406,774.2,68.52,774.215Z" transform="translate(-38.327 -436.367)" opacity="0.2"/>
    </g>
    <g id="sad" transform="translate(61 151.257)">
      <path id="Path_432" data-name="Path 432" d="M198.124,753.561c-3.772,7-11.777,10-11.777,10s-1.89-8.339,1.882-15.334,11.777-10,11.777-10S201.9,746.566,198.124,753.561Z" transform="translate(61.629 -503.626)" fill="#2f2e41"/>
      <path id="Path_433" data-name="Path 433" d="M161.433,774.587c-6.81,4.1-9.433,12.235-9.433,12.235s8.418,1.5,15.228-2.6,9.433-12.235,9.433-12.235S168.243,770.49,161.433,774.587Z" transform="translate(95.728 -526.954)" fill="#779be7"/>
      <path id="Path_434" data-name="Path 434" d="M125.274,627.771h71.862v-.517H125.791V602.18h65.3l3.172-6.609-.466-.224-3.032,6.316h-65.5Z" transform="translate(37.233 -381.039)" fill="#2f2e41"/>
      <ellipse id="Ellipse_135" data-name="Ellipse 135" cx="5.428" cy="5.428" rx="5.428" ry="5.428" transform="translate(219.376 248.541)" fill="#3f3d56"/>
      <ellipse id="Ellipse_136" data-name="Ellipse 136" cx="5.428" cy="5.428" rx="5.428" ry="5.428" transform="translate(165.867 248.541)" fill="#3f3d56"/>
      <ellipse id="Ellipse_137" data-name="Ellipse 137" cx="3.36" cy="3.36" rx="3.36" ry="3.36" transform="translate(104.862 135.319)" fill="#3f3d56"/>
      <path id="Path_436" data-name="Path 436" d="M98.069,463.681h70.946l15.351-50.666H82.26l.093.3Z" transform="translate(63.057 -254.043)" fill="#f2f2f2"/>
      <g id="Group_73" data-name="Group 73" transform="translate(148.654 31.894)">
        <path id="Path_288" data-name="Path 288" d="M555.3,119.114l-.786-.263,7.208-21.517a13.133,13.133,0,0,0-8.282-16.625h0L507.85,65.438a13.134,13.134,0,0,0-16.625,8.282h0L451.681,191.763a13.133,13.133,0,0,0,8.282,16.625h0l45.587,15.271a13.134,13.134,0,0,0,16.625-8.282h0l27.2-81.21.785.263Z" transform="translate(-450.997 -64.754)" fill="#3f3d56"/>
        <path id="Path_289" data-name="Path 289" d="M566.779,97.543l-5.95-1.993a4.66,4.66,0,0,1-6.13,4.717l-26.116-8.749a4.66,4.66,0,0,1-2.052-7.458L520.972,82.2a9.808,9.808,0,0,0-12.415,6.185l-39.485,117.87a9.808,9.808,0,0,0,6.185,12.415h0l45.806,15.344a9.808,9.808,0,0,0,12.416-6.185h0l39.485-117.87a9.808,9.808,0,0,0-6.185-12.415Z" transform="translate(-464.923 -78.18)" fill="#fff"/>
        <path id="Path_290" data-name="Path 290" d="M333.266,270.579l27.958-15.443,14.911,11.05,19.038-11.05L376.135,258.2l-9.586-16.9H343.118Z" transform="translate(-306.143 -194.273)" fill="#3f3d56" stroke="#3f3d56" stroke-width="14"/>
        <path id="Path_294" data-name="Path 294" d="M38.837,18.369,21.3,8.681l-9.354,6.932L0,8.681,11.943,10.6,17.957,0h14.7Z" transform="matrix(0.799, 0.602, -0.602, 0.799, 48.283, 85.769)" fill="#3f3d56" stroke="#3f3d56" stroke-width="14"/>
      </g>
      <path id="Path_435" data-name="Path 435" d="M233.647,534.659h80.773L331.9,477.531H215.648l.106.336Zm80.391-.517H234.026l-17.674-56.094H331.2Z" transform="translate(-78.827 -322.049)" fill="#2f2e41"/>
      <path id="Path_437" data-name="Path 437" d="M472.575,354.885l.5-.133-3.412-12.859H449.818v.517h19.447Z" transform="translate(-337.202 -204.507)" fill="#2f2e41"/>
      <rect id="Rectangle_180" data-name="Rectangle 180" width="104.793" height="0.517" transform="translate(142.631 172.802)" fill="#2f2e41"/>
      <rect id="Rectangle_181" data-name="Rectangle 181" width="92.965" height="0.517" transform="translate(148.632 191.849)" fill="#2f2e41"/>
      <rect id="Rectangle_182" data-name="Rectangle 182" width="0.517" height="56.611" transform="translate(194.69 155.741)" fill="#2f2e41"/>
      <rect id="Rectangle_183" data-name="Rectangle 183" width="56.731" height="0.517" transform="matrix(-0.065, -0.998, 0.998, -0.065, 174.737, 212.368)" fill="#2f2e41"/>
      <rect id="Rectangle_184" data-name="Rectangle 184" width="0.517" height="56.731" transform="matrix(-0.998, -0.065, 0.065, -0.998, 215.169, 212.368)" fill="#2f2e41"/>
      <rect id="Rectangle_185" data-name="Rectangle 185" width="272.389" transform="translate(0 260.333)" fill="#2f2e41"/>
      <g id="person" transform="translate(39.68 0)">
        <path id="Path_358" data-name="Path 358" d="M355.17,564.881s11.3,16.773,5.105,25.891c0,0-9.108,0-6.927-9.846a34.989,34.989,0,0,0-.729-17.866Z" transform="translate(-292.833 -440.541)" fill="#f7c4a7"/>
        <path id="Path_359" data-name="Path 359" d="M292.8,791.393v13.125l11.668,1.093,4.377-6.578-1.093-1.821s-5.105-4-6.2-7.645S292.8,791.393,292.8,791.393Z" transform="translate(-263.28 -551.821)" fill="#f7c4a7"/>
        <path id="Path_360" data-name="Path 360" d="M296.137,809.439s7.913-8.86,9.482-7.291c.729.729,12.761,11.3,16.409,11.3s8.389,5.834-9.107,5.47-23.7-1.821-23.7-1.821l1.093-10.939S294.315,810.168,296.137,809.439Z" transform="translate(-261.511 -558.565)" opacity="0.1"/>
        <path id="Path_361" data-name="Path 361" d="M296.137,810.159s7.913-8.86,9.482-7.291c.729.729,12.761,11.3,16.409,11.3s8.389,5.834-9.107,5.47-23.7-1.821-23.7-1.821l1.083-10.929S294.315,810.888,296.137,810.159Z" transform="translate(-261.511 -558.92)" fill="#5c3d53"/>
        <path id="Path_362" data-name="Path 362" d="M360.54,777.147v10.211l6.2,5.105,6.927-1.821,1.822-4.012s-3.648-5.105-4.741-13.859Z" transform="translate(-296.745 -544.143)" fill="#f7c4a7"/>
        <path id="Path_363" data-name="Path 363" d="M361.021,798.939H365.4l4.554-3.83s7.853,12.341,14.84,12.68a4.69,4.69,0,0,1,3.289,1.649c1.827,2.115,2.666,5.216-10.292,3.724C358.835,811,351.18,802.987,351.18,802.987l4.554-8.207Z" transform="translate(-292.121 -555.017)" opacity="0.1"/>
        <path id="Path_364" data-name="Path 364" d="M361.011,799.664h4.377l4.554-3.83s7.853,12.341,14.84,12.68a4.691,4.691,0,0,1,3.289,1.65c1.827,2.115,2.666,5.217-10.292,3.724-18.964-2.186-26.619-10.211-26.619-10.211l4.554-8.207Z" transform="translate(-292.111 -555.358)" fill="#5c3d53"/>
        <path id="Path_365" data-name="Path 365" d="M351.955,549.425s2.186,11.668,5.105,12.761c0,0-6.2,2.919-5.105,5.834l-5.105-23.7,6.2.729Z" transform="translate(-289.982 -431.283)" opacity="0.1"/>
        <path id="Path_366" data-name="Path 366" d="M351.955,548.705s2.186,11.668,5.105,12.761c0,0-6.2,2.919-5.105,5.834l-5.105-23.7,6.2.708Z" transform="translate(-289.982 -430.927)" fill="#fc6681"/>
        <path id="Path_367" data-name="Path 367" d="M351.955,548.705s2.186,11.668,5.105,12.761c0,0-6.2,2.919-5.105,5.834l-5.105-23.7,6.2.708Z" transform="translate(-289.982 -430.927)" opacity="0.1"/>
        <path id="Path_368" data-name="Path 368" d="M334.245,581.08,356,624.245a11.835,11.835,0,0,1,1.047,7.64,31.571,31.571,0,0,1-2.024,6.446l-2.919,34.639,1.078,11.668h-13.1a87.658,87.658,0,0,0-1.822-21.878c-2.55-12.771,1.822-31.37,1.822-31.37s-8.02-13.125-17.137-19.693S334.245,581.08,334.245,581.08Z" transform="translate(-277.012 -449.443)" opacity="0.1"/>
        <path id="Path_369" data-name="Path 369" d="M334.245,580.35,356,623.515a11.835,11.835,0,0,1,1.047,7.64,31.576,31.576,0,0,1-2.024,6.446l-2.909,34.659,1.068,11.637h-13.1a87.658,87.658,0,0,0-1.822-21.878c-2.55-12.771,1.822-31.371,1.822-31.371s-8.02-13.125-17.137-19.692S334.245,580.35,334.245,580.35Z" transform="translate(-277.012 -449.083)" fill="#779be7"/>
        <path id="Path_370" data-name="Path 370" d="M334.245,580.72,356,623.885a11.835,11.835,0,0,1,1.047,7.64,31.573,31.573,0,0,1-2.024,6.446l-2.919,34.639,1.078,11.668h-13.1a87.659,87.659,0,0,0-1.822-21.878c-2.55-12.771,1.822-31.37,1.822-31.37s-8.02-13.125-17.137-19.692S334.245,580.72,334.245,580.72Z" transform="translate(-277.012 -449.265)" fill="#779be7" opacity="0.05"/>
        <path id="Path_371" data-name="Path 371" d="M289.65,542.88a132.1,132.1,0,0,1-7.848,12.305,19.677,19.677,0,0,0-4.174,13.773,16.018,16.018,0,0,0,4.731,10.388s2.186,5.47,1.093,8.389v25.891l-4.377,17.137s-2.919,16.044,2.186,25.162l3.648,17.866s11.668,1.457,12.032-2.186c0,0-2.919-7.291-2.53-9.847l.293-26.174a17.405,17.405,0,0,1,3.036-9.517,20.074,20.074,0,0,0,3.238-10.625l19.308-72.562Z" transform="translate(-255.754 -430.571)" opacity="0.1"/>
        <path id="Path_372" data-name="Path 372" d="M289.65,542.16a132.132,132.132,0,0,1-7.848,12.305,19.677,19.677,0,0,0-4.174,13.773,16.019,16.019,0,0,0,4.731,10.388s2.186,5.47,1.093,8.389v25.9l-4.377,17.137s-2.919,16.045,2.186,25.162l3.648,17.866s11.668,1.457,12.032-2.186c0,0-2.919-7.291-2.53-9.846l.293-26.174a17.405,17.405,0,0,1,3.036-9.517,20.073,20.073,0,0,0,3.238-10.625l19.308-72.572Z" transform="translate(-255.754 -430.216)" fill="#779be7"/>
        <path id="Path_373" data-name="Path 373" d="M345.685,594.059s2.53,16.409-6.578,21.514c0,0-3.648-2.53,1.457-10.939l.364-11.3Z" transform="translate(-285.533 -455.495)" fill="#f7c4a7"/>
        <path id="Path_374" data-name="Path 374" d="M377.8,820.648c-17.233-1.989-25.127-8.794-26.422-10.018l-.2.536s7.655,8.02,26.619,10.211c9.7,1.118,11.668-.339,11.278-2.024C388.713,820.684,386.057,821.6,377.8,820.648Z" transform="translate(-292.121 -562.847)" opacity="0.1"/>
        <path id="Path_375" data-name="Path 375" d="M312.86,831.53c-16.191-.339-22.723-1.614-23.594-1.8l-.106,1.073s6.2,1.457,23.7,1.822c10.894.228,13.155-1.948,12.457-3.623C324.715,830.407,321.487,831.727,312.86,831.53Z" transform="translate(-261.482 -571.922)" opacity="0.1"/>
        <path id="Path_376" data-name="Path 376" d="M292.44,612.227s8.753,0,11.3-2.186,8.753,0,8.753,0" transform="translate(-263.102 -463.271)" opacity="0.1"/>
        <path id="Path_377" data-name="Path 377" d="M283.061,655.919c-5.105-9.108-2.186-25.162-2.186-25.162l4.377-17.137V587.729c1.093-2.92-1.093-8.389-1.093-8.389a16,16,0,0,1-4.731-10.388A19.677,19.677,0,0,1,283.6,555.18a132.12,132.12,0,0,0,7.848-12.305h29.073l.1-.364H289.987a132.119,132.119,0,0,1-7.848,12.305,19.678,19.678,0,0,0-4.2,13.778,16.019,16.019,0,0,0,4.731,10.388s2.186,5.47,1.093,8.389V613.26L279.387,630.4s-2.919,16.044,2.186,25.162l3.648,17.866s.552.071,1.412.137Z" transform="translate(-255.909 -430.389)" opacity="0.1"/>
        <path id="Path_379" data-name="Path 379" d="M300.524,425.692s-11.3-4.377-13.494,14.223l2.53,24.433s4.377,18.595,1.457,23.336c0,0,29.9-2.53,38.651,2.186,0,0-8.753-18.215-6.578-31s-7.655-17.5-7.655-17.5-4.741-4.012-5.834-8.753S300.524,425.692,300.524,425.692Z" transform="translate(-260.429 -372.456)" opacity="0.1"/>
        <path id="Path_380" data-name="Path 380" d="M300.509,424.248s-11.3-4.4-13.509,14.218l2.085,19.956c.278,2.656.683,5.3,1.2,7.923,1.1,5.611,2.854,16.434.729,19.89,0,0,29.9-2.53,38.651,2.186,0,0-8.753-18.215-6.578-31s-7.655-17.5-7.655-17.5-4.741-4.012-5.834-8.753S300.509,424.248,300.509,424.248Z" transform="translate(-260.415 -371.741)" fill="#fc6681"/>
        <path id="Path_381" data-name="Path 381" d="M309.38,472.25l13.125,48.5s5.105,11.668,2.919,14.952c0,0,5.834,2.919,8.389,0s-5.47-36.466-5.47-36.466L323.6,472.25Z" transform="translate(-271.471 -395.678)" opacity="0.1"/>
        <path id="Path_382" data-name="Path 382" d="M310.1,471.53l13.1,48.5s5.105,11.668,2.919,14.952c0,0,5.834,2.919,8.389,0s-5.47-36.466-5.47-36.466L324.3,471.53Z" transform="translate(-271.827 -395.323)" fill="#fc6681"/>
        <path id="Path_383" data-name="Path 383" d="M337.84,487.75s3.648,10.575,5.47,11.668.729,9.107.729,9.107" transform="translate(-285.531 -403.336)" opacity="0.1"/>
        <g id="Group_70" data-name="Group 70" transform="translate(26.606 52.072)" opacity="0.1">
          <path id="Path_385" data-name="Path 385" d="M292.95,486.11c2.024-3.6.283-14.208-.8-19.733-.506-2.621-.921-5.267-1.2-7.924L288.862,438.5c1.366-11.6,6.279-14.263,9.78-14.623-3.314-.329-9.978.794-11.6,14.623l2.085,19.956c.278,2.656.683,5.3,1.2,7.924,1.1,5.611,2.854,16.434.729,19.89C291.068,486.252,291.746,486.2,292.95,486.11Z" transform="translate(-287.04 -423.83)"/>
          <path id="Path_386" data-name="Path 386" d="M330.28,545.848c8.1.04,16.7.668,20.78,2.874,0,0-.157-.329-.425-.926C345.7,546.2,337.591,545.812,330.28,545.848Z" transform="translate(-308.402 -484.109)"/>
        </g>
        <path id="Path_378" data-name="Path 378" d="M22.951,4.007s-8.389,7.635-8.728,16.409S0,18.595,0,18.595,10.575,13.854,9.846,0Z" transform="translate(41.797 33.379) rotate(16)" fill="#f7c4a7"/>
        <path id="Path_384" data-name="Path 384" d="M0,4.2C1.988,5.414,3.881,8.753,6.38,8.753a13.155,13.155,0,0,0,3.092-.369,33.546,33.546,0,0,1,3.84-4.372L.187,0C.319,2.591.536,2.216,0,4.2Z" transform="translate(50.865 36.727) rotate(16)" opacity="0.1"/>
        <circle id="Ellipse_133" data-name="Ellipse 133" cx="13.125" cy="13.125" r="13.125" transform="translate(49.41 17.35) rotate(16)" fill="#f7c4a7"/>
        <path id="Path_387" data-name="Path 387" d="M44.592,19.887a25.229,25.229,0,0,1-5.237,7.529,15.933,15.933,0,0,0-3.036,4.169,15.939,15.939,0,0,0-1.012,4.458c-.81,6.249-1.563,12.907,1.169,18.579a33.911,33.911,0,0,1,2.3,4.751c.921,3.086,0,6.411-1.224,9.4a55.412,55.412,0,0,1-6.466,11.739c-1.518,2.1-3.228,4.195-3.77,6.724-.364,1.695-.228,3.613-1.3,4.974-1.432,1.816-4.184,1.675-6.476,1.361-1.154-1.882.683-4.169.885-6.365.228-2.413-1.67-4.615-3.891-5.566a19.3,19.3,0,0,0-7.149-1.073,4.129,4.129,0,0,1-2.818-.82,3.724,3.724,0,0,1-.835-1.558,17.628,17.628,0,0,1-.557-8.708c.754-3.972,2.869-7.62,3.35-11.637.562-4.655-1.128-9.275-3.1-13.525S1.124,35.891.284,31.281.4,21.39,4.023,18.414c1.978-1.624,4.6-2.459,6.208-4.453,2.171-2.7,1.877-6.765,4.007-9.492S20.311,1.181,23.777.857L31.108.184a22.768,22.768,0,0,1,4.832-.1c3.167.39,6.011,2.074,8.743,3.729,1.736,1.047,3.572,2.211,4.367,4.078a3.845,3.845,0,0,1-.182,3.319c-1.346,2.166-1.983.076-3.036.567C44.258,12.459,45.437,17.711,44.592,19.887Z" transform="translate(26.088 0.454) rotate(16)" opacity="0.1"/>
        <path id="Path_388" data-name="Path 388" d="M44.587,19.892c-1.108,2.869-3.172,5.247-5.232,7.524a15.931,15.931,0,0,0-3.036,4.169,15.939,15.939,0,0,0-1.012,4.458c-.81,6.249-1.563,12.907,1.169,18.579a33.914,33.914,0,0,1,2.3,4.751c.921,3.086,0,6.411-1.224,9.4a55.413,55.413,0,0,1-6.466,11.739c-1.518,2.1-3.228,4.195-3.77,6.724-.364,1.695-.228,3.613-1.3,4.974-1.432,1.816-4.184,1.675-6.476,1.361-1.154-1.882.683-4.169.885-6.365.228-2.413-1.67-4.614-3.891-5.566a19.3,19.3,0,0,0-7.149-1.073,4.13,4.13,0,0,1-2.818-.82,3.724,3.724,0,0,1-.835-1.558,17.628,17.628,0,0,1-.557-8.708c.754-3.972,2.869-7.62,3.35-11.637.562-4.655-1.128-9.275-3.1-13.525s-4.3-8.43-5.136-13.039S.4,21.39,4.023,18.414c1.978-1.624,4.6-2.459,6.208-4.453,2.171-2.7,1.877-6.765,4.007-9.492S20.311,1.181,23.777.857L31.108.184a22.769,22.769,0,0,1,4.832-.1c3.167.39,6.011,2.074,8.743,3.729,1.735,1.047,3.572,2.211,4.367,4.078a3.845,3.845,0,0,1-.182,3.319c-1.346,2.166-1.983.076-3.036.567C44.253,12.464,45.432,17.7,44.587,19.892Z" transform="translate(25.844 0) rotate(16)" fill="#965d7b"/>
      </g>
    </g>
    <g id="happy" transform="translate(456.65 32.355)">
      <path id="Path_432-2" data-name="Path 432" d="M188.247,753.682c3.8,7.051,11.87,10.077,11.87,10.077s1.9-8.4-1.9-15.455-11.87-10.077-11.87-10.077S184.445,746.632,188.247,753.682Z" transform="translate(-175.512 -385.274)" fill="#2f2e41"/>
      <path id="Path_433-2" data-name="Path 433" d="M167.348,774.61c6.864,4.129,9.507,12.331,9.507,12.331s-8.485,1.507-15.348-2.622S152,771.987,152,771.987,160.485,770.481,167.348,774.61Z" transform="translate(-152 -408.521)" fill="#779be7"/>
      <path id="Path_434-2" data-name="Path 434" d="M125.274,628.027H197.7v-.521H125.8V602.234h65.819l3.2-6.661-.47-.226-3.055,6.366H125.274Z" transform="translate(38.515 -262.847)" fill="#2f2e41"/>
      <ellipse id="Ellipse_135-2" data-name="Ellipse 135" cx="5.471" cy="5.471" rx="5.471" ry="5.471" transform="translate(221.108 367.004)" fill="#3f3d56"/>
      <ellipse id="Ellipse_136-2" data-name="Ellipse 136" cx="5.471" cy="5.471" rx="5.471" ry="5.471" transform="translate(167.176 367.004)" fill="#3f3d56"/>
      <ellipse id="Ellipse_137-2" data-name="Ellipse 137" cx="3.387" cy="3.387" rx="3.387" ry="3.387" transform="translate(105.689 252.888)" fill="#3f3d56"/>
      <path id="Path_436-2" data-name="Path 436" d="M98.194,464.081H169.7l15.472-51.066H82.26l.094.3Z" transform="translate(64.204 -136.288)" fill="#f2f2f2"/>
      <g id="undraw_nature_on_screen_xkli" transform="translate(23.987 0)">
        <rect id="Rectangle_104" data-name="Rectangle 104" width="203.26" height="0.434" transform="translate(74.567 297.62)" fill="#3f3d56"/>
        <path id="Path_295" data-name="Path 295" d="M242.719,140.228h.867V116.483a13.743,13.743,0,0,1,13.743-13.743h50.307a13.743,13.743,0,0,1,13.743,13.743V246.749a13.743,13.743,0,0,1-13.743,13.743H257.329a13.743,13.743,0,0,1-13.743-13.743V157.13h-.867Z" transform="translate(-102.371 37.689)" fill="#3f3d56"/>
        <path id="Path_296" data-name="Path 296" d="M260.218,129.5V259.572a10.264,10.264,0,0,0,10.263,10.264h50.551a10.262,10.262,0,0,0,10.261-10.263V129.5a10.262,10.262,0,0,0-10.263-10.264H314.9a4.874,4.874,0,0,1-4.515,6.717h-28.82a4.873,4.873,0,0,1-4.513-6.717h-6.568A10.264,10.264,0,0,0,260.218,129.5Z" transform="translate(-116.079 24.771)" fill="#fff"/>
        <circle id="Ellipse_119" data-name="Ellipse 119" cx="13.439" cy="13.439" r="13.439" transform="translate(178.927 152.066)" fill="#ff6584"/>
        <ellipse id="Ellipse_120" data-name="Ellipse 120" cx="18.194" cy="8.917" rx="18.194" ry="8.917" transform="translate(160.155 248.008) rotate(-95.631)" fill="#3f3d56"/>
        <path id="Path_297" data-name="Path 297" d="M475.62,493.988c1.452-21.674-4.162-42.574-4.218-42.783l-.68.185c.057.207,5.639,21,4.2,42.55Z" transform="translate(-306.274 -235.243)" fill="#779be7"/>
        <rect id="Rectangle_105" data-name="Rectangle 105" width="9.144" height="0.705" transform="matrix(-0.924, -0.383, 0.383, -0.924, 167.225, 230.056)" fill="#779be7"/>
        <rect id="Rectangle_106" data-name="Rectangle 106" width="0.705" height="9.145" transform="translate(168.213 232.132) rotate(-123.789)" fill="#779be7"/>
        <path id="Path_300" data-name="Path 300" d="M329.727,631.465l.434,24.386A10.729,10.729,0,0,1,319.465,666.3h-50.55a10.731,10.731,0,0,1-10.7-10.448l.434-24.172C284.136,621.8,307.7,622.42,329.727,631.465Z" transform="translate(-114.512 -370.955)" fill="#779be7"/>
        <path id="Path_301" data-name="Path 301" d="M746.835,261.695l-7.651-6.119c5.944-.656,8.385,2.586,9.385,5.151,4.643-1.928,9.7.6,9.7.6l-15.306,5.557A11.587,11.587,0,0,1,746.835,261.695Z" transform="translate(-635.803 -215.546)" fill="#3f3d56"/>
        <path id="Path_302" data-name="Path 302" d="M441.77,172.7l-5.988-4.789c4.652-.513,6.564,2.024,7.346,4.032,3.634-1.509,7.591.469,7.591.469l-11.981,4.35A9.066,9.066,0,0,1,441.77,172.7Z" transform="translate(-435.782 -167.841)" fill="#3f3d56"/>
      </g>
      <path id="Path_435-2" data-name="Path 435" d="M233.789,535.11H315.2l17.616-57.579H215.648l.107.339Zm81.026-.521H234.172l-17.813-56.537H332.112Z" transform="translate(-77.747 -204.321)" fill="#2f2e41"/>
      <path id="Path_437-2" data-name="Path 437" d="M472.754,354.988l.5-.134-3.438-12.96h-20v.521h19.6Z" transform="translate(-336.313 -86.922)" fill="#2f2e41"/>
      <rect id="Rectangle_180-2" data-name="Rectangle 180" width="105.62" height="0.521" transform="translate(143.756 290.666)" fill="#2f2e41"/>
      <rect id="Rectangle_181-2" data-name="Rectangle 181" width="93.699" height="0.521" transform="translate(149.805 309.863)" fill="#2f2e41"/>
      <rect id="Rectangle_182-2" data-name="Rectangle 182" width="0.521" height="57.058" transform="translate(196.226 273.47)" fill="#2f2e41"/>
      <rect id="Rectangle_183-2" data-name="Rectangle 183" width="57.179" height="0.521" transform="matrix(-0.065, -0.998, 0.998, -0.065, 176.117, 330.545)" fill="#2f2e41"/>
      <rect id="Rectangle_184-2" data-name="Rectangle 184" width="0.521" height="57.179" transform="matrix(-0.998, -0.065, 0.065, -0.998, 216.867, 330.545)" fill="#2f2e41"/>
      <rect id="Rectangle_185-2" data-name="Rectangle 185" width="274.538" transform="translate(0 378.888)" fill="#2f2e41"/>
      <g id="person-2" data-name="person" transform="translate(17.996 85.456)">
        <path id="Path_393" data-name="Path 393" d="M641.4,80.86,622.43,83.294l9.724,46.858,18.967-1.475Z" transform="translate(-532.1 -48.601)" fill="#fff" opacity="0.07"/>
        <path id="Path_394" data-name="Path 394" d="M710.637,145.984l-.3-.038c0-.113,1.257-11.174-5.686-12.569l.059-.3C711.948,134.534,710.662,145.871,710.637,145.984Z" transform="translate(-606.267 -112.669)" fill="#535461"/>
        <rect id="Rectangle_157" data-name="Rectangle 157" width="20.898" height="30.589" transform="translate(34.192 65.601)" fill="#774e55"/>
        <rect id="Rectangle_158" data-name="Rectangle 158" width="20.898" height="30.589" transform="translate(34.192 65.601)" opacity="0.2"/>
        <path id="Path_395" data-name="Path 395" d="M653.131,136.785l-11.811.909,1.818-46.033,3.934-2.422,5.451.909Z" transform="translate(-543.075 -53.47)" fill="#779be7"/>
        <path id="Path_396" data-name="Path 396" d="M653.131,136.785l-11.811.909,1.818-46.033,3.934-2.422,5.451.909Z" transform="translate(-543.075 -53.47)" opacity="0.2"/>
        <path id="Path_397" data-name="Path 397" d="M621.455,84.2,602.681,80.56l-5.451,47.549,18.473,4.542Z" transform="translate(-517.458 -48.426)" fill="#779be7"/>
        <path id="Path_401" data-name="Path 401" d="M527.819,706.809s-3.633-.3-4.24,10.3c0,0,.607,5.752-.909,8.48s-.607,10.6,3.938,11.509a24.274,24.274,0,0,0,8.8,0s2.12,0,.608-7.571l-3.029-22.109Z" transform="translate(-500.138 -446.02)" fill="#5c3d53"/>
        <path id="Path_402" data-name="Path 402" d="M527.819,706.809s-3.633-.3-4.24,10.3c0,0,.607,5.752-.909,8.48s-.607,10.6,3.938,11.509a24.274,24.274,0,0,0,8.8,0s2.12,0,.608-7.571l-3.029-22.109Z" transform="translate(-500.138 -446.02)" opacity="0.05"/>
        <path id="Path_403" data-name="Path 403" d="M558.733,265.793a20.267,20.267,0,0,0,.641,7.123l-7.872,2.12s-13.022,1.818-7.872-3.352c1.781-1.781,2.656-4.835,3.037-8.061a44.673,44.673,0,0,0,.222-6.637,59.128,59.128,0,0,0-.536-6.2s19.08-6.662,14.84,4.24a38.762,38.762,0,0,0-1.822,6.075A32.024,32.024,0,0,0,558.733,265.793Z" transform="translate(-512.01 -179.889)" fill="#f8bdc5"/>
        <path id="Path_404" data-name="Path 404" d="M566.64,255.036a38.772,38.772,0,0,0-1.822,6.075A13.047,13.047,0,0,1,552.336,257a59.162,59.162,0,0,0-.536-6.2S570.88,244.134,566.64,255.036Z" transform="translate(-517.457 -179.894)" opacity="0.1"/>
        <circle id="Ellipse_134" data-name="Ellipse 134" cx="13.022" cy="13.022" r="13.022" transform="translate(31.62 54.85)" fill="#f8bdc5"/>
        <path id="Path_405" data-name="Path 405" d="M491.454,158.6v3.938L484.792,179.8l-1.818-1.818a3.062,3.062,0,0,1-.277-.344c-4.4-6.251-7.6-47.809-7.6-47.809l-4.236-35.139s-4.542-10.893,5.447-10.3,2.12,9.993,2.12,9.993,6.662,33.313,5.753,34.523,0,4.848,0,4.848,2.728,6.968,2.422,12.113S491.454,158.6,491.454,158.6Z" transform="translate(-469.831 -84.364)" fill="#f8bdc5"/>
        <path id="Path_406" data-name="Path 406" d="M648.2,135.664l-15.749,33.313-2.422,4.533s-7.542,26.613-16.252,32.986a7.956,7.956,0,0,1-1.617.934l-1.818-14.538,1.676-4.223.126-.323a20.344,20.344,0,0,0,4.542-6.662c1.818-4.24,6.967-12.72,6.967-12.72a14.973,14.973,0,0,0,.909-4.24c0-1.818,17.262-31.8,17.262-31.8s1.513-13.629,8.8-6.968S648.2,135.664,648.2,135.664Z" transform="translate(-551.471 -107.465)" fill="#f8bdc5"/>
        <path id="Path_407" data-name="Path 407" d="M542.383,710.031s-10.3,4.24-9.087.3c.737-2.388.465-6.9.138-10.055-.209-2.057-.444-3.557-.444-3.557l8.8.909a7.122,7.122,0,0,0-.507,2.409C540.992,704.056,542.383,710.031,542.383,710.031Z" transform="translate(-506.528 -440.159)" fill="#f8bdc5"/>
        <path id="Path_408" data-name="Path 408" d="M580.157,694.037c-1.588,5.514-1.173,15.117-1.173,15.117s-9.389,1.211-8.48-1.211c.633-1.676,1.559-9.98,2.061-14.861.222-2.132.36-3.612.36-3.612l8.48,1.818A8.474,8.474,0,0,0,580.157,694.037Z" transform="translate(-528.289 -435.946)" fill="#f8bdc5"/>
        <path id="Path_409" data-name="Path 409" d="M533,696.69l8.8.909a7.122,7.122,0,0,0-.507,2.409,8.979,8.979,0,0,1-7.835.239C533.235,698.186,533,696.69,533,696.69Z" transform="translate(-506.534 -440.141)" opacity="0.1"/>
        <path id="Path_410" data-name="Path 410" d="M584.355,691.284a8.473,8.473,0,0,0-1.257,2.753,16.286,16.286,0,0,1-7.588-.955c.222-2.132.36-3.612.36-3.612Z" transform="translate(-531.233 -435.946)" opacity="0.1"/>
        <path id="Path_411" data-name="Path 411" d="M553.874,469.528l-1.785,12.511a90.47,90.47,0,0,1-3.293,14.006,22.789,22.789,0,0,0-.373,9.217s1.211,19.382-.909,24.229S545.7,541.3,545.7,541.3c-4.848,2.728-11.811-.607-11.811-.607l-.608-32.1a75.155,75.155,0,0,1-.909-16.34c.6-7.86-.909-23.923-.909-23.923-3.352.909-3.029,45.123-3.029,45.123v28.771c-7.269,6.36-13.629,0-13.629,0-2.422-7.269-1.513-29.378-1.513-29.378l-.909-13.022a382.466,382.466,0,0,1-5.447-38.462,106.838,106.838,0,0,1-.26-18.95q.088-1.031.193-1.982a52.867,52.867,0,0,1,1.567-8.484,19.1,19.1,0,0,1,.922-2.686l32.542,1.512,1.919.088,4.609.214c.5.758.976,1.529,1.416,2.3.637,1.119,1.211,2.246,1.722,3.352.293.645.57,1.295.838,1.94C558.588,454.289,553.874,469.528,553.874,469.528Z" transform="translate(-491.062 -284.758)" fill="#779be7"/>
        <path id="Path_412" data-name="Path 412" d="M518.547,436.464s-1.425,14.245-11.467,10.122q.088-1.031.193-1.982c2.363.641,8.9,1.525,9.15-8.145Z" transform="translate(-491.474 -288.941)" opacity="0.1"/>
        <path id="Path_413" data-name="Path 413" d="M601.664,440.756c-6.955,2.484-9.578-4.131-10.474-7.906l1.919.088c1.043,5.937,5.208,6.285,7.743,5.866Q601.279,439.8,601.664,440.756Z" transform="translate(-540.344 -286.844)" opacity="0.1"/>
        <path id="Path_414" data-name="Path 414" d="M532.882,718.986c-1.546-.243-3.909-1.094-3.167-4.064,0,0-2.862-.989-2.56,10.822,0,0-.3,5.753-.909,6.968s0,8.48,6.36,7.872c0,0,4.542,1.512,5.753-.909,0,0-.909-13.931.607-16.34s-.607-4.848-.607-4.848-2.145,1.19-3.687.838A16.192,16.192,0,0,0,532.882,718.986Z" transform="translate(-502.502 -450.723)" fill="#5c3d53"/>
        <path id="Path_415" data-name="Path 415" d="M559.561,752.727s-3.029,5.149,3.938,5.753,9.993-3.029,9.993-3.029.909-1.513,0-4.24.3-7.571.3-7.571.909-5.753-1.211-4.542S559.561,752.727,559.561,752.727Z" transform="translate(-521.586 -464.684)" fill="#5c3d53"/>
        <path id="Path_416" data-name="Path 416" d="M559.561,752.727s-3.029,5.149,3.938,5.753,9.993-3.029,9.993-3.029.909-1.513,0-4.24.3-7.571.3-7.571.909-5.753-1.211-4.542S559.561,752.727,559.561,752.727Z" transform="translate(-521.586 -464.684)" opacity="0.05"/>
        <path id="Path_417" data-name="Path 417" d="M567.4,727.246s-3.632-1.513-4.542,1.512-.3,10.6-2.12,12.72-4.24,7.873,3.029,7.571,8.8-2.727,8.8-2.727-.3-7.571.608-9.691,0-5.447,0-5.447S573.455,726.923,567.4,727.246Z" transform="translate(-521.549 -457.675)" fill="#5c3d53"/>
        <path id="Path_419" data-name="Path 419" d="M703.7,148.858l-.272-.13c.046-.1,4.713-10.21-1.454-13.734l.151-.264C708.527,138.392,703.747,148.753,703.7,148.858Z" transform="translate(-604.71 -113.628)" fill="#535461"/>
        <path id="Path_420" data-name="Path 420" d="M559.374,293.473l-7.872,2.12s-13.022,1.818-7.872-3.352c1.781-1.781,2.656-4.835,3.037-8.061,2.057,3.226,4.533,2.309,4.533,2.309l7.508-.147h.029A20.161,20.161,0,0,0,559.374,293.473Z" transform="translate(-512.01 -200.462)" opacity="0.1"/>
        <path id="Path_421" data-name="Path 421" d="M613.786,295.58a7.963,7.963,0,0,1-1.617.934l-1.818-14.538,1.676-4.223.419-.323C616.228,278.507,614.276,292.433,613.786,295.58Z" transform="translate(-551.476 -196.54)" opacity="0.1"/>
        <path id="Path_422" data-name="Path 422" d="M509.3,261.54v3.938l-6.662,17.262-1.818-1.818a3.048,3.048,0,0,1-.276-.344C501.328,271.579,509.3,261.54,509.3,261.54Z" transform="translate(-487.674 -187.308)" opacity="0.1"/>
        <path id="Path_423" data-name="Path 423" d="M552.693,433.354c-4.236,1.06-26.349,6.255-32.91,1.337a14.952,14.952,0,0,0-8.493-2.765,19.1,19.1,0,0,1,.922-2.686l32.542,1.513,1.919.088,4.609.214Q552.035,432.2,552.693,433.354Z" transform="translate(-493.92 -284.746)" opacity="0.1"/>
        <path id="Path_424" data-name="Path 424" d="M474.1,90.59s4.542,7.571,7.571,0" transform="translate(-472.311 -87.981)" fill="#f8bdc5"/>
        <path id="Path_425" data-name="Path 425" d="M696.809,127.81s-1.818,9.088,5.447,4.848" transform="translate(-601.594 -109.607)" fill="#f8bdc5"/>
        <g id="Group_72" data-name="Group 72" transform="translate(18.095 144.507)" opacity="0.1">
          <path id="Path_426" data-name="Path 426" d="M550,525.486c-.147-1.843-.256-3-.256-3-3.352.909-3.029,45.123-3.029,45.123v28.771a10.532,10.532,0,0,1-6.012,2.794,10,10,0,0,0,7.542-2.794V567.613S548.007,535.575,550,525.486Z" transform="translate(-529.103 -483.433)"/>
          <path id="Path_427" data-name="Path 427" d="M556.095,438.676c-.256-.645-.528-1.295-.838-1.94-.511-1.123-1.085-2.25-1.722-3.352-.419-.771-.913-1.538-1.416-2.3l-4.609-.214-1.919-.088-32.542-1.513-.029.067,31.059,1.445,1.919.088,4.609.214c.5.758.976,1.529,1.416,2.3.637,1.119,1.211,2.246,1.722,3.352.293.645.57,1.295.838,1.94,6.192,15.628,1.492,30.857,1.492,30.857l-1.785,12.51A90.474,90.474,0,0,1,551,496.05a22.788,22.788,0,0,0-.373,9.217s1.211,19.382-.909,24.229-1.818,11.811-1.818,11.811a8.8,8.8,0,0,1-3.8,1.047,9.636,9.636,0,0,0,5.308-1.047s-.3-6.967,1.818-11.811.909-24.229.909-24.229a22.79,22.79,0,0,1,.373-9.217,90.467,90.467,0,0,0,3.293-14.006l1.785-12.51S562.287,454.3,556.095,438.676Z" transform="translate(-513.02 -429.27)"/>
        </g>
        <path id="Path_428" data-name="Path 428" d="M527.2,273.837c4.19,1.973,13.994-5.606,13.994-5.606,4.24,1.211,1.211,18.778,1.211,18.778l-.164.729c-.922,4.144-1.479,8.354-1.994,12.569-.39,3.18-3.293,6.088-3.293,6.088-5.149,9.691,3.029,28.771,3.029,28.771s-26.349,6.968-33.614,1.513-18.171-1.211-18.171-1.211c5.149-4.542,5.447-32.709,5.447-32.709V280.972c.607-9.088,8.8-19.382,8.8-19.382A15.219,15.219,0,0,0,515.111,271.6c2.065,3.352,4.609,2.409,4.609,2.409Z" transform="translate(-480.504 -187.337)" fill="#eb6475"/>
        <path id="Path_429" data-name="Path 429" d="M540.729,202.325a7.429,7.429,0,0,0-3.155,0c-3.293.909-4.328,5.061-6.871,7.34-.913.838-2.04,1.4-2.87,2.309a7.546,7.546,0,0,0-1.458,6.18c.314,2.166,1.152,4.219,1.676,6.343a21.947,21.947,0,0,1,.582,6.5,3.824,3.824,0,0,1-.562,2.057c-.608.838-1.726,1.1-2.514,1.772-2.4,2.07-.419,6.364-2.183,9.008-.758,1.144-2.179,1.9-2.468,3.239a4.433,4.433,0,0,0,.658,2.786,20.174,20.174,0,0,0,4.19,6.389,19.648,19.648,0,0,0,6.591,3.457c.708.264,1.6.494,2.137-.029.666-.654.164-1.76-.3-2.568a5.459,5.459,0,0,1-.871-4.19c.427-1.416,1.8-2.355,2.719-3.536,2.376-3.059,1.6-7.449.419-11.136-.5-1.554-1.06-3.209-.637-4.789.18-.679.536-1.295.763-1.961,1.005-2.966-.683-6.222-.189-9.314a13.377,13.377,0,0,1,1.257-3.465L540.306,213a5.653,5.653,0,0,1,1.177-1.852,4.19,4.19,0,0,1,2.933-.913,7.96,7.96,0,0,1,5.711,2.6c2.849,3.167,2.669,7.96,2.325,12.184l-.247,3.05c-.18,2.2-.419,4.537-1.8,6.247-1.077,1.324-2.815,2.225-3.26,3.875-.385,1.42.339,2.962-.042,4.382-.57,2.124-3.193,2.891-4.579,4.609a4.714,4.714,0,0,0-.344,5.3c.528.838,1.37,1.676,1.257,2.66-.1.792-.809,1.433-.8,2.229a1.772,1.772,0,0,0,1.286,1.538,5.2,5.2,0,0,0,2.124.1l7.512-.679a2.645,2.645,0,0,0,1.336-.369,2.353,2.353,0,0,0,.767-1.714c.3-2.673-.419-5.593.917-7.931.419-.75,1.035-1.374,1.5-2.095,2.564-4.022-.021-9.477,1.374-14.04.662-2.166,2.2-4.026,2.614-6.251.545-2.966-1-5.866-1.6-8.8-.616-3.029-.285-6.364-1.9-9a9.256,9.256,0,0,0-5.736-3.838c-2.095-.528-4.19-.339-6.285-.566C544.538,203.5,542.677,202.639,540.729,202.325Z" transform="translate(-499.477 -152.804)" opacity="0.1"/>
        <path id="Path_430" data-name="Path 430" d="M540.729,200.875a7.429,7.429,0,0,0-3.155,0c-3.293.909-4.328,5.061-6.871,7.34-.913.838-2.04,1.4-2.87,2.309a7.545,7.545,0,0,0-1.458,6.18c.314,2.166,1.152,4.219,1.676,6.343a21.947,21.947,0,0,1,.582,6.5,3.824,3.824,0,0,1-.562,2.057c-.608.838-1.726,1.1-2.514,1.772-2.4,2.07-.419,6.364-2.183,9.008-.758,1.144-2.179,1.9-2.468,3.239a4.433,4.433,0,0,0,.658,2.786,20.173,20.173,0,0,0,4.19,6.389,19.649,19.649,0,0,0,6.591,3.457c.708.264,1.6.494,2.137-.029.666-.654.164-1.76-.3-2.568a5.459,5.459,0,0,1-.871-4.19c.427-1.416,1.8-2.355,2.719-3.536,2.376-3.059,1.6-7.449.419-11.136-.5-1.554-1.06-3.209-.637-4.789.18-.679.536-1.295.763-1.961,1.005-2.966-.683-6.222-.189-9.314a13.376,13.376,0,0,1,1.257-3.465l2.661-5.719a5.654,5.654,0,0,1,1.177-1.852,4.19,4.19,0,0,1,2.933-.913,7.96,7.96,0,0,1,5.711,2.6c2.849,3.167,2.669,7.961,2.325,12.184l-.247,3.05c-.18,2.2-.419,4.538-1.8,6.247-1.077,1.324-2.815,2.225-3.26,3.875-.385,1.42.339,2.962-.042,4.382-.57,2.124-3.193,2.891-4.579,4.609a4.714,4.714,0,0,0-.344,5.3c.528.838,1.37,1.676,1.257,2.661-.1.792-.809,1.433-.8,2.229a1.772,1.772,0,0,0,1.286,1.538,5.2,5.2,0,0,0,2.124.1l7.512-.679a2.644,2.644,0,0,0,1.336-.369,2.353,2.353,0,0,0,.767-1.714c.3-2.673-.419-5.593.917-7.931.419-.75,1.035-1.374,1.5-2.095,2.564-4.022-.021-9.477,1.374-14.04.662-2.166,2.2-4.026,2.614-6.251.545-2.966-1-5.866-1.6-8.8-.616-3.029-.285-6.364-1.9-9a9.256,9.256,0,0,0-5.736-3.838c-2.095-.528-4.19-.339-6.285-.566C544.538,202.057,542.677,201.193,540.729,200.875Z" transform="translate(-499.477 -151.961)" fill="#774e55"/>
        <path id="Path_431" data-name="Path 431" d="M529.75,363.77s6.058,1.818,14.84-2.12h4.537s.3,4.24,12.112,2.422" transform="translate(-504.646 -245.474)" opacity="0.1"/>
      </g>
    </g>
  </g>
</svg>
