<svg xmlns="http://www.w3.org/2000/svg" width="568.612" height="431.3" viewBox="0 0 568.612 431.3">
  <g id="fig2" transform="translate(-107 -34.634)">
    <g id="undraw_missed_chances_k3cq_1_" data-name="undraw_missed_chances_k3cq (1)" transform="translate(107 34.634)">
      <ellipse id="Ellipse_182" data-name="Ellipse 182" cx="216.382" cy="15.645" rx="216.382" ry="15.645" transform="translate(70.446 400.01)" fill="#779be7" opacity="0.1"/>
      <path id="Path_947" data-name="Path 947" d="M35.31,360.487a42.932,42.932,0,0,0,8.579,9.644c.916.756,1.866,1.493,2.831,2.18,12.361,8.877,28.911,12.779,44.989,15.307,31.215,4.906,63.082,5.862,94.815,6.8,26.717.8,53.449,1.592,80.175,2.12,38.2.766,76.408,1,114.551,0q31.275-.821,62.5-2.9C482.375,391,522,386.328,555.619,370.026a115.383,115.383,0,0,0,17.571-10.4c9.131-6.653,16.65-14.7,20.671-24.239,6.469-15.326,3.05-32.549-4.339-47.577-4.479-9.086-10.3-17.6-16.332-26.03-3.573-5.006-7.225-9.982-10.7-15.033-.363-.5-.717-1.03-1.065-1.548-.672-1-1.339-1.99-1.99-2.986-2.727-4.195-5.31-8.524-7.678-12.938a146.412,146.412,0,0,1-6.394-13.545,118.116,118.116,0,0,1-4.479-12.938c-.826-2.961-1.523-5.932-2.06-8.9-2.941-16.177-1.388-32.345,7.32-46.98.085-.144.174-.3.264-.443l.11-.174a137.058,137.058,0,0,1,8.34-11.654c3.483-4.578,6.912-9.186,9.325-14.227,6.35-13.321,4.976-28.3,2.667-42.526-3.08-18.909-8.813-39.311-26.563-51.1-18.437-12.271-44.611-11.649-67.5-7.26-35.559,6.8-68.4,21.069-101.553,33.942S303.369,78.116,266.914,79.375c-32.191,1.12-69.736-7.24-91.1-28.986-20.75-21.114-59.758-22.721-87.883-9.952C61.1,52.6,43.749,78.36,45.053,104.077c1.9,37.455,38,66.183,59.534,98.955.965,1.463,1.906,2.961,2.8,4.479,8.459,14.3,13.669,30.713,7.429,45.6-8.37,19.939-33.221,29.668-54.18,42.193-10.121,6.046-19.357,12.749-25.329,21.586-.224.318-.428.632-.632.945C26.253,330.869,26.89,347.519,35.31,360.487Z" transform="translate(-28.668 -16.652)" fill="#779be7" opacity="0.1"/>
      <path id="Path_948" data-name="Path 948" d="M601.191,318.1c-2.727-4.195-5.31-8.524-7.678-12.938a146.441,146.441,0,0,1-6.4-13.535,118.143,118.143,0,0,1-4.479-12.938c-.826-2.961-1.523-5.932-2.06-8.9-2.941-16.177-1.388-32.345,7.32-46.98.085-.144.174-.3.264-.443l8.459-11.828H533.844v41.68H516.383V377.24H493.851V336.685H466.816V377.24H444.3V307.957h-1.125V271.91h-21.4v36.047H372.209v54.071h-27.6V345.109H327.688v16.919h-27.6V202.065H264.043V176.717h-6.2v25.348H247.711v50.13H229.683v-41.68H214.476V167.72H182.937v42.795H167.725v41.68H149.139V283.4c8.459,14.3,13.669,30.713,7.429,45.6-8.37,19.939-33.221,29.668-54.18,42.193-10.121,6.051-19.357,12.754-25.328,21.591V436.4a42.931,42.931,0,0,0,8.579,9.629c.916.756,1.866,1.493,2.831,2.18,12.361,8.877,28.911,12.779,44.989,15.307,31.215,4.906,63.082,5.862,94.815,6.8,26.717.8,53.449,1.592,80.175,2.12h114.56q31.275-.821,62.5-2.9c38.625-2.642,78.245-7.31,111.868-23.612a115.386,115.386,0,0,0,17.571-10.4V337.675c-3.573-5.006-7.225-9.982-10.7-15.033Z" transform="translate(-70.418 -92.547)" fill="#779be7" opacity="0.3"/>
      <path id="Path_949" data-name="Path 949" d="M142,372.79v8.9h2.04C143.234,378.731,142.547,375.761,142,372.79Z" transform="translate(368.176 -195.571)" fill="#fff" opacity="0.4"/>
      <rect id="Rectangle_276" data-name="Rectangle 276" width="23.657" height="13.52" transform="translate(457.23 172.601)" fill="#fff" opacity="0.4"/>
      <path id="Path_950" data-name="Path 950" d="M120.1,416.72v13.515h12.938a146.432,146.432,0,0,1-6.419-13.515Z" transform="translate(390.076 -217.641)" fill="#fff" opacity="0.4"/>
      <rect id="Rectangle_277" data-name="Rectangle 277" width="23.657" height="13.52" transform="translate(457.23 199.074)" fill="#fff" opacity="0.4"/>
      <path id="Path_951" data-name="Path 951" d="M90.516,453.3H69.92v13.52H93.577v-8.972Z" transform="translate(440.256 -227.753)" fill="#fff" opacity="0.4"/>
      <rect id="Rectangle_278" data-name="Rectangle 278" width="23.657" height="13.52" transform="translate(457.23 225.547)" fill="#fff" opacity="0.4"/>
      <rect id="Rectangle_279" data-name="Rectangle 279" width="23.657" height="13.52" transform="translate(510.176 252.025)" fill="#fff" opacity="0.4"/>
      <rect id="Rectangle_280" data-name="Rectangle 280" width="23.657" height="13.52" transform="translate(457.23 252.02)" fill="#fff" opacity="0.4"/>
      <rect id="Rectangle_281" data-name="Rectangle 281" width="23.657" height="13.52" transform="translate(510.176 278.498)" fill="#fff" opacity="0.4"/>
      <rect id="Rectangle_282" data-name="Rectangle 282" width="23.657" height="13.52" transform="translate(457.23 278.493)" fill="#fff" opacity="0.4"/>
      <rect id="Rectangle_283" data-name="Rectangle 283" width="23.657" height="13.52" transform="translate(510.176 304.971)" fill="#fff" opacity="0.4"/>
      <rect id="Rectangle_284" data-name="Rectangle 284" width="23.657" height="13.52" transform="translate(457.23 304.966)" fill="#fff" opacity="0.4"/>
      <rect id="Rectangle_285" data-name="Rectangle 285" width="23.657" height="13.52" transform="translate(510.176 331.444)" fill="#fff" opacity="0.4"/>
      <rect id="Rectangle_286" data-name="Rectangle 286" width="23.657" height="13.52" transform="translate(457.23 331.439)" fill="#fff" opacity="0.4"/>
      <rect id="Rectangle_287" data-name="Rectangle 287" width="55.2" height="6.758" transform="translate(382.315 298.209)" fill="#fff" opacity="0.4"/>
      <rect id="Rectangle_288" data-name="Rectangle 288" width="55.2" height="6.758" transform="translate(382.315 308.35)" fill="#fff" opacity="0.4"/>
      <rect id="Rectangle_289" data-name="Rectangle 289" width="55.2" height="6.758" transform="translate(382.315 318.486)" fill="#fff" opacity="0.4"/>
      <rect id="Rectangle_290" data-name="Rectangle 290" width="55.2" height="6.758" transform="translate(238.121 301.593)" fill="#fff" opacity="0.4"/>
      <rect id="Rectangle_291" data-name="Rectangle 291" width="55.2" height="6.758" transform="translate(238.121 311.729)" fill="#fff" opacity="0.4"/>
      <rect id="Rectangle_292" data-name="Rectangle 292" width="55.2" height="6.758" transform="translate(238.121 321.865)" fill="#fff" opacity="0.4"/>
      <rect id="Rectangle_293" data-name="Rectangle 293" width="55.2" height="6.758" transform="translate(382.315 328.628)" fill="#fff" opacity="0.4"/>
      <rect id="Rectangle_294" data-name="Rectangle 294" width="55.2" height="6.758" transform="translate(382.315 338.764)" fill="#fff" opacity="0.4"/>
      <rect id="Rectangle_295" data-name="Rectangle 295" width="55.2" height="6.758" transform="translate(382.315 348.906)" fill="#fff" opacity="0.4"/>
      <rect id="Rectangle_296" data-name="Rectangle 296" width="15.207" height="19.715" transform="translate(346.835 228.369)" fill="#fff" opacity="0.4"/>
      <rect id="Rectangle_297" data-name="Rectangle 297" width="15.207" height="19.715" transform="translate(313.599 228.364)" fill="#fff" opacity="0.4"/>
      <rect id="Rectangle_298" data-name="Rectangle 298" width="15.207" height="19.715" transform="translate(346.835 259.907)" fill="#fff" opacity="0.4"/>
      <rect id="Rectangle_299" data-name="Rectangle 299" width="15.207" height="19.715" transform="translate(313.599 259.907)" fill="#fff" opacity="0.4"/>
      <rect id="Rectangle_300" data-name="Rectangle 300" width="15.207" height="19.715" transform="translate(346.835 291.451)" fill="#fff" opacity="0.4"/>
      <rect id="Rectangle_301" data-name="Rectangle 301" width="15.207" height="19.715" transform="translate(313.599 291.451)" fill="#fff" opacity="0.4"/>
      <rect id="Rectangle_302" data-name="Rectangle 302" width="15.207" height="19.715" transform="translate(346.835 322.995)" fill="#fff" opacity="0.4"/>
      <rect id="Rectangle_303" data-name="Rectangle 303" width="15.207" height="19.715" transform="translate(313.599 322.995)" fill="#fff" opacity="0.4"/>
      <rect id="Rectangle_304" data-name="Rectangle 304" width="20.278" height="25.911" transform="translate(209.399 122.477)" fill="#fff" opacity="0.4"/>
      <rect id="Rectangle_305" data-name="Rectangle 305" width="20.278" height="25.911" transform="translate(209.399 159.648)" fill="#fff" opacity="0.4"/>
      <rect id="Rectangle_306" data-name="Rectangle 306" width="20.278" height="25.911" transform="translate(209.399 196.825)" fill="#fff" opacity="0.4"/>
      <rect id="Rectangle_307" data-name="Rectangle 307" width="20.278" height="25.911" transform="translate(209.399 234.002)" fill="#fff" opacity="0.4"/>
      <rect id="Rectangle_308" data-name="Rectangle 308" width="20.278" height="25.911" transform="translate(209.399 271.173)" fill="#fff" opacity="0.4"/>
      <rect id="Rectangle_309" data-name="Rectangle 309" width="20.278" height="25.911" transform="translate(209.399 308.35)" fill="#fff" opacity="0.4"/>
      <rect id="Rectangle_310" data-name="Rectangle 310" width="75.478" height="21.965" transform="translate(90.265 175.423)" fill="#fff" opacity="0.4"/>
      <rect id="Rectangle_311" data-name="Rectangle 311" width="75.478" height="21.965" transform="translate(89.987 222.736)" fill="#fff" opacity="0.4"/>
      <rect id="Rectangle_312" data-name="Rectangle 312" width="75.478" height="21.965" transform="translate(89.703 270.049)" fill="#fff" opacity="0.4"/>
      <rect id="Rectangle_313" data-name="Rectangle 313" width="75.478" height="21.965" transform="translate(89.424 317.362)" fill="#fff" opacity="0.4"/>
      <path id="Path_952" data-name="Path 952" d="M130.86,277.49v.443c.085-.144.174-.3.264-.443Z" transform="translate(386.636 -147.693)" fill="#fff" opacity="0.4"/>
      <path id="Path_953" data-name="Path 953" d="M1107.1,598.216v8.131h25.328V576.64C1122.307,582.676,1113.071,589.379,1107.1,598.216Z" transform="translate(-1100.458 -297.982)" fill="#fff" opacity="0.4"/>
      <path id="Path_954" data-name="Path 954" d="M1107.07,665.74v20.84a42.93,42.93,0,0,0,8.579,9.644c.916.756,1.866,1.493,2.831,2.18h13.933V665.74Z" transform="translate(-1100.428 -342.745)" fill="#fff" opacity="0.4"/>
      <path id="Path_955" data-name="Path 955" d="M299.821,216.194H303.7a2.712,2.712,0,1,1,0-5.424h31.394a2.712,2.712,0,1,1,0,5.424h-3.876a2.717,2.717,0,0,1,0,5.429h5.424a2.712,2.712,0,1,1,0,5.424H305.25a2.712,2.712,0,0,1,0-5.424h-5.429a2.717,2.717,0,0,1,0-5.429Z" transform="translate(95.626 -114.174)" fill="#779be7" opacity="0.1"/>
      <path id="Path_956" data-name="Path 956" d="M578.251,353.154h3.876a2.712,2.712,0,1,1,0-5.424h31.395a2.712,2.712,0,1,1,0,5.424h-3.867a2.717,2.717,0,0,1,0,5.429h5.424a2.712,2.712,0,0,1,0,5.424h-31.4a2.712,2.712,0,0,1,0-5.424h-5.429a2.717,2.717,0,0,1,0-5.429Z" transform="translate(-321.364 -182.981)" fill="#779be7" opacity="0.1"/>
      <path id="Path_957" data-name="Path 957" d="M1052.876,174.314h3.876a2.712,2.712,0,0,1,0-5.424h31.394a2.712,2.712,0,0,1,0,5.424h-3.876a2.712,2.712,0,0,1,0,5.424h5.424a2.717,2.717,0,0,1,0,5.429H1058.3a2.717,2.717,0,1,1,0-5.429h-5.429a2.712,2.712,0,1,1,0-5.424Z" transform="translate(-1031.993 -93.134)" fill="#779be7" opacity="0.1"/>
      <ellipse id="Ellipse_183" data-name="Ellipse 183" cx="0.532" cy="0.532" rx="0.532" ry="0.532" transform="translate(123.655 406.131)" fill="#fff" opacity="0.25"/>
      <ellipse id="Ellipse_184" data-name="Ellipse 184" cx="0.532" cy="0.532" rx="0.532" ry="0.532" transform="translate(118.679 408.594)" fill="#fff" opacity="0.25"/>
      <ellipse id="Ellipse_185" data-name="Ellipse 185" cx="0.532" cy="0.532" rx="0.532" ry="0.532" transform="translate(116.116 409.744)" fill="#fff" opacity="0.25"/>
      <ellipse id="Ellipse_186" data-name="Ellipse 186" cx="0.532" cy="0.532" rx="0.532" ry="0.532" transform="translate(110.807 411.784)" fill="#fff" opacity="0.25"/>
      <ellipse id="Ellipse_187" data-name="Ellipse 187" cx="0.532" cy="0.532" rx="0.532" ry="0.532" transform="translate(113.509 410.913)" fill="#fff" opacity="0.25"/>
      <rect id="Rectangle_314" data-name="Rectangle 314" width="0.244" height="2.125" rx="0.122" transform="translate(71.124 222.327) rotate(145.44)" fill="#464353"/>
      <rect id="Rectangle_315" data-name="Rectangle 315" width="6.648" height="0.239" transform="translate(406.497 161.657) rotate(168.95)" opacity="0.05"/>
      <rect id="Rectangle_316" data-name="Rectangle 316" width="8.076" height="19.71" rx="4.038" transform="matrix(-0.901, -0.434, 0.434, -0.901, 450.06, 295.005)" fill="#cbdae3"/>
      <path id="Path_1049" data-name="Path 1049" d="M696.47,754.23s-3.1,4.046,1.428,10.156,8.25,11.266,6.743,15.073c0,0-6.822-11.346-12.376-11.5S690.359,761.052,696.47,754.23Z" transform="translate(-465.221 -387.201)" fill="#779be7"/>
      <path id="Path_1050" data-name="Path 1050" d="M696.824,754.23a4.975,4.975,0,0,0-.632,1.269c-5.419,6.365-8.31,12.306-3.1,12.44,4.852.139,10.674,8.818,12.067,11.007a4.491,4.491,0,0,1-.164.5s-6.822-11.346-12.376-11.5S690.713,761.052,696.824,754.23Z" transform="translate(-465.575 -387.201)" opacity="0.1"/>
      <path id="Path_1051" data-name="Path 1051" d="M716.76,763.67c0,1.428.159,2.583.353,2.583s.358-1.154.358-2.583-.2-.751-.4-.751S716.76,762.246,716.76,763.67Z" transform="translate(-491.263 -391.486)" fill="#ffd037"/>
      <path id="Path_1052" data-name="Path 1052" d="M718.018,767.016c1.249.682,2.339,1.095,2.433.921s-.841-.866-2.09-1.548-.761-.184-.856,0S716.769,766.339,718.018,767.016Z" transform="translate(-494.497 -393.135)" fill="#ffd037"/>
      <path id="Path_1053" data-name="Path 1053" d="M668.347,754.23s3.1,4.046-1.428,10.156-8.25,11.266-6.743,15.073c0,0,6.822-11.346,12.376-11.5S674.458,761.052,668.347,754.23Z" transform="translate(-420.756 -387.201)" fill="#779be7"/>
      <path id="Path_1054" data-name="Path 1054" d="M668.171,754.23a4.979,4.979,0,0,1,.632,1.269c5.419,6.365,8.305,12.306,3.1,12.44-4.852.139-10.669,8.818-12.062,11.007a4.49,4.49,0,0,0,.164.5s6.822-11.346,12.376-11.5S674.281,761.052,668.171,754.23Z" transform="translate(-420.58 -387.201)" opacity="0.1"/>
      <path id="Path_1055" data-name="Path 1055" d="M662.946,763.67c0,1.428-.159,2.583-.358,2.583s-.358-1.154-.358-2.583.2-.751.4-.751S662.946,762.246,662.946,763.67Z" transform="translate(-409.603 -391.486)" fill="#ffd037"/>
      <path id="Path_1056" data-name="Path 1056" d="M659.18,767.016c-1.254.682-2.344,1.095-2.438.921s.846-.866,2.095-1.548.756-.184.851,0S660.429,766.339,659.18,767.016Z" transform="translate(-403.861 -393.135)" fill="#ffd037"/>
      <path id="Path_1057" data-name="Path 1057" d="M696.378,799.151s-8.653-.269-11.261-2.125-13.306-4.07-13.933-1.095-13,14.809-3.235,14.888,22.7-1.523,25.3-3.11S696.378,799.151,696.378,799.151Z" transform="translate(-444.02 -407.42)" fill="#a8a8a8"/>
      <path id="Path_1058" data-name="Path 1058" d="M667.775,814.489c9.768.08,22.7-1.518,25.3-3.105,1.99-1.2,2.772-5.538,3.035-7.534h.289s-.547,6.967-3.15,8.559-15.531,3.19-25.3,3.11c-2.817-.025-3.792-1.025-3.737-2.513C664.6,813.912,665.68,814.474,667.775,814.489Z" transform="translate(-444.04 -412.13)" opacity="0.2"/>
      <path id="Path_1059" data-name="Path 1059" d="M602.771,809.291a4.609,4.609,0,0,1-1.493-2.279,2.021,2.021,0,0,1,1.055-2.314c1-.373,1.99.3,2.787,1s1.687,1.453,2.712,1.309a4.12,4.12,0,0,1-1.274-3.862,1.621,1.621,0,0,1,.353-.786c.537-.572,1.493-.323,2.155.129,2.045,1.438,2.617,4.215,2.627,6.718a12.529,12.529,0,0,0,.04-2.767,2.838,2.838,0,0,1,1.04-2.448,3.085,3.085,0,0,1,1.582-.373,3.26,3.26,0,0,1,2.573.732,2.554,2.554,0,0,1-.1,3.155,10.16,10.16,0,0,1-2.662,2.135,5.82,5.82,0,0,0-1.9,1.816,1.494,1.494,0,0,0-.144.324h-5.767A16.029,16.029,0,0,1,602.771,809.291Z" transform="translate(-333.733 -411.211)" fill="#779be7"/>
      <path id="Path_1060" data-name="Path 1060" d="M551.728,749.633s5.533-18.775-1.035-32.594a29.652,29.652,0,0,1-2.384-18.606,50.358,50.358,0,0,1,2.632-8.733" transform="translate(-243.598 -354.782)" fill="none" stroke="#535461" stroke-miterlimit="10" stroke-width="2"/>
      <path id="Path_1061" data-name="Path 1061" d="M545.25,668.085c0,2.3,4.17,8.957,4.17,8.957s4.165-6.673,4.165-8.957a4.17,4.17,0,0,0-8.335,0Z" transform="translate(-242.031 -341.901)" fill="#779be7"/>
      <path id="Path_1062" data-name="Path 1062" d="M559.629,691.267c1.254,1.936,8.375,5.27,8.375,5.27s-.129-7.867-1.378-9.8a4.167,4.167,0,1,0-7,4.528Z" transform="translate(-263.272 -352.338)" fill="#779be7"/>
      <path id="Path_1063" data-name="Path 1063" d="M557.6,733.568c2.055,1.04,9.888.324,9.888.324s-4.08-6.728-6.136-7.763a4.166,4.166,0,1,0-3.752,7.439Z" transform="translate(-260.94 -372.859)" fill="#779be7"/>
      <path id="Path_1064" data-name="Path 1064" d="M549.5,766.957c1.851,1.368,9.694,1.99,9.694,1.99s-2.886-7.32-4.737-8.688a4.174,4.174,0,1,0-4.976,6.7Z" transform="translate(-248.9 -389.817)" fill="#779be7"/>
      <path id="Path_1065" data-name="Path 1065" d="M548.185,702.026c-1.647,1.6-9.34,3.264-9.34,3.264s1.886-7.638,3.533-9.241a4.165,4.165,0,1,1,5.807,5.972Z" transform="translate(-234.706 -357.38)" fill="#779be7"/>
      <path id="Path_1066" data-name="Path 1066" d="M537.872,740.039c-2.055,1.04-9.888.323-9.888.323s4.08-6.728,6.136-7.763a4.177,4.177,0,1,1,3.752,7.464Z" transform="translate(-220.028 -376.111)" fill="#779be7"/>
      <path id="Path_1067" data-name="Path 1067" d="M535.519,779.187c-1.851,1.368-9.693,1.99-9.693,1.99s2.886-7.32,4.737-8.688a4.172,4.172,0,1,1,4.976,6.7Z" transform="translate(-216.003 -395.961)" fill="#779be7"/>
      <path id="Path_1068" data-name="Path 1068" d="M545.25,668.085c0,2.3,4.17,8.957,4.17,8.957s4.165-6.673,4.165-8.957a4.17,4.17,0,0,0-8.335,0Z" transform="translate(-242.031 -341.901)" fill="#779be7"/>
      <path id="Path_1069" data-name="Path 1069" d="M559.629,691.267c1.254,1.936,8.375,5.27,8.375,5.27s-.129-7.867-1.378-9.8a4.167,4.167,0,1,0-7,4.528Z" transform="translate(-263.272 -352.338)" fill="#779be7"/>
      <path id="Path_1070" data-name="Path 1070" d="M557.6,733.568c2.055,1.04,9.888.324,9.888.324s-4.08-6.728-6.136-7.763a4.166,4.166,0,1,0-3.752,7.439Z" transform="translate(-260.94 -372.859)" fill="#779be7"/>
      <path id="Path_1071" data-name="Path 1071" d="M549.5,766.957c1.851,1.368,9.694,1.99,9.694,1.99s-2.886-7.32-4.737-8.688a4.174,4.174,0,1,0-4.976,6.7Z" transform="translate(-248.9 -389.817)" fill="#779be7"/>
      <path id="Path_1072" data-name="Path 1072" d="M548.185,702.026c-1.647,1.6-9.34,3.264-9.34,3.264s1.886-7.638,3.533-9.241a4.165,4.165,0,1,1,5.807,5.972Z" transform="translate(-234.706 -357.38)" fill="#779be7"/>
      <path id="Path_1073" data-name="Path 1073" d="M537.872,740.039c-2.055,1.04-9.888.323-9.888.323s4.08-6.728,6.136-7.763a4.177,4.177,0,1,1,3.752,7.464Z" transform="translate(-220.028 -376.111)" fill="#779be7"/>
      <path id="Path_1074" data-name="Path 1074" d="M535.519,779.187c-1.851,1.368-9.693,1.99-9.693,1.99s2.886-7.32,4.737-8.688a4.172,4.172,0,1,1,4.976,6.7Z" transform="translate(-216.003 -395.961)" fill="#779be7"/>
      <path id="Path_1075" data-name="Path 1075" d="M552.292,801.129s-6.733-1.339-8.529-3.12-9.878-4.9-10.773-2.677-12.122,9.808-4.479,11.147,17.954,1.781,20.2.891S552.292,801.129,552.292,801.129Z" transform="translate(-231.089 -407.463)" fill="#a8a8a8"/>
      <path id="Path_1076" data-name="Path 1076" d="M528.5,812.213c7.633,1.339,17.959,1.782,20.2.891,1.712-.677,2.9-3.941,3.369-5.474l.224.05s-1.349,5.349-3.593,6.24-12.57.443-20.2-.891c-2.2-.388-2.831-1.294-2.593-2.443C526.1,811.352,526.848,811.924,528.5,812.213Z" transform="translate(-231.093 -414.029)" opacity="0.2"/>
    </g>
    <g id="undraw_transfer_money_rywa" transform="translate(211.421 112.819)">
      <ellipse id="Ellipse_170" data-name="Ellipse 170" cx="121.496" cy="121.96" rx="121.496" ry="121.96" transform="translate(57.883 0)" fill="#fff"/>
      <ellipse id="Ellipse_171" data-name="Ellipse 171" cx="57.706" cy="9.233" rx="57.706" ry="9.233" transform="translate(0 314.91)" fill="#f2f2f2"/>
      <path id="Path_920" data-name="Path 920" d="M731.305,429.266S716.546,360.1,624.169,309.92" transform="translate(-400.491 -186.673)" fill="none" stroke="#3f3d56" stroke-miterlimit="10" stroke-width="2"/>
      <path id="Path_921" data-name="Path 921" d="M576.311,254.891l.185.758-3.737.906,1.177,3.661-.743.238L571.76,256Z" transform="translate(-348.827 -133.152)" fill="#3f3d56"/>
      <path id="Path_922" data-name="Path 922" d="M82.57,766.125c0,8.761-5.208,11.82-11.632,11.82q-.223,0-.446-.005c-.3-.006-.593-.021-.884-.04-5.8-.41-10.3-3.627-10.3-11.774,0-8.432,10.775-19.071,11.584-19.859h0l.047-.045S82.57,757.364,82.57,766.125Z" transform="translate(-55.872 -452.855)" fill="#779be7"/>
      <path id="Path_923" data-name="Path 923" d="M80.737,776.6l4.255-5.945-4.265,6.6-.011.683c-.3-.006-.593-.021-.884-.04l.459-8.765,0-.068.008-.013.043-.828-4.276-6.614,4.289,5.993.01.176.347-6.622-3.661-6.834L80.751,760l.361-13.73v0l-.06,10.826L84.7,752.8l-3.659,5.225-.1,5.929,3.4-5.69-3.417,6.563-.054,3.3,4.94-7.92-4.958,9.07Z" transform="translate(-66.095 -452.856)" fill="#3f3d56"/>
      <path id="Path_924" data-name="Path 924" d="M225.928,788.557l2.488-1.849s1.647,9.2-.191,10.579-8.73,3.676-8.73,6.433-15.623,6.433-16.082,2.3a9.112,9.112,0,0,1,1.378-6.433s7.352-7.352,8.271-8.73,3.216-4.135,3.216-4.135Z" transform="translate(-143.746 -477.558)" fill="#2f2e41"/>
      <path id="Path_925" data-name="Path 925" d="M167,490.105s.069.4.188,1.144c.11.657.262,1.585.446,2.729,1.93,11.777,7.559,46.445,7.177,47.589-.46,1.378-3.676,6.433,0,7.811a2.851,2.851,0,0,1,1.144,1.245,26.707,26.707,0,0,1,1.944,4.586,201.485,201.485,0,0,1,5.891,23.586c.593,3.1,1,5.587,1.117,6.892a3.747,3.747,0,0,1,.014.91c-.46,1.838,2.757,8.271,4.135,10.109s3.676,3.676,3.216,5.514,11.487,6.892,12.866,3.676,1.378-5.054,1.838-5.973.919-7.352-1.378-8.271-.919-17-3.216-20.218c-.767-1.071-1.939-4.7-3.166-9.057-.482-1.709-.97-3.529-1.447-5.353-1.939-7.476-3.658-15-3.658-15l.46-53.76-25.272-3.216-.648,1.429-1.291,2.835Z" transform="translate(-121.573 -293.518)" fill="#2f2e41"/>
      <path id="Path_926" data-name="Path 926" d="M136.535,721.722s-3.676-3.676-5.514,0-3.676,17.92-6.892,21.137-7.352,19.3-2.757,20.218,9.649-1.378,10.109-4.135,10.109-17,10.109-18.38-6.433-6.433-6.433-6.433Z" transform="translate(-92.49 -436.913)" fill="#2f2e41"/>
      <path id="Path_927" data-name="Path 927" d="M214.75,431.223s-5.973,53.76-7.352,58.815-8.73,24.353-11.028,27.569-17,29.407-18.839,30.786-5.514,5.054-5.514,5.054-6.892,6.892-7.811,8.271-8.73-2.757-9.19-5.514.46-7.352.919-9.19-.919-4.595.459-5.973,8.271-8.271,8.271-11.487,11.947-22.055,16.542-26.191,3.676-11.028,3.676-11.028V464.307L159.611,456.5s1.378-22.056,4.595-22.056S209.7,427.088,214.75,431.223Z" transform="translate(-114.188 -259.909)" fill="#2f2e41"/>
      <circle id="Ellipse_174" data-name="Ellipse 174" cx="15.163" cy="15.163" r="15.163" transform="translate(48.18 64.253)" fill="#9f616a"/>
      <path id="Path_928" data-name="Path 928" d="M194.284,215.9s1.838,6.892,4.135,8.73-5.973,9.649-5.973,9.649l-15.623.919-2.757-8.73s5.054-10.109,3.676-16.542S194.284,215.9,194.284,215.9Z" transform="translate(-125.887 -124.541)" fill="#9f616a"/>
      <path id="Path_929" data-name="Path 929" d="M196.4,248.18s-4.135.46-5.054,1.838-7.352,5.514-12.406,4.595-8.271-2.3-9.19-1.838S167,262.884,167,262.884l5.054,14.7-.919,40.435-1.378,11.028s-2.757-3.676,8.271-1.378,25.272-1.838,29.867-2.3,12.406-1.838,12.866-4.595-1.378-12.866-1.378-12.866l-7.352-30.786-4.595-16.542Z" transform="translate(-121.574 -149.005)" fill="#779be7"/>
      <path id="Path_930" data-name="Path 930" d="M231.271,241.318s3.887-2.062,5.265-.224,18.839,4.595,18.839,5.973,3.676,38.6,2.757,41.814,1.838,6.892,1.838,6.892l3.216,13.785s8.73,26.191,5.054,27.11-6.892,0-8.271,0-.919-17.461-4.595-22.056-8.73-16.082-9.649-18.38-12.406-34-11.947-37.678S231.271,241.318,231.271,241.318Z" transform="translate(-160.787 -144.217)" fill="#d0cde1"/>
      <path id="Path_931" data-name="Path 931" d="M152.119,248.18s-3.676,0-4.135.919-5.054,6.892-6.892,8.271-8.271,7.352-8.271,8.73,13.325,11.487,13.325,11.487,5.514,27.11,2.757,36.3-6.892,31.245-5.054,32.624,5.973,1.838,5.973,0,2.757-21.6,5.054-25.731,9.19-30.326,6.433-37.678S152.119,248.18,152.119,248.18Z" transform="translate(-100.723 -149.005)" fill="#d0cde1"/>
      <path id="Path_932" data-name="Path 932" d="M286.826,364.847s.459,14.244-4.595,21.6a87.32,87.32,0,0,0-8.271,15.623s-8.271-2.3-9.649-5.054-10.109-.46-10.109-1.378,10.568-5.514,11.487-6.433,4.135-.919,5.973-2.757,2.3-5.973,2.3-5.973l1.838-11.947Z" transform="translate(-174.777 -220.183)" fill="#9f616a"/>
      <path id="Path_933" data-name="Path 933" d="M192.138,151.34a8.739,8.739,0,0,0,3.4-.779,4.553,4.553,0,0,0,1.164-6.742,8.712,8.712,0,0,0-1.615-1.3l-3.493-2.377a17.084,17.084,0,0,0-4.928-2.616,15.382,15.382,0,0,0-5.038-.3,34.038,34.038,0,0,0-9.65,1.755,16.149,16.149,0,0,0-7.819,5.721c-2.957,4.279-3,10.05-1.369,14.99s4.723,9.241,7.771,13.456l1.582-7.718a2.849,2.849,0,0,1,.895-1.848c1.421-1.011,3.159,1.065,4.9,1.052a2.937,2.937,0,0,0,2.486-1.967,11.212,11.212,0,0,0,.551-3.3c.208-2.364,1.035-5.654,3.274-6.958C186.341,151.194,189.793,151.553,192.138,151.34Z" transform="translate(-118.352 -81.273)" fill="#2f2e41"/>
      <path id="Path_934" data-name="Path 934" d="M233.055,498.744s-1.552,44.889-2.471,46.268,0-46.409,0-46.409Z" transform="translate(-160.119 -301.787)" opacity="0.1"/>
      <path id="Path_935" data-name="Path 935" d="M283.664,257.607h3.676s15.623,21.137,13.785,22.515,0,5.054,0,5.054l3.676,6.892s4.595,4.135,3.216,5.054-3.216,4.595-3.216,4.595-9.19-1.378-11.947,4.135l-5.959-7.523Z" transform="translate(-192.752 -154.757)" fill="#d0cde1"/>
      <rect id="Rectangle_275" data-name="Rectangle 275" width="13.647" height="25.431" transform="translate(79.597 114.857) rotate(-22.438)" fill="#2f2e41"/>
      <ellipse id="Ellipse_175" data-name="Ellipse 175" cx="2.729" cy="2.507" rx="2.729" ry="2.507" transform="translate(86.296 119.842) rotate(-22.438)" fill="#779be7"/>
      <path id="Path_936" data-name="Path 936" d="M197.358,320.972s-33.083,27.569-38.6,18.839,5.973-16.082,5.973-16.082,10.109.46,21.6-6.892l11.487-5.054s10.487-14.972,14.061-9.271S205.778,318.135,197.358,320.972Z" transform="translate(-115.636 -181.363)" fill="#9f616a"/>
      <path id="Path_937" data-name="Path 937" d="M135,289.426l-5.054,1.838v13.785l-1.838,2.757s.46,5.514,1.838,6.892,4.135.919,3.216,4.135a17.416,17.416,0,0,0-.459,6.433s8.271,10.568,8.73,9.19,6.892-18.38,7.811-18.38-9.19-26.65-9.19-26.65Z" transform="translate(-97.848 -174.169)" fill="#d0cde1"/>
      <path id="Path_938" data-name="Path 938" d="M285.467,455.456s4.751-4.595,2.376-4.825-10.646-4.825-12.025-2.527S285.467,455.456,285.467,455.456Z" transform="translate(-187.892 -270.586)" fill="#2f2e41"/>
      <ellipse id="Ellipse_176" data-name="Ellipse 176" cx="6.956" cy="3.71" rx="6.956" ry="3.71" transform="translate(181.234 89.963)" fill="#57b894"/>
      <path id="Path_939" data-name="Path 939" d="M527.339,230.308a61.479,61.479,0,0,0-44.839,0V211.982a77.606,77.606,0,0,1,44.839,0Z" transform="translate(-314.06 -124.903)" fill="none" stroke="#3f3d56" stroke-miterlimit="10" stroke-width="2"/>
      <path id="Path_940" data-name="Path 940" d="M530.862,230.008a44.371,44.371,0,0,0-32.362,0V216.782a56.011,56.011,0,0,1,32.362,0Z" transform="translate(-323.822 -128.393)" fill="none" stroke="#3f3d56" stroke-miterlimit="10" stroke-width="2"/>
      <ellipse id="Ellipse_177" data-name="Ellipse 177" cx="6.492" cy="3.71" rx="6.492" ry="3.71" transform="translate(184.016 89.035)" fill="none" stroke="#3f3d56" stroke-miterlimit="10" stroke-width="2"/>
      <ellipse id="Ellipse_178" data-name="Ellipse 178" cx="6.628" cy="3.509" rx="6.628" ry="3.509" transform="matrix(0.98, -0.2, 0.2, 0.98, 184.91, 113.644)" fill="#57b894"/>
      <path id="Path_941" data-name="Path 941" d="M538.408,278.5a61.478,61.478,0,0,0-43.934,8.967l-3.665-17.956a77.607,77.607,0,0,1,43.934-8.967Z" transform="translate(-319.13 -156.347)" fill="none" stroke="#3f3d56" stroke-miterlimit="10" stroke-width="2"/>
      <path id="Path_942" data-name="Path 942" d="M541.513,280.131A44.371,44.371,0,0,0,509.8,286.6l-2.645-12.959a56.011,56.011,0,0,1,31.709-6.472Z" transform="translate(-329.104 -160.449)" fill="none" stroke="#3f3d56" stroke-miterlimit="10" stroke-width="2"/>
      <ellipse id="Ellipse_179" data-name="Ellipse 179" cx="6.628" cy="3.509" rx="6.628" ry="3.509" transform="matrix(0.98, -0.2, 0.2, 0.98, 186.891, 111.648)" fill="none" stroke="#3f3d56" stroke-miterlimit="10" stroke-width="2"/>
      <ellipse id="Ellipse_180" data-name="Ellipse 180" cx="3.509" cy="6.628" rx="3.509" ry="6.628" transform="translate(183.877 140.607) rotate(-86.019)" fill="#57b894"/>
      <path id="Path_943" data-name="Path 943" d="M532.443,344.587a61.479,61.479,0,0,0-44.731-3.113l1.272-18.281a77.606,77.606,0,0,1,44.731,3.113Z" transform="translate(-317.24 -193.591)" fill="none" stroke="#3f3d56" stroke-miterlimit="10" stroke-width="2"/>
      <path id="Path_944" data-name="Path 944" d="M536.633,343.936a44.371,44.371,0,0,0-32.284-2.247l.918-13.194a56.012,56.012,0,0,1,32.284,2.247Z" transform="translate(-327.39 -197.154)" fill="none" stroke="#3f3d56" stroke-miterlimit="10" stroke-width="2"/>
      <ellipse id="Ellipse_181" data-name="Ellipse 181" cx="3.509" cy="6.628" rx="3.509" ry="6.628" transform="translate(186.319 139.214) rotate(-86.019)" fill="none" stroke="#3f3d56" stroke-miterlimit="10" stroke-width="2"/>
      <path id="Path_945" data-name="Path 945" d="M388.561,264.292s-28.657-3.92-49.121,8.073" transform="translate(-226.78 -158.462)" fill="none" stroke="#3f3d56" stroke-miterlimit="10" stroke-width="2"/>
      <path id="Path_946" data-name="Path 946" d="M288.493,224.459l.744.236-1.164,3.665,3.741.893-.182.759-4.555-1.088Z" transform="translate(-175.144 -114.586)" fill="#3f3d56"/>
    </g>
    <text id="Credit_for_the_Trade" data-name="Credit for the Trade" transform="matrix(0.719, 0.695, -0.695, 0.719, 450.247, 187.798)" fill="#3f3d56" font-size="15" font-family="Montserrat-SemiBold, Montserrat" font-weight="600"><tspan x="28.329" y="15">Credit for the Trade</tspan></text>
    <text id="Transfer_warranty_to_new_phone" data-name="Transfer warranty
to new phone" transform="translate(354.612 161.672)" fill="#779be7" font-size="10" font-family="Montserrat-SemiBold, Montserrat" font-weight="600"><tspan x="-45.535" y="0">Transfer warranty</tspan><tspan x="-35.785" y="13">to new phone</tspan></text>
  </g>
</svg>
