<svg id="headphones" xmlns="http://www.w3.org/2000/svg" width="64.531" height="64.531" viewBox="0 0 64.531 64.531">
  <path id="Path_1213" data-name="Path 1213" d="M59.49,29.253V27.224A27.224,27.224,0,0,0,13.015,7.974a27.046,27.046,0,0,0-7.974,19.25v2.029A6.943,6.943,0,0,0,0,35.921V46a6.94,6.94,0,0,0,6.932,6.932h7.562a1.891,1.891,0,0,0,1.891-1.891V27.224a15.881,15.881,0,1,1,31.761,0V51.045a1.891,1.891,0,0,0,1.891,1.891h3.151v2.143A1.893,1.893,0,0,1,51.3,56.969H38.873a5.681,5.681,0,0,0-5.347-3.781H31.005a5.672,5.672,0,1,0,0,11.343h2.521a5.681,5.681,0,0,0,5.347-3.781H51.3a5.678,5.678,0,0,0,5.672-5.672V52.936h.63A6.94,6.94,0,0,0,64.531,46V35.921a6.943,6.943,0,0,0-5.042-6.668ZM33.526,60.75H31.005a1.891,1.891,0,0,1,0-3.781h2.521a1.891,1.891,0,0,1,0,3.781ZM12.6,49.155H6.932A3.155,3.155,0,0,1,3.781,46V35.921A3.155,3.155,0,0,1,6.932,32.77H12.6ZM32.266,7.562A19.684,19.684,0,0,0,12.6,27.224v1.765H8.823V27.224a23.443,23.443,0,0,1,46.886,0v1.765H51.927V27.224A19.684,19.684,0,0,0,32.266,7.562ZM60.75,46A3.155,3.155,0,0,1,57.6,49.155H51.927V32.77H57.6a3.155,3.155,0,0,1,3.151,3.151Z" transform="translate(0)" fill="#779be7"/>
</svg>
