<svg xmlns="http://www.w3.org/2000/svg" width="150.382" height="115.232" viewBox="0 0 150.382 115.232">
  <g id="logo" transform="translate(-924 -2162.836)">
    <circle id="Ellipse_189" data-name="Ellipse 189" cx="38" cy="38" r="38" transform="translate(924 2177)" fill="#fff"/>
    <g id="save-money" transform="translate(944.14 2130.647)">
      <path id="Path_1207" data-name="Path 1207" d="M196.566,183.023a2.3,2.3,0,0,0-.829-.028,5.5,5.5,0,0,1-4.862-5.451,2.418,2.418,0,0,0-4.836,0,10.345,10.345,0,0,0,7.606,9.961v2.418a2.418,2.418,0,0,0,4.836,0V187.65a10.326,10.326,0,0,0-2.116-20.433,5.49,5.49,0,1,1,5.49-5.49,2.418,2.418,0,0,0,4.836,0,10.345,10.345,0,0,0-8.211-10.108v-2.2a2.418,2.418,0,0,0-4.836,0v2.348a10.325,10.325,0,0,0,2.72,20.286,5.487,5.487,0,0,1,.2,10.97Zm0,0" transform="translate(-129.554 -102.567)"/>
      <path id="Path_1208" data-name="Path 1208" d="M104.195,141.557a35.065,35.065,0,1,0,35.065-35.065A35.065,35.065,0,0,0,104.195,141.557Zm35.065-30.229a30.229,30.229,0,1,1-30.229,30.229A30.229,30.229,0,0,1,139.26,111.328Zm0,0" transform="translate(-72.449 -74.303)" fill="#b3bbbe"/>
      <path id="Path_1209" data-name="Path 1209" d="M113.8,335.99l-18.943,8.95A15.429,15.429,0,0,0,81.7,336.824l-17.487-.481a18.468,18.468,0,0,1-7.948-2.052l-1.779-.922a31.385,31.385,0,0,0-29.071.031l.111-4.031a2.418,2.418,0,0,0-2.351-2.484L4,326.357a2.417,2.417,0,0,0-2.483,2.351L.361,370.787a2.418,2.418,0,0,0,2.351,2.484l19.175.528h.066a2.418,2.418,0,0,0,2.418-2.352l.055-2.013,4.982-2.667a8.545,8.545,0,0,1,6.377-.7l29.747,8.349c.052.015.1.027.157.039a31.845,31.845,0,0,0,6.538.674,32.264,32.264,0,0,0,13.478-2.941,2.249,2.249,0,0,0,.3-.165l43.131-27.9a2.419,2.419,0,0,0,.792-3.221A12.215,12.215,0,0,0,113.8,335.99ZM5.262,368.5l1.025-37.245,14.34.394L19.6,368.9Zm78.265-.633a27.417,27.417,0,0,1-16.766,1.871l-29.667-8.328a13.371,13.371,0,0,0-9.968,1.09l-2.546,1.364.681-24.764a26.581,26.581,0,0,1,27-1.44l1.779.922a23.355,23.355,0,0,0,10.039,2.593l17.488.481a10.606,10.606,0,0,1,10.08,8.452L65.6,349.392a2.418,2.418,0,0,0-.133,4.835l28.746.791h.067a2.418,2.418,0,0,0,2.416-2.352,15.346,15.346,0,0,0-.234-3.137l19.429-9.18.057-.027a7.388,7.388,0,0,1,8.355,1.17Zm0,0" transform="translate(0 -227.709)"/>
    </g>
  </g>
</svg>
