<svg xmlns="http://www.w3.org/2000/svg" width="664.142" height="401.667" viewBox="0 0 664.142 401.667">
    <defs>
        <style>
            .prefix__cls-1{fill:#ebebeb}.prefix__cls-2{fill:#e0e0e0}.prefix__cls-3{fill:#f5f5f5}.prefix__cls-4{opacity:.4}.prefix__cls-5{fill:#fff}.prefix__cls-6{fill:#263238}.prefix__cls-7{fill:#455a64}.prefix__cls-9{fill:#779be7}.prefix__cls-10{opacity:.3}.prefix__cls-11{opacity:.1}.prefix__cls-12{fill:#ffbe9d}.prefix__cls-13{fill:#eb996e}.prefix__cls-14{opacity:.6}.prefix__cls-15{fill:#fafafa}
        </style>
    </defs>
    <g id="prefix__Product_teardown-pana_1_" data-name="Product teardown-pana (1)" transform="translate(-34.723 -43.01)">
        <g id="prefix__background-complete--inject-80" transform="translate(43.626 43.01)">
            <path id="prefix__Path_574" d="M53.662 292.534s-9.118 1.642-3.176 21.5 10.75 30.052 10.75 30.052.87 4.515-2.8 4.515-11.268-2.678-13.682 1.388 0 9.05 5.971 14 18.575 16.269 19.747 17.295S72.5 384.49 70 384.9s-20.436-.977-20.582 7.555 18.7 19.6 20.739 20.856 2.394 2.267 1.955 3.44-6.382.137-11.5-.049-11.073.5-10.75 5.434S60.376 439.2 88.953 447.4l13.467 2.932 9.47-10.1c18.96-22.84 20.524-38.565 18-42.826s-7.819-1.456-11.943 1.573-8.483 7.271-9.47 6.528-1.28-1.788-.293-3.968 10.311-21.941 5.375-28.919-18.97 4.281-21.266 5.356-2.776-1.241-2.424-2.707 4.427-17.973 6.558-25.41S97.876 337 93.5 334.92c-4.251-2.013-9.011 4.486-12.041 6.548s-4.887-2.16-4.887-2.16-1.847-11.141-8.141-30.883-14.943-15.842-14.943-15.842" class="prefix__cls-1" data-name="Path 574" transform="translate(-43.832 -48.664)"/>
            <path id="prefix__Path_575" d="M101.286 448.21c-4.574-14.533-10.75-34.665-17.435-56.929s-12.8-42.4-17.3-56.948c-2.238-7.261-4.066-13.145-5.326-17.23-.625-2.023-1.114-3.6-1.446-4.691-.156-.518-.274-.928-.362-1.222a4.3 4.3 0 0 1-.117-.42 3.385 3.385 0 0 1 .156.4l.41 1.212c.362 1.085.87 2.658 1.534 4.662 1.319 4.046 3.186 9.92 5.473 17.191 4.574 14.533 10.75 34.656 17.435 56.909s12.813 42.406 17.3 56.968" class="prefix__cls-2" data-name="Path 575" transform="translate(-44.183 -49.084)"/>
            <path id="prefix__Path_576" d="M55.49 355.62a4.27 4.27 0 0 1 .9.43c.567.3 1.368.762 2.355 1.339 1.955 1.163 4.662 2.834 7.594 4.74l7.476 4.887 2.267 1.476a4.389 4.389 0 0 1 .811.586 4.576 4.576 0 0 1-.909-.43c-.567-.3-1.368-.762-2.355-1.349-1.955-1.183-4.623-2.932-7.545-4.789l-7.506-4.887-2.287-1.466a4.059 4.059 0 0 1-.8-.538z" class="prefix__cls-2" data-name="Path 576" transform="translate(-44.097 -50.101)"/>
            <path id="prefix__Path_577" d="M78.5 368.106c-.117-.059 3.088-5.756 7.154-12.705s7.457-12.539 7.564-12.471-3.088 5.756-7.154 12.705-7.457 12.539-7.564 12.471z" class="prefix__cls-2" data-name="Path 577" transform="translate(-44.619 -49.813)"/>
            <path id="prefix__Path_578" d="M87.47 403.711a4.665 4.665 0 0 1 .694-.743l2.013-1.906c1.681-1.613 4.007-3.841 6.489-6.4s4.662-4.935 6.216-6.665c.733-.811 1.349-1.5 1.847-2.062a5 5 0 0 1 .723-.713 3.792 3.792 0 0 1-.577.831c-.4.528-.977 1.261-1.74 2.16-1.5 1.8-3.636 4.222-6.128 6.783s-4.887 4.76-6.607 6.313c-.88.772-1.6 1.388-2.111 1.8a4.212 4.212 0 0 1-.821.606z" class="prefix__cls-2" data-name="Path 578" transform="translate(-44.822 -50.773)"/>
            <path id="prefix__Path_579" d="M64.06 396.9a3.508 3.508 0 0 1 .919.176l2.473.655c2.082.567 4.955 1.388 8.112 2.316s6.03 1.837 8.073 2.463c.977.322 1.857.6 2.434.792a3.665 3.665 0 0 1 .87.352 3.538 3.538 0 0 1-.977-.176c-.586-.147-1.427-.362-2.473-.655-2.082-.567-4.945-1.388-8.112-2.316s-6.01-1.808-8.063-2.463c-1.036-.322-1.867-.6-2.434-.792a3.431 3.431 0 0 1-.822-.352z" class="prefix__cls-2" data-name="Path 579" transform="translate(-44.291 -51.037)"/>
            <path id="prefix__Path_580" d="M68 429.2a6.6 6.6 0 0 1 1.183.235l3.176.831c2.668.713 6.353 1.74 10.408 2.932s7.731 2.238 10.379 3.03l3.137.977a5.933 5.933 0 0 1 1.124.411 4.992 4.992 0 0 1-1.173-.235l-3.176-.831c-2.668-.713-6.353-1.74-10.418-2.932s-7.731-2.228-10.379-3.03l-3.127-.977A6.241 6.241 0 0 1 68 429.2z" class="prefix__cls-2" data-name="Path 580" transform="translate(-44.381 -51.77)"/>
            <path id="prefix__Path_581" d="M97.43 436.81a6.3 6.3 0 0 1 .86-.977l2.463-2.5c2.062-2.121 4.887-5.053 7.975-8.385s5.756-6.4 7.7-8.639l2.3-2.649a6.355 6.355 0 0 1 .889-.977 7.815 7.815 0 0 1-.753 1.055c-.5.655-1.241 1.593-2.179 2.746-1.876 2.3-4.535 5.414-7.6 8.747s-5.962 6.235-8.092 8.3c-1.075 1.026-1.955 1.847-2.561 2.4a7.076 7.076 0 0 1-1 .88z" class="prefix__cls-2" data-name="Path 581" transform="translate(-45.048 -51.395)"/>
            <path id="prefix__Path_582" d="M497.1 84.1l-39.647-20.47a7.017 7.017 0 0 1-7.818 2.248L428.3 107.189a7.027 7.027 0 0 1 3.44 6.421l14.757 7.623a6.988 6.988 0 0 1 10.594 5.463l15.041 7.76a7 7 0 0 1 6.245-3.44l20.6-39.923a6.988 6.988 0 0 1-1.876-7z" class="prefix__cls-2" data-name="Path 582" transform="translate(-52.553 -43.478)"/>
            <rect id="prefix__Rectangle_214" width="47.605" height="47.605" class="prefix__cls-3" data-name="Rectangle 214" rx="2.68" transform="rotate(27.3 153.095 838.075)"/>
            <path id="prefix__Path_583" d="M473.212 130.278a3.518 3.518 0 0 1-1.622-.391l-11.083-5.727a.479.479 0 0 1-.215-.655.5.5 0 0 1 .665-.215l11.073 5.727a2.619 2.619 0 0 0 1.955.166 2.57 2.57 0 0 0 1.505-1.28l19.077-36.845a2.58 2.58 0 0 0-1.1-3.479l-36.898-19.018a2.58 2.58 0 0 0-3.469 1.1l-19.029 36.859a2.59 2.59 0 0 0 1.114 3.469l11.728 6.059a.49.49 0 1 1-.45.87l-11.728-6.059a3.557 3.557 0 0 1-1.525-4.789l19.019-36.855a3.557 3.557 0 0 1 4.789-1.525l36.855 19.019a3.6 3.6 0 0 1 1.759 2.082 3.548 3.548 0 0 1-.235 2.717l-19.019 36.845a3.538 3.538 0 0 1-2.082 1.759 3.441 3.441 0 0 1-1.084.166z" class="prefix__cls-1" data-name="Path 583" transform="translate(-52.656 -43.561)"/>
            <path id="prefix__Path_584" d="M452.688 93.171a4.525 4.525 0 0 1 6.294-1.955 4.4 4.4 0 0 1 2.326 2.707l-.821.264a3.548 3.548 0 0 0-1.867-2.17 3.733 3.733 0 1 0-3.421 6.626 3.509 3.509 0 0 0 2.854.254l.264.821a4.4 4.4 0 0 1-3.548-.342 4.525 4.525 0 0 1-2.082-6.206z" class="prefix__cls-2" data-name="Path 584" transform="translate(-53.095 -44.09)"/>
            <path id="prefix__Path_585" d="M468.692 99.861c-.88 1.7-2.649 2.091-4.681 1.046l-2.15-1.114-1.3 2.531-.841-.44 4.124-7.994 2.991 1.505c2.033 1.056 2.736 2.717 1.857 4.466zm-.85-.43c.665-1.28.2-2.453-1.407-3.274l-2.121-1.183-2.062 4.007 2.121 1.095c1.6.86 2.824.567 3.44-.684z" class="prefix__cls-2" data-name="Path 585" transform="translate(-53.266 -44.164)"/>
            <path id="prefix__Path_586" d="M469.766 102.694l2.365-4.584.841.44-2.346 4.545c-.977 1.9-.537 3.225.977 4.027s2.932.4 3.909-1.5l2.355-4.545.821.42-2.365 4.584c-1.183 2.3-3.03 2.844-5.082 1.788s-2.658-2.879-1.475-5.175z" class="prefix__cls-2" data-name="Path 586" transform="translate(-53.48 -44.26)"/>
            <path id="prefix__Path_587" d="M688.335 139.956l1.749 31.079-8.464 13.673-8.288 106.2-11.073-.645 9.529-104.749-5.453-15.914 6.079-30.688z" class="prefix__cls-1" data-name="Path 587" transform="translate(-57.86 -45.185)"/>
            <path id="prefix__Path_588" d="M688.834 298.765l-.713 10.878s-4.408 1.486-4.535 5.551 3.616 6.841 3.616 6.841l-9.587 107.857a19.478 19.478 0 0 1-21.384 17.66l-5.756-.586a19.478 19.478 0 0 1-17.426-20.993l8.962-107.71s4.554-2.219 3.8-6.89-3.46-5.913-3.46-5.913l1.1-10.32a7.252 7.252 0 0 1 7.77-6.47l30.932 2.395a7.252 7.252 0 0 1 6.681 7.7z" class="prefix__cls-2" data-name="Path 588" transform="translate(-57.196 -48.582)"/>
            <path id="prefix__Path_589" d="M666.15 431.505l8.337-100.253a3.684 3.684 0 0 1 3.968-3.352 3.675 3.675 0 0 1 3.352 3.968l-8.347 100.253a3.675 3.675 0 0 1-3.909 3.352 3.665 3.665 0 0 1-3.4-3.968z" class="prefix__cls-3" data-name="Path 589" transform="translate(-57.948 -49.472)"/>
            <path id="prefix__Path_590" d="M652.61 430.385l8.346-100.253a3.665 3.665 0 0 1 3.958-3.352 3.655 3.655 0 0 1 3.352 3.958l-8.336 100.253a3.675 3.675 0 0 1-3.968 3.352 3.675 3.675 0 0 1-3.352-3.958z" class="prefix__cls-3" data-name="Path 590" transform="translate(-57.641 -49.447)"/>
            <path id="prefix__Path_591" d="M638.1 429.175l8.346-100.253a3.665 3.665 0 0 1 3.958-3.352 3.655 3.655 0 0 1 3.352 3.958l-8.336 100.253a3.675 3.675 0 0 1-3.968 3.352 3.665 3.665 0 0 1-3.352-3.958z" class="prefix__cls-3" data-name="Path 591" transform="translate(-57.312 -49.419)"/>
            <path id="prefix__Path_592" d="M688.339 310c0 .137-10.262-.7-22.889-1.876s-22.85-2.248-22.83-2.385 10.252.7 22.879 1.876 22.85 2.285 22.84 2.385z" class="prefix__cls-1" data-name="Path 592" transform="translate(-57.415 -48.969)"/>
            <path id="prefix__Path_593" d="M687.392 322.768c0 .147-10.135-.625-22.605-1.71s-22.576-2.082-22.566-2.228 10.135.635 22.615 1.72 22.575 2.081 22.556 2.218z" class="prefix__cls-1" data-name="Path 593" transform="translate(-57.406 -49.266)"/>
            <path id="prefix__Path_594" d="M648.143 318.365a17.59 17.59 0 0 1 .586-1.71 12.774 12.774 0 0 0-.235-8.473 14.859 14.859 0 0 1-.674-1.681 4.4 4.4 0 0 1 .977 1.544 11.1 11.1 0 0 1 .244 8.727 4.222 4.222 0 0 1-.898 1.593z" class="prefix__cls-1" data-name="Path 594" transform="translate(-57.533 -48.987)"/>
            <path id="prefix__Path_595" d="M652.779 318.22c-.147 0 .342-2.414.518-5.385s0-5.395.176-5.4a21.8 21.8 0 0 1-.694 10.75z" class="prefix__cls-1" data-name="Path 595" transform="translate(-57.645 -49.008)"/>
            <path id="prefix__Path_596" d="M656.79 318.931a31.382 31.382 0 0 1 .313-5.6 30.393 30.393 0 0 1 .821-5.541 31.366 31.366 0 0 1-.313 5.6 30.387 30.387 0 0 1-.821 5.541z" class="prefix__cls-1" data-name="Path 596" transform="translate(-57.736 -49.016)"/>
            <path id="prefix__Path_597" d="M662.268 319.177a38.8 38.8 0 0 1 .772-10.907 38.213 38.213 0 0 1-.264 5.463 40.774 40.774 0 0 1-.508 5.444z" class="prefix__cls-1" data-name="Path 597" transform="translate(-57.858 -49.027)"/>
            <path id="prefix__Path_598" d="M666.906 319.118a10.341 10.341 0 0 1-.469-5.121 10.459 10.459 0 0 1 1.573-4.887 48.177 48.177 0 0 0-1.075 4.955 44.581 44.581 0 0 0-.029 5.053z" class="prefix__cls-1" data-name="Path 598" transform="translate(-57.952 -49.046)"/>
            <path id="prefix__Path_599" d="M672.881 320.63a11.535 11.535 0 0 1-.733-5.688 11.669 11.669 0 0 1 1.622-5.512 37.2 37.2 0 0 0-1.114 5.551 40.292 40.292 0 0 0 .225 5.649z" class="prefix__cls-1" data-name="Path 599" transform="translate(-58.083 -49.053)"/>
            <path id="prefix__Path_600" d="M677.586 318.8a8.864 8.864 0 0 1 1.368-8.8 23.387 23.387 0 0 0-1.349 4.271 23.117 23.117 0 0 0-.019 4.529z" class="prefix__cls-1" data-name="Path 600" transform="translate(-58.194 -49.066)"/>
            <path id="prefix__Path_601" d="M683.68 322.367a4.085 4.085 0 0 1-1.222-1.437 9.216 9.216 0 0 1-.43-8.8 3.91 3.91 0 0 1 1.075-1.544c.068.049-.332.645-.743 1.691a10.1 10.1 0 0 0 .41 8.493 17.945 17.945 0 0 1 .91 1.597z" class="prefix__cls-1" data-name="Path 601" transform="translate(-58.288 -49.08)"/>
            <path id="prefix__Path_602" d="M177.154 69.075l9.275-.538 16.927-25.527 44.585 29.574-44.829 67.591-50.342-33.385 14.552-21.931 5.747 3.812 6.392-9.636-6.2-4.1z" class="prefix__cls-1" data-name="Path 602" transform="translate(-46.303 -43.01)"/>
            <path id="prefix__Path_603" d="M204.669 127.225c-.068.117-8.356-5.238-18.491-11.962S167.892 103 168 102.88s8.356 5.238 18.491 11.962 18.256 12.266 18.178 12.383z" class="prefix__cls-2" data-name="Path 603" transform="translate(-46.649 -44.368)"/>
            <path id="prefix__Path_604" d="M187.14 94.807l2.17-1.368a7.819 7.819 0 0 0 2.932 3.606c1.525.977 2.492.919 2.932.235 1.388-2.091-6.059-4.965-3.3-9.109 1.261-1.9 3.841-2.463 7.017-.362a9.06 9.06 0 0 1 3.215 3.567L200 92.8a7.7 7.7 0 0 0-2.512-2.932c-1.534-.977-2.5-.831-2.932-.127-1.358 2.062 6.079 4.945 3.352 9.05-1.241 1.867-3.841 2.434-7.037.313a9.538 9.538 0 0 1-3.731-4.297z" class="prefix__cls-2" data-name="Path 604" transform="translate(-47.083 -43.996)"/>
            <path id="prefix__Path_605" d="M205.108 92.16l5.072 3.362c3.655 2.424 4.7 6.284 2.463 9.666s-6.216 3.909-9.871 1.505l-5.072-3.372zm-1.056 12.324c2.219 1.476 4.554 1.114 5.971-.977s.84-4.427-1.378-5.864l-2.355-1.573-4.59 6.93z" class="prefix__cls-2" data-name="Path 605" transform="translate(-47.323 -44.125)"/>
            <g id="prefix__Group_74" class="prefix__cls-4" data-name="Group 74" transform="translate(148.206 7.01)">
                <path id="prefix__Rectangle_215" d="M0 0H2.678V17.377H0z" class="prefix__cls-5" data-name="Rectangle 215" transform="rotate(33.56 4.803 15.928)"/>
            </g>
            <g id="prefix__Group_75" class="prefix__cls-4" data-name="Group 75" transform="translate(152.105 9.594)">
                <path id="prefix__Rectangle_216" d="M0 0H2.678V17.377H0z" class="prefix__cls-5" data-name="Rectangle 216" transform="rotate(33.56 4.803 15.928)"/>
            </g>
            <g id="prefix__Group_76" class="prefix__cls-4" data-name="Group 76" transform="translate(156.01 12.18)">
                <path id="prefix__Rectangle_217" d="M0 0H2.678V17.377H0z" class="prefix__cls-5" data-name="Rectangle 217" transform="rotate(33.56 4.803 15.928)"/>
            </g>
            <g id="prefix__Group_77" class="prefix__cls-4" data-name="Group 77" transform="translate(159.9 14.774)">
                <path id="prefix__Rectangle_218" d="M0 0H2.678V17.377H0z" class="prefix__cls-5" data-name="Rectangle 218" transform="rotate(33.56 4.803 15.928)"/>
            </g>
            <g id="prefix__Group_78" class="prefix__cls-4" data-name="Group 78" transform="translate(163.799 17.358)">
                <path id="prefix__Rectangle_219" d="M0 0H2.678V17.377H0z" class="prefix__cls-5" data-name="Rectangle 219" transform="rotate(33.56 4.803 15.928)"/>
            </g>
            <g id="prefix__Group_79" class="prefix__cls-4" data-name="Group 79" transform="translate(167.704 19.944)">
                <path id="prefix__Rectangle_220" d="M0 0H2.678V17.377H0z" class="prefix__cls-5" data-name="Rectangle 220" transform="rotate(33.56 4.803 15.928)"/>
            </g>
            <g id="prefix__Group_80" class="prefix__cls-4" data-name="Group 80" transform="translate(171.604 22.528)">
                <path id="prefix__Rectangle_221" d="M0 0H2.678V17.377H0z" class="prefix__cls-5" data-name="Rectangle 221" transform="rotate(33.56 4.803 15.928)"/>
            </g>
            <g id="prefix__Group_81" class="prefix__cls-4" data-name="Group 81" transform="translate(175.499 25.113)">
                <path id="prefix__Rectangle_222" d="M0 0H2.678V17.377H0z" class="prefix__cls-5" data-name="Rectangle 222" transform="rotate(33.56 4.803 15.928)"/>
            </g>
            <g id="prefix__Group_82" class="prefix__cls-4" data-name="Group 82" transform="translate(179.398 27.697)">
                <path id="prefix__Rectangle_223" d="M0 0H2.678V17.377H0z" class="prefix__cls-5" data-name="Rectangle 223" transform="rotate(33.56 4.803 15.928)"/>
            </g>
            <g id="prefix__Group_83" class="prefix__cls-4" data-name="Group 83" transform="translate(183.298 30.291)">
                <path id="prefix__Rectangle_224" d="M0 0H2.678V17.377H0z" class="prefix__cls-5" data-name="Rectangle 224" transform="rotate(33.56 4.803 15.928)"/>
            </g>
        </g>
        <g id="prefix__Floor--inject-80" transform="translate(35.697 442.195)">
            <path id="prefix__Path_606" d="M698.888 451.714c0 .147-148.474.254-331.564.254s-331.6-.108-331.6-.254 148.435-.254 331.6-.254 331.564.117 331.564.254z" class="prefix__cls-6" data-name="Path 606" transform="translate(-35.72 -451.46)"/>
        </g>
        <g id="prefix__Device--inject-80" transform="translate(97.93 95.189)">
            <path id="prefix__Path_607" d="M619 96.478L501.032 96.4a25.7 25.7 0 0 0-25.713 25.7l-.059 295.765a25.7 25.7 0 0 0 25.684 25.7l117.972.068a25.694 25.694 0 0 0 25.713-25.694l.059-295.765A25.684 25.684 0 0 0 619 96.478zm-59.118 52.834a2.091 2.091 0 1 1 1.489-.612 2.1 2.1 0 0 1-1.489.612zm.088-8.464a8.542 8.542 0 1 1 8.542-8.532 8.542 8.542 0 0 1-8.538 8.532z" class="prefix__cls-6" data-name="Path 607" transform="translate(-107.923 -96.4)"/>
            <path id="prefix__Path_608" d="M568.316 168.232c0 2.815 0 5.092-.088 5.092s-.088-2.277-.088-5.092 0-5.092.088-5.092.088 2.287.088 5.092z" data-name="Path 608" transform="translate(-110.03 -97.914)"/>
            <path id="prefix__Path_609" d="M619.068 108H501.321a17.983 17.983 0 0 0-18 17.992l-.059 288.69a18 18 0 0 0 17.983 18l117.747.068a17.992 17.992 0 0 0 18-17.992l.059-288.689A17.992 17.992 0 0 0 619.068 108zm-59 41.595a2.085 2.085 0 1 0 0-.02zm.088-8.464a8.522 8.522 0 1 0 0-.02z" class="prefix__cls-7" data-name="Path 609" transform="translate(-108.104 -96.663)"/>
            <path id="prefix__Path_610" d="M632.18 397.934H488.26V192.57h143.92zm-142.942-.977H631.2v-203.41H489.237z" class="prefix__cls-6" data-name="Path 610" transform="translate(-108.218 -98.581)"/>
            <path id="prefix__Path_611" d="M620.595 429.717h1.134l.85-.147a11.41 11.41 0 0 0 2.326-.694 12.363 12.363 0 0 0 2.824-1.749 11.053 11.053 0 0 0 3.909-8.082c0-3.655-.059-7.867-.088-12.568l.147.147-131.762.108h-11.18l.254-.254c0 2.629 0 5.238.049 7.819v3.903a12.2 12.2 0 0 0 .5 3.724 11.161 11.161 0 0 0 4.369 5.864 11.543 11.543 0 0 0 6.988 1.661h28.342l47.722.059 31.948.078 8.649.049h-8.649l-31.948.078-47.722.059h-28.344a12.03 12.03 0 0 1-7.232-1.955 11.62 11.62 0 0 1-4.574-6.089 12.619 12.619 0 0 1-.528-3.86v-3.909q0-3.909-.049-7.819v-.254h11.435l131.761.114h.147v.147c0 4.7.059 8.9 0 12.568a11.187 11.187 0 0 1-9.275 10.614l-.86.117h-.625z" class="prefix__cls-6" data-name="Path 611" transform="translate(-108.224 -103.42)"/>
            <path id="prefix__Path_612" fill="none" d="M619.545 113.8H500.918a12.158 12.158 0 0 0-12.158 12.158V185l142.923-.479v-58.563a12.158 12.158 0 0 0-12.138-12.158zm-46.413 26.72c-1.1 4.075-3.342 8.874-6.841 14.943-.831 1.476-2.59 4.613-4.691 4.574s-3.851-2.561-5.17-4.261c-3.235-4.144-6.216-8.581-7.907-13.565a25.577 25.577 0 0 1 .469-16.321c1.486-3.909 5.571-8.053 12.48-8.053 12.549-.001 13.038 17.663 11.66 22.683z" data-name="Path 612" transform="translate(-108.229 -96.795)"/>
            <path id="prefix__Path_613" d="M574.489 140.605s.078-.371.186-1.075a25.024 25.024 0 0 0 .234-3.108 32.388 32.388 0 0 0-.3-4.887 24.327 24.327 0 0 0-1.7-6.265 12.021 12.021 0 0 0-4.965-5.864 12.155 12.155 0 0 0-8.727-.772 12.706 12.706 0 0 0-4.369 2.023 12.188 12.188 0 0 0-3.372 3.714 17.156 17.156 0 0 0-1.779 4.887 26.688 26.688 0 0 0-.616 5.395 24.141 24.141 0 0 0 .5 5.4 24.889 24.889 0 0 0 1.71 4.994 48.541 48.541 0 0 0 5.15 8.591c.977 1.29 1.955 2.541 2.844 3.724a6.332 6.332 0 0 0 3.352 2.521 2.433 2.433 0 0 0 1.837-.469 6.922 6.922 0 0 0 1.4-1.378 23.567 23.567 0 0 0 2.023-3.2 89.508 89.508 0 0 0 5.151-10.272c.518-1.251.87-2.248 1.095-2.932l.254-.772a1.333 1.333 0 0 1 .1-.264 1.148 1.148 0 0 1-.049.274 4.1 4.1 0 0 1-.205.792c-.2.684-.518 1.7-.977 2.932a82.727 82.727 0 0 1-5.023 10.369 23.7 23.7 0 0 1-2.023 3.264 7.045 7.045 0 0 1-1.485 1.466 2.815 2.815 0 0 1-2.131.547 6.684 6.684 0 0 1-3.626-2.649c-.977-1.2-1.955-2.434-2.873-3.733a47.737 47.737 0 0 1-5.239-8.659 25.227 25.227 0 0 1-1.74-5.092 24.08 24.08 0 0 1-.518-5.512 26.959 26.959 0 0 1 .625-5.5 21.657 21.657 0 0 1 .743-2.619 12.23 12.23 0 0 1 1.1-2.443 12.823 12.823 0 0 1 3.518-3.909 13.518 13.518 0 0 1 4.535-2.082 12.578 12.578 0 0 1 9.05.86 12.382 12.382 0 0 1 5.088 6.098 24.292 24.292 0 0 1 1.652 6.372 30.487 30.487 0 0 1 .215 4.965 20.455 20.455 0 0 1-.332 3.127c-.078.352-.137.616-.186.792a1.328 1.328 0 0 1-.127.352z" class="prefix__cls-6" data-name="Path 613" transform="translate(-109.586 -96.88)"/>
            <path id="prefix__Path_614" d="M619.539 113.794s.469 0 1.388.059a12.285 12.285 0 0 1 3.909 1.095 12.5 12.5 0 0 1 2.531 1.593 13.5 13.5 0 0 1 2.414 2.678 12.109 12.109 0 0 1 1.681 3.851 18.8 18.8 0 0 1 .362 4.76c0 13.467 0 32.877.088 56.684v.2h-.235l-130.96.5H488.54V126a12.4 12.4 0 0 1 11.327-12.422c23.632-.088 44.771 0 62.548 0l41.888.078h11.347l-11.347.049-41.888.078-62.47.107a11.933 11.933 0 0 0-10.955 12.15v58.952l-.254-.254h11.923l131.019-.381-.2.205c0-23.807.059-43.217.078-56.684a18.318 18.318 0 0 0-.332-4.711 11.862 11.862 0 0 0-1.632-3.8 12.7 12.7 0 0 0-2.365-2.658 12.058 12.058 0 0 0-2.482-1.6 12.617 12.617 0 0 0-3.851-1.143c-.45-.059-.8-.059-.977-.078z" class="prefix__cls-6" data-name="Path 614" transform="translate(-108.224 -96.789)"/>
            <rect id="prefix__Rectangle_225" width="146.617" height="182.397" class="prefix__cls-6" data-name="Rectangle 225" rx="5.17" transform="translate(355.033 163.652)"/>
            <path id="prefix__Path_615" d="M609.28 279.324c0 .137-32.887.254-73.445.254s-73.455-.117-73.455-.254 32.887-.254 73.455-.254 73.445.107 73.445.254z" class="prefix__cls-7" data-name="Path 615" transform="translate(-107.631 -100.544)"/>
            <path id="prefix__Path_616" d="M504.653 278.779a52.242 52.242 0 0 1-.254-7.349 52.325 52.325 0 0 1 .254-7.359 54.167 54.167 0 0 1 .254 7.359 54.083 54.083 0 0 1-.254 7.349z" class="prefix__cls-7" data-name="Path 616" transform="translate(-108.583 -100.203)"/>
            <path id="prefix__Path_617" d="M561.413 279a50.932 50.932 0 0 1-.254-7.134 50.748 50.748 0 0 1 .254-7.125 49.032 49.032 0 0 1 .254 7.125 49.226 49.226 0 0 1-.254 7.134z" class="prefix__cls-7" data-name="Path 617" transform="translate(-109.871 -100.219)"/>
            <path id="prefix__Rectangle_226" d="M0 0H3.792V11.943H0z" class="prefix__cls-2" data-name="Rectangle 226" transform="translate(468.216 163.652)"/>
            <path id="prefix__Rectangle_227" d="M0 0H3.792V11.943H0z" class="prefix__cls-2" data-name="Rectangle 227" transform="translate(474.109 163.652)"/>
            <path id="prefix__Rectangle_228" d="M0 0H3.792V11.943H0z" class="prefix__cls-2" data-name="Rectangle 228" transform="translate(479.963 163.652)"/>
            <path id="prefix__Path_618" d="M546.526 330.3l-18.276 27.99h11.874l-8.053 24.521 22.987-31.792h-12.246z" class="prefix__cls-2" data-name="Path 618" transform="translate(-109.125 -101.706)"/>
            <path id="prefix__Path_619" d="M541 399.134a43 43 0 1 1 43-43 43 43 0 0 1-43 43zm0-84.958a42.025 42.025 0 1 0 42.027 42.024A42.025 42.025 0 0 0 541 314.176z" class="prefix__cls-2" data-name="Path 619" transform="translate(-108.439 -101.316)"/>
            <path id="prefix__Path_620" d="M493.979 119.74h-22.87a5.678 5.678 0 0 0-5.561 5.8v4.154a5.678 5.678 0 0 1-5.548 5.8h-44.588a5.678 5.678 0 0 1-5.551-5.805v-4.154a5.688 5.688 0 0 0-5.561-5.805h-28.059a18 18 0 0 0-18.012 17.992v52.844l12.207 12.634v74.032H358.2v149.18a18 18 0 0 0 17.992 18l117.737.068a17.983 17.983 0 0 0 18.012-17.992L512 137.8a18 18 0 0 0-18.022-18.061zm-120.21 9.92a3.3 3.3 0 1 1-.029 0zm-2.746 62.451a2.069 2.069 0 1 0-.029 0zm9.558 235.789a3.135 3.135 0 1 0-.029 0zm68.412-257.77h-23.378v-23.338h23.338zm47.791 258.891a4.33 4.33 0 1 1-1.329-5.971 4.33 4.33 0 0 1 1.329 5.971zm2.639-262.243a3.154 3.154 0 1 0-.049 0z" class="prefix__cls-9" data-name="Path 620" transform="translate(-105.268 -96.929)"/>
            <path id="prefix__Rectangle_229" d="M0 0H2.629V6.587H0z" class="prefix__cls-3" data-name="Rectangle 229" transform="translate(324.257 38.536)"/>
            <path id="prefix__Rectangle_230" d="M0 0H2.629V6.587H0z" class="prefix__cls-3" data-name="Rectangle 230" transform="translate(330.678 38.536)"/>
            <path id="prefix__Rectangle_231" d="M0 0H2.629V6.587H0z" class="prefix__cls-3" data-name="Rectangle 231" transform="translate(337.099 38.536)"/>
            <g id="prefix__Group_84" class="prefix__cls-10" data-name="Group 84" transform="translate(276.632 22.742)">
                <path id="prefix__Rectangle_232" d="M0 0H18.462V44.009H0z" data-name="Rectangle 232"/>
            </g>
            <g id="prefix__Group_85" class="prefix__cls-10" data-name="Group 85" transform="translate(356.782 55.873)">
                <path id="prefix__Rectangle_233" d="M0 0H31.088V46.247H0z" data-name="Rectangle 233"/>
            </g>
            <g id="prefix__Group_86" class="prefix__cls-10" data-name="Group 86" transform="translate(337.617 133.628)">
                <path id="prefix__Rectangle_234" d="M0 0H12.138V12.138H0z" data-name="Rectangle 234"/>
            </g>
            <g id="prefix__Group_87" class="prefix__cls-10" data-name="Group 87" transform="translate(293.09 114.434)">
                <path id="prefix__Rectangle_235" d="M0 0H8.131V8.131H0z" data-name="Rectangle 235"/>
            </g>
            <g id="prefix__Group_88" class="prefix__cls-10" data-name="Group 88" transform="translate(293.09 102.775)">
                <path id="prefix__Rectangle_236" d="M0 0H8.131V8.131H0z" data-name="Rectangle 236"/>
            </g>
            <g id="prefix__Group_89" class="prefix__cls-10" data-name="Group 89" transform="translate(288.859 91.115)">
                <path id="prefix__Rectangle_237" d="M0 0H16.585V8.131H0z" data-name="Rectangle 237"/>
            </g>
            <g id="prefix__Group_90" class="prefix__cls-10" data-name="Group 90" transform="translate(302.678 126.318)">
                <path id="prefix__Rectangle_238" d="M0 0H17.67V34.274H0z" data-name="Rectangle 238"/>
            </g>
            <g id="prefix__Group_91" class="prefix__cls-11" data-name="Group 91" transform="translate(349.755 102.12)">
                <path id="prefix__Path_621" d="M464.3 200.89l17.983 24.2v17.14H457.27v2.306h22.576v115.442h15.539V200.89z" data-name="Path 621" transform="translate(-457.27 -200.89)"/>
            </g>
            <g id="prefix__Group_92" class="prefix__cls-11" data-name="Group 92" transform="translate(288.859 84.039)">
                <path id="prefix__Path_622" d="M394.96 189.466l23.485-7.076 14.738 5.092v41.751l-6.734 11.923V191.5l-8.835-5.072-6.069 3.039z" data-name="Path 622" transform="translate(-394.96 -182.39)"/>
            </g>
            <path id="prefix__Rectangle_239" d="M0 0H21.608V2.785H0z" class="prefix__cls-3" data-name="Rectangle 239" transform="translate(372.37 282.532)"/>
            <path id="prefix__Rectangle_240" d="M0 0H21.608V2.785H0z" class="prefix__cls-3" data-name="Rectangle 240" transform="translate(372.37 289.207)"/>
            <g id="prefix__Group_93" class="prefix__cls-10" data-name="Group 93" transform="translate(283.278 251.073)">
                <path id="prefix__Rectangle_241" d="M0 0H41.673V60.427H0z" data-name="Rectangle 241"/>
            </g>
            <path id="prefix__Path_623" d="M395.254 351.1c.147 0 .254.43.254.977s-.108.977-.254.977-.254-.43-.254-.977.117-.977.254-.977z" class="prefix__cls-5" data-name="Path 623" transform="translate(-106.102 -102.177)"/>
            <path id="prefix__Path_624" d="M403.4 351.1c.147 0 .254.43.254.977s-.108.977-.254.977-.254-.43-.254-.977.121-.977.254-.977z" class="prefix__cls-5" data-name="Path 624" transform="translate(-106.287 -102.177)"/>
            <path id="prefix__Path_625" d="M411.564 351.1c.137 0 .254.43.254.977s-.117.977-.254.977-.264-.43-.264-.977.117-.977.264-.977z" class="prefix__cls-5" data-name="Path 625" transform="translate(-106.472 -102.177)"/>
            <path id="prefix__Path_626" d="M419.714 351.1c.137 0 .254.43.254.977s-.117.977-.254.977-.254-.43-.254-.977.108-.977.254-.977z" class="prefix__cls-5" data-name="Path 626" transform="translate(-106.657 -102.177)"/>
            <path id="prefix__Path_627" d="M427.864 351.1c.137 0 .254.43.254.977s-.117.977-.254.977-.254-.43-.254-.977.108-.977.254-.977z" class="prefix__cls-5" data-name="Path 627" transform="translate(-106.842 -102.177)"/>
            <path id="prefix__Path_628" d="M395.254 415.39c.147 0 .254.43.254.977s-.108.977-.254.977-.254-.44-.254-.977.117-.977.254-.977z" class="prefix__cls-5" data-name="Path 628" transform="translate(-106.102 -103.636)"/>
            <path id="prefix__Path_629" d="M403.4 415.39c.147 0 .254.43.254.977s-.108.977-.254.977-.254-.44-.254-.977.121-.977.254-.977z" class="prefix__cls-5" data-name="Path 629" transform="translate(-106.287 -103.636)"/>
            <path id="prefix__Path_630" d="M411.564 415.39c.137 0 .254.43.254.977s-.117.977-.254.977-.264-.44-.264-.977.117-.977.264-.977z" class="prefix__cls-5" data-name="Path 630" transform="translate(-106.472 -103.636)"/>
            <path id="prefix__Path_631" d="M419.714 415.39c.137 0 .254.43.254.977s-.117.977-.254.977-.254-.44-.254-.977.108-.977.254-.977z" class="prefix__cls-5" data-name="Path 631" transform="translate(-106.657 -103.636)"/>
            <path id="prefix__Path_632" d="M427.864 415.39c.137 0 .254.43.254.977s-.117.977-.254.977-.254-.44-.254-.977.108-.977.254-.977z" class="prefix__cls-5" data-name="Path 632" transform="translate(-106.842 -103.636)"/>
            <g id="prefix__Group_94" class="prefix__cls-10" data-name="Group 94" transform="translate(330.209 237.204)">
                <path id="prefix__Rectangle_242" d="M0 0H15.979V23.172H0z" data-name="Rectangle 242"/>
            </g>
            <path id="prefix__Path_633" d="M439.564 338.26c.147 0 .254.166.254.371s-.107.371-.254.371-.254-.166-.254-.371.117-.371.254-.371z" class="prefix__cls-5" data-name="Path 633" transform="translate(-107.107 -101.886)"/>
            <path id="prefix__Path_634" d="M442.694 338.26c.137 0 .254.166.254.371s-.117.371-.254.371-.254-.166-.254-.371.107-.371.254-.371z" class="prefix__cls-5" data-name="Path 634" transform="translate(-107.178 -101.886)"/>
            <path id="prefix__Path_635" d="M445.814 338.26c.147 0 .254.166.254.371s-.108.371-.254.371-.254-.166-.254-.371.117-.371.254-.371z" class="prefix__cls-5" data-name="Path 635" transform="translate(-107.249 -101.886)"/>
            <path id="prefix__Path_636" d="M448.994 338.26c.137 0 .254.166.254.371s-.117.371-.254.371-.254-.166-.254-.371.06-.371.254-.371z" class="prefix__cls-5" data-name="Path 636" transform="translate(-107.321 -101.886)"/>
            <path id="prefix__Path_637" d="M452.064 338.26c.147 0 .254.166.254.371s-.107.371-.254.371-.254-.166-.254-.371.117-.371.254-.371z" class="prefix__cls-5" data-name="Path 637" transform="translate(-107.391 -101.886)"/>
            <path id="prefix__Path_638" d="M439.564 362.91c.147 0 .254.166.254.371s-.107.371-.254.371-.254-.166-.254-.371.117-.371.254-.371z" class="prefix__cls-5" data-name="Path 638" transform="translate(-107.107 -102.445)"/>
            <path id="prefix__Path_639" d="M442.694 362.91c.137 0 .254.166.254.371s-.117.371-.254.371-.254-.166-.254-.371.107-.371.254-.371z" class="prefix__cls-5" data-name="Path 639" transform="translate(-107.178 -102.445)"/>
            <path id="prefix__Path_640" d="M445.814 362.91c.147 0 .254.166.254.371s-.108.371-.254.371-.254-.166-.254-.371.117-.371.254-.371z" class="prefix__cls-5" data-name="Path 640" transform="translate(-107.249 -102.445)"/>
            <path id="prefix__Path_641" d="M448.994 362.91c.137 0 .254.166.254.371s-.117.371-.254.371-.254-.166-.254-.371.06-.371.254-.371z" class="prefix__cls-5" data-name="Path 641" transform="translate(-107.321 -102.445)"/>
            <path id="prefix__Path_642" d="M452.064 362.91c.147 0 .254.166.254.371s-.107.371-.254.371-.254-.166-.254-.371.117-.371.254-.371z" class="prefix__cls-5" data-name="Path 642" transform="translate(-107.391 -102.445)"/>
            <path id="prefix__Path_643" d="M358.2 340.89h64.474v3.03H358.18z" class="prefix__cls-3" data-name="Path 643" transform="translate(-105.267 -101.946)"/>
            <path id="prefix__Path_644" d="M447.87 225.615a1.515 1.515 0 1 1-1.505-1.505 1.515 1.515 0 0 1 1.505 1.505z" class="prefix__cls-3" data-name="Path 644" transform="translate(-107.233 -99.297)"/>
            <path id="prefix__Path_645" d="M438.74 240.845a1.505 1.505 0 1 1-1.505-1.505 1.505 1.505 0 0 1 1.505 1.505z" class="prefix__cls-3" data-name="Path 645" transform="translate(-107.026 -99.642)"/>
            <path id="prefix__Path_646" d="M435.73 251.333a1.505 1.505 0 1 1 .516 1.034 1.505 1.505 0 0 1-.516-1.034z" class="prefix__cls-3" data-name="Path 646" transform="translate(-107.026 -99.878)"/>
            <path id="prefix__Rectangle_243" d="M0 0H18.462V0.899H0z" class="prefix__cls-3" data-name="Rectangle 243" transform="translate(276.632 66.751)"/>
            <path id="prefix__Rectangle_244" d="M0 0H2.541V9.285H0z" class="prefix__cls-3" data-name="Rectangle 244" transform="translate(276.632 39.855)"/>
            <path id="prefix__Rectangle_245" d="M0 0H1.564V63.799H0z" class="prefix__cls-3" data-name="Rectangle 245" transform="translate(289.152 129.182)"/>
            <g id="prefix__Group_95" class="prefix__cls-11" data-name="Group 95" transform="translate(283.278 282.532)">
                <path id="prefix__Path_647" d="M478.342 386.888v17.777L447.6 431.6h-28.571l11.894-17.142H389.25l23.876 21.472h39.034l31.46-28.108 16.321-14.259v-8.073z" data-name="Path 647" transform="translate(-389.25 -385.49)"/>
            </g>
            <path id="prefix__Path_648" d="M345.125 443.941l-117.982-.068a25.694 25.694 0 0 1-25.684-25.7l.059-295.765a25.694 25.694 0 0 1 25.714-25.698l117.982.068A25.7 25.7 0 0 1 370.9 122.4l-.059 295.765a25.7 25.7 0 0 1-25.713 25.772z" class="prefix__cls-7" data-name="Path 648" transform="translate(-101.712 -96.407)"/>
            <path id="prefix__Path_649" d="M345.268 107.44h-22.889a5.688 5.688 0 0 0-5.551 5.805v4.144a5.688 5.688 0 0 1-5.561 5.805h-44.585a5.688 5.688 0 0 1-5.551-5.805v-4.154a5.678 5.678 0 0 0-5.551-5.805h-28.059a18 18 0 0 0-18.012 18l-.059 288.69a18 18 0 0 0 17.992 18l117.737.068a18.012 18.012 0 0 0 18.013-17.988l.049-288.7a18 18 0 0 0-17.973-18.061z" class="prefix__cls-1" data-name="Path 649" transform="translate(-101.893 -96.65)"/>
            <path id="prefix__Path_650" d="M235.479 119.5H212.61a5.678 5.678 0 0 0-5.561 5.8v4.154a5.678 5.678 0 0 1-5.551 5.805h-44.585a5.678 5.678 0 0 1-5.551-5.805V125.3a5.688 5.688 0 0 0-5.551-5.805h-28.069a18 18 0 0 0-18.012 17.987v288.69a17.983 17.983 0 0 0 17.983 18l117.737.068a17.983 17.983 0 0 0 17.983-18.051V137.5a18 18 0 0 0-17.953-18z" class="prefix__cls-5" data-name="Path 650" transform="translate(-99.404 -96.924)"/>
            <path id="prefix__Path_651" d="M235.472 119.494h.616a13.985 13.985 0 0 1 1.828.137 17.142 17.142 0 0 1 6.753 2.336 17.524 17.524 0 0 1 4.1 3.323 18.2 18.2 0 0 1 3.43 5.375 18.774 18.774 0 0 1 1.349 7.31v8.483c0 23.983 0 58.639.059 101.553s0 93.92 0 150.6v26.979a19.7 19.7 0 0 1-.694 5.493 18.129 18.129 0 0 1-2.3 5.072 19.742 19.742 0 0 1-3.753 4.163 18.217 18.217 0 0 1-10.389 4.036c-3.782.107-7.525 0-11.317.049h-106.13a18.98 18.98 0 0 1-11.728-3.245 18.4 18.4 0 0 1-7.144-9.851 19.547 19.547 0 0 1-.743-6.089v-287.5c0-.723.068-1.456.107-2.179a10.748 10.748 0 0 1 .362-2.15 18.432 18.432 0 0 1 3.792-7.623 18.207 18.207 0 0 1 14.66-6.5h26.935a5.766 5.766 0 0 1 3.538.977 5.962 5.962 0 0 1 2.2 2.932 9.617 9.617 0 0 1 .371 3.557v1.749a14.267 14.267 0 0 0 .049 1.72 5.688 5.688 0 0 0 1.349 3.01 5.326 5.326 0 0 0 2.746 1.71 6.441 6.441 0 0 0 1.622.156h44.976a5.287 5.287 0 0 0 2.209-.772 5.707 5.707 0 0 0 2.482-3.577 9.666 9.666 0 0 0 .137-2.189v-2.15a11.605 11.605 0 0 1 .1-2.1 5.942 5.942 0 0 1 .674-1.955 5.668 5.668 0 0 1 2.873-2.541 9.06 9.06 0 0 1 3.577-.381 8.669 8.669 0 0 0-3.518.381 5.492 5.492 0 0 0-2.776 2.473 5.591 5.591 0 0 0-.655 1.867 12.04 12.04 0 0 0-.088 2.072v2.15a10.124 10.124 0 0 1-.137 2.228 5.864 5.864 0 0 1-2.609 3.763 5.483 5.483 0 0 1-2.287.811c-.831.078-1.642 0-2.473 0h-42.348a5.863 5.863 0 0 1-1.691-.166 5.639 5.639 0 0 1-2.932-1.8 5.981 5.981 0 0 1-1.417-3.167 13.343 13.343 0 0 1-.059-1.759v-1.749a9.47 9.47 0 0 0-.352-3.45 5.62 5.62 0 0 0-2.091-2.736 5.453 5.453 0 0 0-3.352-.977h-26.916a18.637 18.637 0 0 0-7.819 1.5 18.3 18.3 0 0 0-6.538 4.887 18.07 18.07 0 0 0-3.694 7.467c-.186.684-.235 1.4-.362 2.1a12.986 12.986 0 0 0-.1 2.14v287.469a19.292 19.292 0 0 0 .723 5.942 17.885 17.885 0 0 0 6.939 9.578 18.442 18.442 0 0 0 11.435 3.147h106.178c3.782 0 7.564.059 11.288-.049a17.768 17.768 0 0 0 10.115-3.909 18.637 18.637 0 0 0 3.645-4.046 17.588 17.588 0 0 0 2.238-4.935 18.374 18.374 0 0 0 .674-5.365v-26.956c0-56.684.059-107.73.078-150.6s.078-77.57.1-101.553v-8.483a18.51 18.51 0 0 0-1.31-6.949 17.747 17.747 0 0 0-3.382-5.346 17.182 17.182 0 0 0-4.066-3.323 16.976 16.976 0 0 0-6.7-2.365 11.8 11.8 0 0 0-1.818-.166z" class="prefix__cls-6" data-name="Path 651" transform="translate(-99.397 -96.918)"/>
            <path id="prefix__Path_652" d="M241.882 149.328c0 .078-2.932.166-6.636.2s-6.646 0-6.646-.088 2.932-.166 6.636-.2 6.646.01 6.646.088z" class="prefix__cls-6" data-name="Path 652" transform="translate(-102.328 -97.598)"/>
            <path id="prefix__Path_653" d="M241.911 152.808c0 .078-2.932.166-6.646.2s-6.636 0-6.646-.088 2.932-.166 6.646-.2 6.646.01 6.646.088z" class="prefix__cls-6" data-name="Path 653" transform="translate(-102.328 -97.677)"/>
            <path id="prefix__Path_654" d="M241.941 156.288c0 .068-2.932.156-6.646.2s-6.646 0-6.646-.088 2.932-.166 6.646-.2 6.646.01 6.646.088z" class="prefix__cls-6" data-name="Path 654" transform="translate(-102.329 -97.756)"/>
            <path id="prefix__Path_655" d="M118.52 160h1.046l2.844-.068-.078.078v-3.235a1.1 1.1 0 0 1 .977-.88h1.358a1.1 1.1 0 0 1 .977 1.095v3l-.137-.137h3.577l-.137.137v-5.6a1.153 1.153 0 0 0-.5-.84l-1.642-1.622c-.518-.508-.977-.977-1.515-1.486l-.733-.723a1.671 1.671 0 0 0-.733-.557.977.977 0 0 0-.821.156c-.225.186-.45.44-.674.655l-1.28 1.3c-.811.84-1.652 1.6-2.258 2.326a2.492 2.492 0 0 0-.186 1.339v4.593a2.715 2.715 0 0 1 0 .469v-5.747a1.5 1.5 0 0 1 .2-.753c.665-.811 1.456-1.534 2.267-2.394l1.271-1.31c.235-.225.42-.45.694-.684a1.222 1.222 0 0 1 1.036-.2 1.867 1.867 0 0 1 .86.606l.733.723c.5.489.977.977 1.515 1.486l1.573 1.534a3.586 3.586 0 0 1 .4.44 1.193 1.193 0 0 1 .186.606v5.737h-3.851v-3.127a.87.87 0 0 0-.723-.87h-1.3a.87.87 0 0 0-.772.694v3.284h-3.987z" class="prefix__cls-6" data-name="Path 655" transform="translate(-99.831 -97.59)"/>
            <rect id="prefix__Rectangle_246" width="125.507" height="22.83" class="prefix__cls-3" data-name="Rectangle 246" rx="9.85" transform="translate(13.353 80.375)"/>
            <path id="prefix__Path_656" d="M228.936 201.46l.723-.059a11.184 11.184 0 0 0 2.072-.4 10.1 10.1 0 0 0 3.02-1.593 9.372 9.372 0 0 0 2.854-3.626 9.128 9.128 0 0 0 .762-2.658 26.155 26.155 0 0 0 .088-3.079 20.46 20.46 0 0 0-.156-3.342 9.343 9.343 0 0 0-1.241-3.342 9.519 9.519 0 0 0-6.333-4.408 27.747 27.747 0 0 0-4.369-.166h-4.632l-99.032.068a9.421 9.421 0 0 0-9.363 8.61c-.078 1.143 0 2.346 0 3.5a10.916 10.916 0 0 0 .352 3.4 9.48 9.48 0 0 0 3.909 5.317 9.207 9.207 0 0 0 3.039 1.3 13.765 13.765 0 0 0 3.3.244h19.546l44.527.049 30.013.078-30.013.068-44.527.049h-19.542a14.338 14.338 0 0 1-3.4-.254 9.627 9.627 0 0 1-3.2-1.358 9.93 9.93 0 0 1-4.075-5.571 11.376 11.376 0 0 1-.381-3.528v-3.529a9.89 9.89 0 0 1 9.832-9.05l99.032.068h4.623a26.6 26.6 0 0 1 4.427.186 9.773 9.773 0 0 1 7.76 8 21.056 21.056 0 0 1 .127 3.382 24.872 24.872 0 0 1-.107 3.108 9.089 9.089 0 0 1-.792 2.707 9.677 9.677 0 0 1-8.1 5.62 2.239 2.239 0 0 1-.743.209z" class="prefix__cls-6" data-name="Path 656" transform="translate(-99.702 -98.255)"/>
            <path id="prefix__Path_657" d="M233.412 189.67a3.25 3.25 0 0 0-.215-.977 4.1 4.1 0 0 0-1.515-2.17 3.909 3.909 0 1 0 0 6.3 4.114 4.114 0 0 0 1.515-2.16c.176-.626.176-.977.215-.977s0 .088 0 .264a3.059 3.059 0 0 1-.078.762 4.1 4.1 0 0 1-1.5 2.385 4.28 4.28 0 0 1-4.085.674 4.339 4.339 0 0 1 0-8.18 4.281 4.281 0 0 1 4.085.674 4.1 4.1 0 0 1 1.5 2.385 3.1 3.1 0 0 1 .078.762c.029.16.019.258 0 .258z" class="prefix__cls-6" data-name="Path 657" transform="translate(-102.243 -98.418)"/>
            <path id="prefix__Path_658" d="M235.854 196.967a16.175 16.175 0 0 1-3.7-4.007 8.072 8.072 0 0 1 2.023 1.847 7.985 7.985 0 0 1 1.677 2.16z" class="prefix__cls-6" data-name="Path 658" transform="translate(-102.408 -98.59)"/>
            <path id="prefix__Path_659" d="M130.348 187.986h-2.238v-.586h5.15v.586h-2.238v5.786h-.674z" class="prefix__cls-2" data-name="Path 659" transform="translate(-100.048 -98.464)"/>
            <path id="prefix__Path_660" d="M137.982 191.6h-4a1.779 1.779 0 0 0 1.886 1.671 1.955 1.955 0 0 0 1.466-.625l.362.41a2.345 2.345 0 0 1-1.847.792 2.375 2.375 0 0 1-2.512-2.443 2.316 2.316 0 0 1 2.336-2.434A2.287 2.287 0 0 1 138 191.4a1.208 1.208 0 0 0-.018.2zm-4.007-.479h3.4a1.7 1.7 0 0 0-3.4 0z" class="prefix__cls-2" data-name="Path 660" transform="translate(-100.167 -98.5)"/>
            <path id="prefix__Path_661" d="M142.342 193.8l-1.525-1.955-1.525 1.955h-.733l1.9-2.463-1.8-2.336h.723l1.437 1.876 1.435-1.877h.713l-1.8 2.326 1.955 2.463z" class="prefix__cls-2" data-name="Path 661" transform="translate(-100.285 -98.501)"/>
            <path id="prefix__Path_662" d="M146.785 193.481a1.554 1.554 0 0 1-.977.342 1.28 1.28 0 0 1-1.407-1.4v-2.932h-.85v-.518h.85v-1.043h.645v1.046h1.454v.547h-1.456v2.854a.772.772 0 0 0 .831.88 1.124 1.124 0 0 0 .713-.244z" class="prefix__cls-2" data-name="Path 662" transform="translate(-100.398 -98.476)"/>
            <path id="prefix__Rectangle_247" d="M0 0H27.472V27.472H0z" class="prefix__cls-9" data-name="Rectangle 247" transform="translate(18.65 122.184)"/>
            <g id="prefix__Group_96" class="prefix__cls-4" data-name="Group 96" transform="translate(18.65 122.184)">
                <path id="prefix__Rectangle_248" d="M0 0H27.472V27.472H0z" data-name="Rectangle 248"/>
            </g>
            <path id="prefix__Path_663" d="M199.707 224.245c0 .127-9.187.235-20.524.235s-20.524-.108-20.524-.235 9.177-.235 20.524-.235 20.524.108 20.524.235z" class="prefix__cls-9" data-name="Path 663" transform="translate(-100.741 -99.295)"/>
            <path id="prefix__Path_664" d="M232.428 232.855c0 .137-16.517.235-36.874.235s-36.874-.1-36.874-.235 16.507-.225 36.874-.225 36.874.098 36.874.225z" class="prefix__cls-6" data-name="Path 664" transform="translate(-100.742 -99.49)"/>
            <path id="prefix__Path_665" d="M231.558 238.995c0 .127-16.321.235-36.444.235s-36.434-.108-36.434-.235 16.311-.235 36.434-.235 36.444.127 36.444.235z" class="prefix__cls-6" data-name="Path 665" transform="translate(-100.742 -99.629)"/>
            <path id="prefix__Path_666" d="M201.712 244.885c0 .127-9.636.235-21.5.235s-21.5-.108-21.5-.235 9.627-.235 21.5-.235 21.5.107 21.5.235z" class="prefix__cls-6" data-name="Path 666" transform="translate(-100.742 -99.763)"/>
            <path id="prefix__Rectangle_249" d="M0 0H27.472V27.472H0z" class="prefix__cls-9" data-name="Rectangle 249" transform="translate(18.65 167.756)"/>
            <path id="prefix__Path_667" d="M199.707 271.075c0 .127-9.187.235-20.524.235s-20.524-.107-20.524-.235 9.177-.235 20.524-.235 20.524.16 20.524.235z" class="prefix__cls-9" data-name="Path 667" transform="translate(-100.741 -100.357)"/>
            <path id="prefix__Path_668" d="M232.428 279.695c0 .127-16.517.225-36.874.225s-36.874-.1-36.874-.225 16.507-.235 36.874-.235 36.874.098 36.874.235z" class="prefix__cls-6" data-name="Path 668" transform="translate(-100.742 -100.552)"/>
            <path id="prefix__Path_669" d="M231.558 285.845c0 .127-16.321.235-36.444.235s-36.434-.107-36.434-.235 16.311-.235 36.434-.235 36.444.107 36.444.235z" class="prefix__cls-6" data-name="Path 669" transform="translate(-100.742 -100.692)"/>
            <path id="prefix__Path_670" d="M201.712 291.715c0 .127-9.636.235-21.5.235s-21.5-.107-21.5-.235 9.627-.235 21.5-.235 21.5.107 21.5.235z" class="prefix__cls-6" data-name="Path 670" transform="translate(-100.742 -100.825)"/>
            <path id="prefix__Rectangle_250" d="M0 0H27.472V27.472H0z" class="prefix__cls-9" data-name="Rectangle 250" transform="translate(18.65 213.534)"/>
            <path id="prefix__Path_671" d="M199.707 317.9c0 .127-9.187.235-20.524.235s-20.524-.107-20.524-.235 9.177-.235 20.524-.235 20.524.112 20.524.235z" class="prefix__cls-9" data-name="Path 671" transform="translate(-100.741 -101.419)"/>
            <path id="prefix__Path_672" d="M232.428 326.525c0 .127-16.517.235-36.874.235s-36.874-.107-36.874-.235 16.507-.235 36.874-.235 36.874.098 36.874.235z" class="prefix__cls-6" data-name="Path 672" transform="translate(-100.742 -101.615)"/>
            <path id="prefix__Path_673" d="M231.558 332.675c0 .127-16.321.235-36.444.235s-36.434-.108-36.434-.235 16.311-.235 36.434-.235 36.444.107 36.444.235z" class="prefix__cls-6" data-name="Path 673" transform="translate(-100.742 -101.754)"/>
            <path id="prefix__Path_674" d="M201.712 338.545c0 .127-9.636.235-21.5.235s-21.5-.108-21.5-.235 9.627-.235 21.5-.235 21.5.108 21.5.235z" class="prefix__cls-6" data-name="Path 674" transform="translate(-100.742 -101.887)"/>
            <path id="prefix__Rectangle_251" d="M0 0H27.472V27.472H0z" class="prefix__cls-9" data-name="Rectangle 251" transform="translate(18.65 259.302)"/>
            <path id="prefix__Path_675" d="M199.707 364.735c0 .127-9.187.235-20.524.235s-20.524-.108-20.524-.235 9.177-.235 20.524-.235 20.524.107 20.524.235z" class="prefix__cls-7" data-name="Path 675" transform="translate(-100.741 -102.481)"/>
            <path id="prefix__Path_676" d="M232.428 373.355c0 .127-16.517.235-36.874.235s-36.874-.107-36.874-.235 16.507-.235 36.874-.235 36.874.108 36.874.235z" class="prefix__cls-6" data-name="Path 676" transform="translate(-100.742 -102.677)"/>
            <path id="prefix__Path_677" d="M231.558 379.5c0 .127-16.321.235-36.444.235s-36.434-.107-36.434-.235 16.311-.235 36.434-.235 36.444.113 36.444.235z" class="prefix__cls-6" data-name="Path 677" transform="translate(-100.742 -102.816)"/>
            <path id="prefix__Path_678" d="M201.712 385.375c0 .127-9.636.235-21.5.235s-21.5-.107-21.5-.235 9.627-.235 21.5-.235 21.5.107 21.5.235z" class="prefix__cls-6" data-name="Path 678" transform="translate(-100.742 -102.95)"/>
            <path id="prefix__Rectangle_252" d="M0 0H27.472V27.472H0z" class="prefix__cls-2" data-name="Rectangle 252" transform="translate(18.65 305.069)"/>
            <path id="prefix__Path_679" d="M199.707 411.565c0 .127-9.187.235-20.524.235s-20.524-.107-20.524-.235 9.177-.235 20.524-.235 20.524.108 20.524.235z" class="prefix__cls-2" data-name="Path 679" transform="translate(-100.741 -103.544)"/>
            <path id="prefix__Path_680" d="M232.428 420.185c0 .127-16.517.235-36.874.235s-36.874-.108-36.874-.235 16.507-.235 36.874-.235 36.874.107 36.874.235z" class="prefix__cls-1" data-name="Path 680" transform="translate(-100.742 -103.739)"/>
            <path id="prefix__Path_681" d="M231.558 426.335c0 .137-16.321.235-36.444.235s-36.434-.1-36.434-.235 16.311-.235 36.434-.235 36.444.107 36.444.235z" class="prefix__cls-1" data-name="Path 681" transform="translate(-100.742 -103.879)"/>
            <path id="prefix__Path_682" d="M201.712 432.2c0 .137-9.636.235-21.5.235s-21.5-.1-21.5-.235 9.627-.235 21.5-.235 21.5.113 21.5.235z" class="prefix__cls-1" data-name="Path 682" transform="translate(-100.742 -104.012)"/>
            <g id="prefix__Group_97" class="prefix__cls-10" data-name="Group 97" transform="translate(18.65 259.302)">
                <path id="prefix__Rectangle_253" d="M0 0H27.472V27.472H0z" data-name="Rectangle 253"/>
            </g>
            <g id="prefix__Group_98" class="prefix__cls-10" data-name="Group 98" transform="translate(18.65 167.756)">
                <path id="prefix__Rectangle_254" d="M0 0H27.472V27.472H0z" data-name="Rectangle 254"/>
            </g>
        </g>
        <g id="prefix__Character--inject-80" transform="translate(34.723 120.815)">
            <path id="prefix__Path_683" d="M150.643 184.629l-32.1 17.856-22.679-33.415.059-1.055c0-.577.078-1.212.147-1.955a7.662 7.662 0 0 1 .665-2.4 11.668 11.668 0 0 1 1.583-2.678c.665-.684.176-1.818-.665-1.671s-2.707 1.955-3.763 4.887-2.58-1.642-3.167-3.284-2.629-6.646-3.274-6.841c-.977-.3-1.456.674-.831 2.306s2.15 6.656 1.271 6.939-3.733-8.131-3.733-8.131-.323-1.906-1.339-1.6c-1.847.538 1.857 9.255 2.228 10.066.264.577-.674.919-.977.293S81.4 155.465 79.523 156c-1.446.41 2.932 7.193 2.59 9.118s-2.834-5.5-4.2-5.053c-.508.166-.86.362 1.153 4.408a88.709 88.709 0 0 0 4.31 8.366l22.42 43.813a12.011 12.011 0 0 0 15.578 5.512l29.652-13.116z" class="prefix__cls-12" data-name="Path 683" transform="translate(-35.694 -123.322)"/>
            <path id="prefix__Path_684" d="M92.3 172.7a2.106 2.106 0 0 1-.665-.753 4.652 4.652 0 0 1-.6-2.336 4.74 4.74 0 0 1 .645-2.336c.323-.528.635-.772.674-.723a6.5 6.5 0 0 0-.054 6.148z" class="prefix__cls-13" data-name="Path 684" transform="translate(-36 -123.617)"/>
            <path id="prefix__Path_685" d="M40.345 177.338l39.65 13.682a3.186 3.186 0 0 0 4.056-1.955l10.408-30.131a3.186 3.186 0 0 0-1.955-4.056L58.025 143a3.909 3.909 0 0 0-2.932.176l-6.353 3.088a3.909 3.909 0 0 0-1.955 2.287l-8.219 25.078a2.932 2.932 0 0 0 1.779 3.709z" class="prefix__cls-9" data-name="Path 685" transform="translate(-34.806 -123.078)"/>
            <rect id="prefix__Rectangle_255" width="29.456" height="37.627" class="prefix__cls-1" data-name="Rectangle 255" rx="1.86" transform="rotate(-70.91 42.31 19.869)"/>
            <path id="prefix__Path_686" d="M66.276 152.88c.137.049-1.955 6.313-4.574 14s-4.887 13.888-5.053 13.839 1.955-6.313 4.574-14 4.917-13.888 5.053-13.839z" class="prefix__cls-9" data-name="Path 686" transform="translate(-35.22 -123.307)"/>
            <path id="prefix__Path_687" d="M59.171 172.766h.362l-.059.156c-.8-.176-3.137-.9-5.864-1.847a42.393 42.393 0 0 1-6.05-2.355 40.217 40.217 0 0 1 6.216 1.876c2.717.977 5 1.808 5.747 2.17l-.059.156c-.206-.022-.293-.122-.293-.156z" class="prefix__cls-9" data-name="Path 687" transform="translate(-35.014 -123.666)"/>
            <path id="prefix__Path_688" d="M63.573 161.154a38.8 38.8 0 0 1-6.059-1.828 39.777 39.777 0 0 1-5.864-2.3 39.093 39.093 0 0 1 6.05 1.818 39.531 39.531 0 0 1 5.873 2.31z" class="prefix__cls-9" data-name="Path 688" transform="translate(-35.107 -123.401)"/>
            <path id="prefix__Path_689" d="M80.037 157.72c.137 0-1.955 6.294-4.554 13.966s-4.887 13.849-5.043 13.8 1.954-6.294 4.56-13.966 4.91-13.849 5.037-13.8z" class="prefix__cls-9" data-name="Path 689" transform="translate(-35.533 -123.417)"/>
            <path id="prefix__Path_690" d="M88.05 170.024a32.106 32.106 0 0 1-5.463-1.622 31.058 31.058 0 0 1-5.287-2.1 33.231 33.231 0 0 1 5.453 1.661 31.393 31.393 0 0 1 5.297 2.061z" class="prefix__cls-9" data-name="Path 690" transform="translate(-35.689 -123.611)"/>
            <path id="prefix__Path_691" d="M84.821 182.046a38.785 38.785 0 0 1-5.864-1.769A37.9 37.9 0 0 1 73.24 178a36.425 36.425 0 0 1 5.864 1.759 36.16 36.16 0 0 1 5.717 2.287z" class="prefix__cls-9" data-name="Path 691" transform="translate(-35.597 -123.877)"/>
            <path id="prefix__Path_692" d="M36.127 170.192c-.2-2.043 1.241-2.277 1.241-2.277a4.075 4.075 0 0 1 .2-1.876A2 2 0 0 1 39 164.72a5.551 5.551 0 0 1 .518-2.307c.479-.684 2.8-1.036 2.8-1.036v1.671l-.313.538s1.388 3.342 2.111 1.271c.977-2.932 2.932-4.75 3.763-4.887s1.329.977.665 1.681a11.268 11.268 0 0 0-1.583 2.678 7.281 7.281 0 0 0-.665 2.394c-.078.723-.117 1.358-.147 1.955l-.059 1.046 22.67 33.414 32.1-17.846 11.923 19.234L71.624 222.8a12.011 12.011 0 0 1-15.578-5.5l-19.4-40.129s-2.306-3.909-1.867-5.5a1.955 1.955 0 0 1 1.348-1.479z" class="prefix__cls-12" data-name="Path 692" transform="translate(-34.723 -123.468)"/>
            <path id="prefix__Path_693" d="M83.476 196.16a4.447 4.447 0 0 1-.88.6c-.586.352-1.437.85-2.492 1.456-2.111 1.212-5.043 2.864-8.307 4.652L69.726 204h.059a8.679 8.679 0 0 0-2.394 7.066 14.377 14.377 0 0 0 .821 3.03 2.248 2.248 0 0 1-.45-.723 8.581 8.581 0 0 1-.7-2.258 8.7 8.7 0 0 1 .176-3.567 9.02 9.02 0 0 1 2.189-3.909l2.072-1.134c3.264-1.8 6.226-3.391 8.385-4.525 1.075-.567 1.955-.977 2.561-1.319a4.193 4.193 0 0 1 1.031-.501z" class="prefix__cls-13" data-name="Path 693" transform="translate(-35.454 -124.289)"/>
            <path id="prefix__Path_694" d="M40.073 167.14c-.088.108-.625-.215-.977-.889S39 165 39.106 165s.254.518.508 1.085.557.948.459 1.055z" class="prefix__cls-13" data-name="Path 694" transform="translate(-34.818 -123.582)"/>
            <path id="prefix__Path_695" d="M38.4 170.826c-.108.088-.635-.4-.977-1.212s-.274-1.515-.137-1.525.323.616.606 1.339.627 1.311.508 1.398z" class="prefix__cls-13" data-name="Path 695" transform="translate(-34.779 -123.652)"/>
            <path id="prefix__Path_696" d="M36.868 172.814c-.1.088-.6-.332-.831-1.075s-.078-1.368.059-1.349.215.567.42 1.2.459 1.126.352 1.224z" class="prefix__cls-13" data-name="Path 696" transform="translate(-34.75 -123.704)"/>
            <path id="prefix__Path_697" d="M202.921 440.3L169.78 270.8c-.059-.254-.127-.489-.186-.743-5.023-19.918-8.982-24.794-8.982-24.794l-48.943 1.337c-3.841 6.9-4.33 23.456-4.33 23.456-.528 2.033 7.017 166.789 7.017 166.789l20.279-.059 5.6-156.273 43.775 160.064z" class="prefix__cls-6" data-name="Path 697" transform="translate(-36.37 -125.403)"/>
            <path id="prefix__Path_698" d="M153.652 275.91c0 .156-5.414 1.71-12.168 3.46s-12.275 3.039-12.314 2.873 5.4-1.71 12.158-3.46 12.272-3.03 12.324-2.873z" class="prefix__cls-7" data-name="Path 698" transform="translate(-36.865 -126.097)"/>
            <path id="prefix__Path_699" d="M116.406 441.2l-3.2 10.692 18.931-.225.938-10.467z" class="prefix__cls-9" data-name="Path 699" transform="translate(-36.503 -129.847)"/>
            <path id="prefix__Path_700" d="M132.563 450.06a11.79 11.79 0 0 1-2.756.215h-6.665l-6.646-.215a13.125 13.125 0 0 1-2.746-.215 12.019 12.019 0 0 1 2.756-.205c1.7-.049 4.056 0 6.656 0l6.646.215a12.961 12.961 0 0 1 2.755.205z" class="prefix__cls-6" data-name="Path 700" transform="translate(-36.516 -130.038)"/>
            <path id="prefix__Path_701" d="M124.636 441.84a13.257 13.257 0 0 1 .078 4 13.66 13.66 0 0 1-.518 3.958 13.237 13.237 0 0 1-.078-3.987 13.845 13.845 0 0 1 .518-3.971z" class="prefix__cls-6" data-name="Path 701" transform="translate(-36.749 -129.862)"/>
            <g id="prefix__Group_99" class="prefix__cls-14" data-name="Group 99" transform="translate(76.697 319.777)">
                <path id="prefix__Path_702" d="M113.21 452.087l18.931-.225.166-1.8-18.784-.244-.323 2.052" class="prefix__cls-5" data-name="Path 702" transform="translate(-113.2 -449.82)"/>
            </g>
            <path id="prefix__Path_703" d="M204.455 447.2v-2.37l-18.655.27-.078 6.46 1.153.068c5.16.244 26.241.919 29.681-.068 3.79-1.091-12.101-4.36-12.101-4.36z" class="prefix__cls-9" data-name="Path 703" transform="translate(-38.148 -129.929)"/>
            <g id="prefix__Group_100" class="prefix__cls-14" data-name="Group 100" transform="translate(147.513 316.516)">
                <path id="prefix__Path_704" d="M192.452 451.445a6.03 6.03 0 0 0-2.414-3.694 6.646 6.646 0 0 0-4.378-1.251v4.887z" class="prefix__cls-5" data-name="Path 704" transform="translate(-185.66 -446.483)"/>
            </g>
            <g id="prefix__Group_101" class="prefix__cls-14" data-name="Group 101" transform="translate(147.533 319.123)">
                <path id="prefix__Path_705" d="M212.224 449.15s5.571 1.476 4.887 2.326-22.019.977-31.431.186v-.391l24.882.127s.567-2.198 1.662-2.248z" class="prefix__cls-5" data-name="Path 705" transform="translate(-185.68 -449.15)"/>
            </g>
            <path id="prefix__Path_706" d="M185.4 451.307h1.3l3.391.117c2.873.088 6.841.166 11.22.156s8.337-.107 11.21-.205l3.391-.137.919-.059h-.919l-3.4.078c-2.864.059-6.841.127-11.21.137s-8.337 0-11.2-.088l-3.4-.059h-1.3z" class="prefix__cls-6" data-name="Path 706" transform="translate(-38.141 -130.073)"/>
            <path id="prefix__Path_707" d="M211.16 451.657a6.763 6.763 0 0 1 .625-1.505 6.939 6.939 0 0 1 1.143-1.212 2.472 2.472 0 0 0-1.339 1.1 2.189 2.189 0 0 0-.429 1.617z" class="prefix__cls-6" data-name="Path 707" transform="translate(-38.725 -130.023)"/>
            <path id="prefix__Path_708" d="M205.5 449.046a2.192 2.192 0 0 0 .586-.665c.274-.4.44-.753.391-.782s-.313.264-.586.665-.44.753-.391.782z" class="prefix__cls-6" data-name="Path 708" transform="translate(-38.597 -129.992)"/>
            <path id="prefix__Path_709" d="M204 448.3c0 .049.332-.137.655-.41s.547-.518.5-.567-.332.147-.655.41-.588.525-.5.567z" class="prefix__cls-6" data-name="Path 709" transform="translate(-38.562 -129.986)"/>
            <path id="prefix__Path_710" d="M203 446.648a2.4 2.4 0 0 0 .977.117 2.267 2.267 0 0 0 .977-.107 4.662 4.662 0 0 0-1.955 0z" class="prefix__cls-6" data-name="Path 710" transform="translate(-38.54 -129.969)"/>
            <path id="prefix__Path_711" d="M202.61 445.47a2.131 2.131 0 0 0 1.095.293 2.013 2.013 0 0 0 1.124-.147 6.255 6.255 0 0 0-1.114-.068 6.094 6.094 0 0 0-1.105-.078z" class="prefix__cls-6" data-name="Path 711" transform="translate(-38.531 -129.944)"/>
            <path id="prefix__Path_712" d="M206.14 447.494a4.152 4.152 0 0 0 1.2 0 8.7 8.7 0 0 0 1.271-.264 3.631 3.631 0 0 0 .733-.283.665.665 0 0 0 .293-.352.44.44 0 0 0-.186-.45 2.3 2.3 0 0 0-2.717.616 1.886 1.886 0 0 0-.391.743v.3a2.755 2.755 0 0 1 .538-.977 2.13 2.13 0 0 1 .977-.625 2.023 2.023 0 0 1 1.437.088c.186.137.117.342-.1.459a3.742 3.742 0 0 1-.674.274 8.3 8.3 0 0 1-1.231.3c-.69.132-1.15.132-1.15.171z" class="prefix__cls-6" data-name="Path 712" transform="translate(-38.611 -129.955)"/>
            <path id="prefix__Path_713" d="M206.424 447.53a1.085 1.085 0 0 0 .127-.772 1.711 1.711 0 0 0-.332-.811 1.212 1.212 0 0 0-.977-.567.44.44 0 0 0-.362.518 1.143 1.143 0 0 0 .205.5 4.124 4.124 0 0 0 .577.674 1.955 1.955 0 0 0 .684.45s-.235-.205-.567-.557a3.811 3.811 0 0 1-.508-.665c-.166-.234-.283-.665 0-.713s.606.254.792.469a1.955 1.955 0 0 1 .342.723 3.673 3.673 0 0 1 .019.751z" class="prefix__cls-6" data-name="Path 713" transform="translate(-38.583 -129.942)"/>
            <path id="prefix__Path_714" d="M185.76 446.445a10.265 10.265 0 0 1 1.378 0 6.373 6.373 0 0 1 3.02 1.144 5.59 5.59 0 0 1 1.9 2.473c.293.743.323 1.241.371 1.231a.977.977 0 0 0 0-.342 5.034 5.034 0 0 0-.215-.977 5.4 5.4 0 0 0-1.955-2.59 6.079 6.079 0 0 0-3.137-1.124 4.641 4.641 0 0 0-1.026 0 1.192 1.192 0 0 0-.332.186z" class="prefix__cls-6" data-name="Path 714" transform="translate(-38.149 -129.961)"/>
            <path id="prefix__Path_715" d="M195 449.819a16.36 16.36 0 0 0 5.463 0c0-.059-1.231 0-2.736 0s-2.727-.068-2.727 0z" class="prefix__cls-6" data-name="Path 715" transform="translate(-38.359 -130.042)"/>
            <path id="prefix__Path_716" d="M191.25 449.82a3.285 3.285 0 0 0 .235.5c.127.254.2.5.254.489s.1-.274-.049-.567-.401-.461-.44-.422z" class="prefix__cls-6" data-name="Path 716" transform="translate(-38.274 -130.043)"/>
            <path id="prefix__Path_717" d="M189.83 448.19c-.049.049.078.225.274.411s.391.293.43.254-.078-.225-.274-.41-.381-.294-.43-.255z" class="prefix__cls-6" data-name="Path 717" transform="translate(-38.241 -130.006)"/>
            <path id="prefix__Path_718" d="M187.8 447.448c0 .059.264.059.538.147s.479.225.528.186-.108-.274-.45-.381-.636 0-.616.048z" class="prefix__cls-6" data-name="Path 718" transform="translate(-38.195 -129.987)"/>
            <path id="prefix__Path_719" d="M186.36 447.109c0 .049.088.137.244.2s.3.059.323 0-.088-.147-.244-.2-.294-.059-.323 0z" class="prefix__cls-6" data-name="Path 719" transform="translate(-38.163 -129.98)"/>
            <path id="prefix__Path_720" d="M159.7 201.307l-5.346 27.678c11.093 15.432 12.1 28.665 12.1 28.665l-59.616 6.988c0-10.809 7.819-28.293 7.819-28.293l-5.082-27.365-17.113 7.428-9.142-22.343c-.225.577 12.705-7.711 22.771-13.047 4.779-2.531 8.014-4.828 13.419-4.838h25.215a19.631 19.631 0 0 1 3.391.674s12.578-.674 12.578 11.425a115.8 115.8 0 0 1-1.026 13.037" class="prefix__cls-9" data-name="Path 720" transform="translate(-35.825 -123.836)"/>
            <path id="prefix__Path_721" d="M131.5 231.77a20.21 20.21 0 0 1 2.287-6.04 10.594 10.594 0 0 1-.909 3.108 10.75 10.75 0 0 1-1.378 2.932z" class="prefix__cls-15" data-name="Path 721" transform="translate(-36.918 -124.959)"/>
            <path id="prefix__Path_722" d="M132.389 242.708a16.848 16.848 0 0 1-3.909-4.378 8.533 8.533 0 0 1 2.16 2.023 8.708 8.708 0 0 1 1.749 2.355z" class="prefix__cls-15" data-name="Path 722" transform="translate(-36.85 -125.245)"/>
            <path id="prefix__Path_723" d="M144.778 233.289a16.439 16.439 0 0 1-5.668.889 8.542 8.542 0 0 1 2.8-.7 8 8 0 0 1 2.868-.189z" class="prefix__cls-15" data-name="Path 723" transform="translate(-37.091 -125.13)"/>
            <path id="prefix__Path_724" d="M146.02 223.766a12.842 12.842 0 0 1-1.534-3.235 13.105 13.105 0 0 1-1.065-3.421 12.461 12.461 0 0 1 1.534 3.235 12.783 12.783 0 0 1 1.065 3.421z" class="prefix__cls-15" data-name="Path 724" transform="translate(-37.189 -124.764)"/>
            <path id="prefix__Path_725" d="M155.084 221.77a9.568 9.568 0 0 1-1.642 2.6 9.128 9.128 0 0 1-2.043 2.3 9.774 9.774 0 0 1 1.642-2.6 9.588 9.588 0 0 1 2.043-2.3z" class="prefix__cls-15" data-name="Path 725" transform="translate(-37.37 -124.87)"/>
            <path id="prefix__Path_726" d="M154.407 238.738a20.856 20.856 0 0 1-3.147-5.668 21.169 21.169 0 0 1 3.147 5.668z" class="prefix__cls-15" data-name="Path 726" transform="translate(-37.366 -125.126)"/>
            <path id="prefix__Path_727" d="M145.135 246.886a8.337 8.337 0 0 1-1.613-2.326 7.907 7.907 0 0 1-1.173-2.58 8.16 8.16 0 0 1 1.613 2.326 7.907 7.907 0 0 1 1.173 2.58z" class="prefix__cls-15" data-name="Path 727" transform="translate(-37.164 -125.328)"/>
            <path id="prefix__Path_728" d="M136.865 256.015a15.58 15.58 0 0 1-2.932-.674 16.157 16.157 0 0 1-2.883-.753 6.285 6.285 0 0 1 3.01.254 6.411 6.411 0 0 1 2.8 1.173z" class="prefix__cls-15" data-name="Path 728" transform="translate(-36.908 -125.612)"/>
            <path id="prefix__Path_729" d="M154.412 251.07a15.773 15.773 0 0 1-2.248 2.541 14.835 14.835 0 0 1-2.414 2.375 9.334 9.334 0 0 1 2.052-2.727 9.07 9.07 0 0 1 2.61-2.189z" class="prefix__cls-15" data-name="Path 729" transform="translate(-37.332 -125.534)"/>
            <path id="prefix__Path_730" d="M162.589 255.505a8.8 8.8 0 0 1 .2-2.932 8.356 8.356 0 0 1 .7-2.864 8.8 8.8 0 0 1-.2 2.932 8.708 8.708 0 0 1-.7 2.864z" class="prefix__cls-15" data-name="Path 730" transform="translate(-37.622 -125.503)"/>
            <path id="prefix__Path_731" d="M119.455 253a27.219 27.219 0 0 1-1.5 7.281 27.218 27.218 0 0 1 1.5-7.281z" class="prefix__cls-15" data-name="Path 731" transform="translate(-36.611 -125.578)"/>
            <path id="prefix__Path_732" d="M122.342 244.724a18.879 18.879 0 0 1-3.01-1.769A17.064 17.064 0 0 1 116.4 241a9.46 9.46 0 0 1 3.186 1.476 9 9 0 0 1 2.756 2.248z" class="prefix__cls-15" data-name="Path 732" transform="translate(-36.576 -125.306)"/>
            <path id="prefix__Path_733" d="M123.792 228.92c.1.108-.674.977-1.71 2.023a7.281 7.281 0 0 1-2.062 1.652c-.1-.107.665-.977 1.7-2.023a7.251 7.251 0 0 1 2.072-1.652z" class="prefix__cls-15" data-name="Path 733" transform="translate(-36.658 -125.032)"/>
            <path id="prefix__Path_734" d="M119.513 219.738a7.487 7.487 0 0 1-2.052-1.8 7.281 7.281 0 0 1-1.681-2.15 7.7 7.7 0 0 1 2.052 1.8 7.281 7.281 0 0 1 1.681 2.15z" class="prefix__cls-15" data-name="Path 734" transform="translate(-36.562 -124.734)"/>
            <path id="prefix__Path_735" d="M132.716 213.67a5.942 5.942 0 0 1-2.482 1.544 6.011 6.011 0 0 1-2.864.635 15.3 15.3 0 0 1 2.668-1.1 14.788 14.788 0 0 1 2.678-1.079z" class="prefix__cls-15" data-name="Path 735" transform="translate(-36.825 -124.686)"/>
            <path id="prefix__Path_736" d="M152.53 210.653a10.751 10.751 0 0 1 1.163-2.57 11.22 11.22 0 0 1 1.358-2.473 10.086 10.086 0 0 1-2.521 5.043z" class="prefix__cls-15" data-name="Path 736" transform="translate(-37.395 -124.503)"/>
            <path id="prefix__Path_737" d="M137.4 204.86c.127-.078.831.889 1.779 2.013a11.172 11.172 0 0 1 1.681 2.1c-.088.108-1.095-.616-2.072-1.779a5.5 5.5 0 0 1-1.388-2.334z" class="prefix__cls-15" data-name="Path 737" transform="translate(-37.052 -124.486)"/>
            <path id="prefix__Path_738" d="M105.18 202.78a13.682 13.682 0 0 1-2.14 4.789 13.907 13.907 0 0 1 2.14-4.789z" class="prefix__cls-15" data-name="Path 738" transform="translate(-36.273 -124.439)"/>
            <path id="prefix__Path_739" d="M95.141 205.09a14.455 14.455 0 0 1-1.72-3.342 14.093 14.093 0 0 1-1.251-3.548 14.455 14.455 0 0 1 1.72 3.342 14.093 14.093 0 0 1 1.251 3.548z" class="prefix__cls-15" data-name="Path 739" transform="translate(-36.026 -124.335)"/>
            <path id="prefix__Path_740" d="M101.191 193.707a9.216 9.216 0 0 1-2.864-.9 8.991 8.991 0 0 1-2.678-1.368 9.236 9.236 0 0 1 2.873.9 8.8 8.8 0 0 1 2.668 1.368z" class="prefix__cls-15" data-name="Path 740" transform="translate(-36.105 -124.182)"/>
            <path id="prefix__Path_741" d="M110.77 180.87a11.61 11.61 0 0 1-2.414 2.453 11.464 11.464 0 0 1-2.756 2.077 12.031 12.031 0 0 1 2.424-2.463 11.855 11.855 0 0 1 2.746-2.072z" class="prefix__cls-15" data-name="Path 741" transform="translate(-36.331 -123.942)"/>
            <path id="prefix__Path_742" d="M122.879 127.722c-4.955 2.248-6.949 7.721-7.437 12.764s0 10.272-1.955 14.982c-1.632 3.978-4.994 7.6-4.623 11.855.283 3.176 2.649 5.962 3.079 9.128.84 6.118-5.659 11.6-4.476 17.67.538 2.785 6.626 9.607 9.177 11.249l13.594-2.316 1.837-6.245 1.29 5.942 12.138-1.573.616-6.607 2.443 5.864 4.779.782a11.952 11.952 0 0 0 8.8-3.342 7.936 7.936 0 0 0 1.808-8.356c-1.583-3.909-6.48-6.45-7.232-10.555-.684-3.724 2.346-7.4 1.4-11.073-1.065-4.095-6.538-6.245-7.867-10.272-1.583-4.828 3.489-9.988 1.515-14.66-1.163-2.776-4.505-4.535-5.414-7.379-.616-1.955 0-4.066-.391-6.05-.772-3.44-4.642-5.668-8.415-6.45a19.722 19.722 0 0 0-13.682 1.955 13.907 13.907 0 0 0-7.076 10.457" class="prefix__cls-6" data-name="Path 742" transform="translate(-36.37 -122.621)"/>
            <path id="prefix__Path_743" d="M130.81 124.234a16.712 16.712 0 0 1 22.351 12.353c.762 3.831.2 7.985 1.857 11.513 1.818 3.841 6.059 6.48 6.7 10.672s-2.4 7.74-3.03 11.8c-.665 4.212 1.329 8.483.85 12.705a11.053 11.053 0 0 1-19.2 6.186" class="prefix__cls-6" data-name="Path 743" transform="translate(-36.903 -122.632)"/>
            <path id="prefix__Path_744" d="M136.768 157.175a2.932 2.932 0 0 1-.977.41 10.749 10.749 0 0 1-2.736.5 14.571 14.571 0 0 1-4.1-.362 26.063 26.063 0 0 1-4.75-1.7 28.244 28.244 0 0 1-4.437-2.385 13.985 13.985 0 0 1-3.088-2.746 8.17 8.17 0 0 1-1.358-2.434 3.5 3.5 0 0 1-.186-.977 4.193 4.193 0 0 1 .371.977 9.578 9.578 0 0 0 1.456 2.277 14.786 14.786 0 0 0 3.069 2.58 31.031 31.031 0 0 0 4.378 2.316 28.276 28.276 0 0 0 4.652 1.7 15.274 15.274 0 0 0 3.987.459 19.341 19.341 0 0 0 3.719-.615z" class="prefix__cls-7" data-name="Path 744" transform="translate(-36.547 -123.184)"/>
            <path id="prefix__Path_745" d="M137.018 153.414a4.261 4.261 0 0 1-1.075-.059 12.325 12.325 0 0 1-2.834-.743 19.6 19.6 0 0 1-7.74-5.688 62.284 62.284 0 0 1-5.483-7.916c-.625-1.055-1.114-1.955-1.437-2.531a4.4 4.4 0 0 1-.459-.977 4.134 4.134 0 0 1 .625.87l1.583 2.443a78.182 78.182 0 0 0 5.551 7.819 20.758 20.758 0 0 0 7.5 5.688 26.816 26.816 0 0 0 3.772 1.095z" class="prefix__cls-7" data-name="Path 745" transform="translate(-36.612 -122.913)"/>
            <path id="prefix__Path_746" d="M140.739 155.861a13.879 13.879 0 0 0 .977 1.378 7.818 7.818 0 0 0 3.636 2.521 7.584 7.584 0 0 0 3.03.391 6.694 6.694 0 0 0 3.254-1.192 7.222 7.222 0 0 0-1.515-12.9 6.626 6.626 0 0 0-3.44-.4 7.437 7.437 0 0 0-2.864 1.075 7.9 7.9 0 0 0-2.932 3.294c-.45.977-.538 1.573-.586 1.554a1.437 1.437 0 0 1 0-.43 5.865 5.865 0 0 1 .362-1.2 7.819 7.819 0 0 1 2.932-3.518 7.975 7.975 0 0 1 2.991-1.192 6.988 6.988 0 0 1 3.675.381 7.662 7.662 0 0 1 1.613 13.731 7.1 7.1 0 0 1-3.489 1.222 8.014 8.014 0 0 1-6.841-3.206 6.013 6.013 0 0 1-.625-1.085 1.956 1.956 0 0 1-.178-.424z" class="prefix__cls-7" data-name="Path 746" transform="translate(-37.117 -123.132)"/>
            <path id="prefix__Path_747" d="M143.732 159.335a3.4 3.4 0 0 1-1.573-.8 6.841 6.841 0 0 1-2.2-7.819 3.343 3.343 0 0 1 .919-1.505c.068.049-.283.616-.577 1.622a7.134 7.134 0 0 0 2.091 7.379c.773.752 1.369 1.045 1.34 1.123z" class="prefix__cls-9" data-name="Path 747" transform="translate(-37.1 -123.224)"/>
            <path id="prefix__Path_748" d="M153.707 141.6a3.342 3.342 0 0 1 .059 2.619 3.284 3.284 0 0 1-1.466 2.17c-.117-.1.606-.977.977-2.316s.274-2.453.43-2.473z" class="prefix__cls-7" data-name="Path 748" transform="translate(-37.39 -123.051)"/>
            <path id="prefix__Path_749" d="M154.522 149.73a5.6 5.6 0 0 1-1.329 1.955 11.141 11.141 0 0 1-10.594 3.382 5.581 5.581 0 0 1-2.228-.84c0-.078.87.264 2.3.489a11.874 11.874 0 0 0 10.262-3.284c1.031-.979 1.51-1.751 1.589-1.702z" class="prefix__cls-7" data-name="Path 749" transform="translate(-37.119 -123.235)"/>
            <path id="prefix__Path_750" d="M142.011 196.743a2 2 0 0 1-.283-.283 9.079 9.079 0 0 1-.694-.9 15.149 15.149 0 0 1-1.818-3.763 21.98 21.98 0 0 1-1.046-6.108 43.8 43.8 0 0 1 .5-7.564c.362-2.658.792-5.18 1.036-7.476a38.974 38.974 0 0 0 .244-6.118 24.248 24.248 0 0 0-.538-4.085c-.215-.977-.381-1.476-.342-1.486s.078.117.166.362a8.354 8.354 0 0 1 .362 1.075 20.191 20.191 0 0 1 .713 4.115 35.456 35.456 0 0 1-.137 6.186c-.225 2.326-.645 4.887-.977 7.5a46.268 46.268 0 0 0-.528 7.476 22.879 22.879 0 0 0 .919 6.02 18.755 18.755 0 0 0 2.424 5.053z" class="prefix__cls-7" data-name="Path 750" transform="translate(-37.069 -123.445)"/>
            <path id="prefix__Path_751" d="M159.127 190.509a1.355 1.355 0 0 0-.362.078 4.516 4.516 0 0 1-1.055.059 8.483 8.483 0 0 1-3.733-1.036 11.728 11.728 0 0 1-4.222-3.909 23.8 23.8 0 0 1-2.824-6.411 73.6 73.6 0 0 1-2.639-12.412c-.2-1.622-.293-2.932-.342-3.841a8.3 8.3 0 0 1 0-1.417 7.094 7.094 0 0 1 .205 1.4c.107.9.264 2.209.5 3.812a86.139 86.139 0 0 0 2.746 12.344 24.218 24.218 0 0 0 2.756 6.313 11.728 11.728 0 0 0 4.007 3.841 8.884 8.884 0 0 0 3.577 1.153c.917.046 1.376-.022 1.386.026z" class="prefix__cls-7" data-name="Path 751" transform="translate(-37.2 -123.505)"/>
        </g>
        <g id="prefix__Plant--inject-80" transform="translate(640.444 383.683)">
            <path id="prefix__Path_752" d="M678.832 416.355c1.671 2.385 4.887 1.593 6.421.147s2.15-3.567 2.727-5.58c1.319-4.6 2.658-9.431 1.671-14.112a7.869 7.869 0 0 0-1.8-3.841 4.1 4.1 0 0 0-3.909-1.29c-1.642.43-2.658 2.033-3.391 3.557a33.688 33.688 0 0 0-3.323 14.435 11.65 11.65 0 0 0 1.573 6.675" class="prefix__cls-9" data-name="Path 752" transform="translate(-655.018 -391.59)"/>
            <g id="prefix__Group_102" data-name="Group 102" opacity="0.2" transform="translate(22.185)">
                <path id="prefix__Path_753" d="M678.832 416.355c1.671 2.385 4.887 1.593 6.421.147s2.15-3.567 2.727-5.58c1.319-4.6 2.658-9.431 1.671-14.112a7.869 7.869 0 0 0-1.8-3.841 4.1 4.1 0 0 0-3.909-1.29c-1.642.43-2.658 2.033-3.391 3.557a33.688 33.688 0 0 0-3.323 14.435 11.65 11.65 0 0 0 1.573 6.675" data-name="Path 753" transform="translate(-677.203 -391.59)"/>
            </g>
            <path id="prefix__Path_754" d="M685.2 429.258a14.435 14.435 0 0 1 8.982-1.085 7.466 7.466 0 0 1 4.437 1.955c1.1 1.231 1.31 3.382 0 4.437a4.241 4.241 0 0 1-2.8.7c-2.375 0-5-.44-6.91.977-1.075.811-1.8 2.17-3.088 2.57a3.079 3.079 0 0 1-3.372-1.5 5.268 5.268 0 0 1-.381-3.86 5.913 5.913 0 0 1 3.127-4.2z" class="prefix__cls-9" data-name="Path 754" transform="translate(-655.124 -392.413)"/>
            <path id="prefix__Path_755" d="M673.734 419.954a8.649 8.649 0 0 0 1.349-7.985 15.306 15.306 0 0 0-4.73-6.841 25.409 25.409 0 0 0-8.473-5 8.963 8.963 0 0 0-3.812-.645 4.007 4.007 0 0 0-3.2 1.955c-.889 1.7 0 3.763.889 5.444a64.234 64.234 0 0 0 5.561 8.473c1.671 2.15 3.577 4.271 6.128 5.248s5.18.86 6.529-.909" class="prefix__cls-9" data-name="Path 755" transform="translate(-654.503 -391.768)"/>
            <path id="prefix__Path_756" d="M679.26 451.58c.078-.792-.176-1.192-.059-2.375a40.922 40.922 0 0 1 .665-4.339 32.949 32.949 0 0 1 1.573-5.121 18.778 18.778 0 0 1 2.619-4.632 9.7 9.7 0 0 1 3.3-2.756 9.155 9.155 0 0 1 2.785-.86 5.864 5.864 0 0 0 1.075-.156 4.95 4.95 0 0 0-1.095 0 8.5 8.5 0 0 0-2.932.753 9.772 9.772 0 0 0-3.489 2.776A18.15 18.15 0 0 0 681 439.6a31.718 31.718 0 0 0-1.573 5.2 37.96 37.96 0 0 0-.577 4.4 18.527 18.527 0 0 0 .147 2.336" class="prefix__cls-6" data-name="Path 756" transform="translate(-655.055 -392.491)"/>
            <path id="prefix__Path_757" d="M678.994 450.3a3.462 3.462 0 0 0 0-.508v-1.437c0-1.251 0-3.059.068-5.287.108-4.457.489-10.623 1.231-17.386s1.74-12.862 2.639-17.23c.215-1.1.43-2.082.635-2.932s.362-1.613.518-2.209l.332-1.4a1.614 1.614 0 0 0 .088-.5 2.937 2.937 0 0 0-.176.469l-.41 1.378c-.186.6-.381 1.339-.6 2.2s-.459 1.847-.694 2.932a160.537 160.537 0 0 0-2.776 17.25c-.743 6.783-1.085 12.959-1.114 17.435 0 2.228 0 4.046.078 5.287 0 .586.068 1.065.088 1.446a1.951 1.951 0 0 0 .093.492z" class="prefix__cls-6" data-name="Path 757" transform="translate(-655.053 -391.812)"/>
            <path id="prefix__Path_758" d="M678.63 438.467a11.078 11.078 0 0 0 0-1.505c-.059-.977-.2-2.365-.469-4.075a55.826 55.826 0 0 0-3.8-12.949 37.285 37.285 0 0 0-7.281-11.337 17.593 17.593 0 0 0-1.71-1.593c-.264-.225-.5-.45-.733-.625l-.665-.4a8.923 8.923 0 0 0-1.271-.811 43.768 43.768 0 0 1 4.154 3.694 39.6 39.6 0 0 1 7.1 11.308 54.727 54.727 0 0 1 2.492 6.949c.655 2.179 1.085 4.183 1.417 5.864s.489 3.069.6 4.027a8.437 8.437 0 0 0 .176 1.456z" class="prefix__cls-6" data-name="Path 758" transform="translate(-654.689 -391.898)"/>
        </g>
    </g>
</svg>
