<svg xmlns="http://www.w3.org/2000/svg" xmlns:xlink="http://www.w3.org/1999/xlink" width="272.103" height="232.311" viewBox="0 0 272.103 232.311">
  <defs>
    <linearGradient id="linear-gradient" y1="0.5" x2="1" y2="0.5" gradientUnits="objectBoundingBox">
      <stop offset="0" stop-color="gray" stop-opacity="0.251"/>
      <stop offset="0.54" stop-color="gray" stop-opacity="0.122"/>
      <stop offset="1" stop-color="gray" stop-opacity="0.102"/>
    </linearGradient>
  </defs>
  <g id="vectore" transform="translate(-753.482 -634.467)">
    <g id="undraw_personalization_triu" transform="translate(742.845 628.274)">
      <path id="Path_759" data-name="Path 759" d="M253.32,60.2c-17.444-.606-34.058-6.237-49.922-12.4s-31.578-12.989-48.6-16.253c-10.951-2.1-23.476-2.4-32.3,3.474-8.493,5.66-11.237,15.4-12.711,24.455-1.11,6.808-1.763,13.975,1.278,20.347,2.113,4.426,5.86,8.145,8.452,12.385,9.021,14.749,2.644,32.937-7.129,47.338-4.582,6.757-9.905,13.207-13.444,20.393s-5.175,15.431-2.078,22.767c3.067,7.277,10.38,12.733,18.3,16.573,16.088,7.8,35.039,10.035,53.531,11.3,40.923,2.8,82.061,1.588,123.092.375,15.185-.45,30.435-.906,45.373-3.253,8.3-1.3,16.859-3.372,22.883-8.369,7.644-6.342,9.539-17.08,4.415-25.034-8.593-13.339-32.344-16.652-38.357-30.966-3.3-7.881.089-16.657,4.895-23.967,10.307-15.676,27.581-29.43,28.489-47.348.625-12.307-7.679-24.632-20.519-30.457-13.458-6.1-32.123-5.337-42.047,4.768C286.691,56.735,268.724,60.738,253.32,60.2Z" transform="translate(-84.589 -23.059)" fill="#779be7" opacity="0.1"/>
      <path id="Path_760" data-name="Path 760" d="M428.24,688.518s6.1-.976,9.764,3.336c0,0-2.685,2.116-8.462-.814Z" transform="translate(-331.465 -497.135)" fill="#779be7"/>
      <path id="Path_761" data-name="Path 761" d="M419.869,688.42s-3.894,4.818-1.985,10.128c0,0,3.173-1.27,3.519-7.739Z" transform="translate(-323.745 -497.133)" fill="#779be7"/>
      <path id="Path_762" data-name="Path 762" d="M414,657.53s2.441-4.475,12.205,1.79c0,0-1.3,3.011-5.615,2.767S415.125,659.89,414,657.53Z" transform="translate(-321.363 -474.121)" fill="#779be7"/>
      <path id="Path_763" data-name="Path 763" d="M398.226,660.188s-5.065-.581-5.556,11.014c0,0,3.211.668,5.492-3S399.5,662.478,398.226,660.188Z" transform="translate(-306.232 -477.102)" fill="#779be7"/>
      <path id="Path_764" data-name="Path 764" d="M401.63,617.891s2.848-7.9,13.185-2.281c0,0-2.36,7.245-12.127,4.966Z" transform="translate(-312.588 -444.051)" fill="#779be7"/>
      <path id="Path_765" data-name="Path 765" d="M390.71,578.682s5.37-7.974,14.893-.581c0,0-3.336,7.486-14.08,3.418Z" transform="translate(-304.841 -416.644)" fill="#779be7"/>
      <path id="Path_766" data-name="Path 766" d="M386.79,541.185s6.265-7.323,15.693,0c0,0-5.943,6.428-15.693,1.871Z" transform="translate(-302.061 -390.376)" fill="#779be7"/>
      <path id="Path_767" data-name="Path 767" d="M383.43,503.006s6.347-7.652,15.382-.407c0,0-7.163,6.754-15.382,2.2Z" transform="translate(-299.677 -363.101)" fill="#779be7"/>
      <path id="Path_768" data-name="Path 768" d="M385.39,464.872s6.684-9.846,15.137-3.173c0,0-7.163,8.465-15.137,5.045Z" transform="translate(-301.067 -334.652)" fill="#779be7"/>
      <path id="Path_769" data-name="Path 769" d="M390.71,426.9s7.079-9.764,15.3-2.278c0,0-8.384,8.462-15.3,4.068Z" transform="translate(-304.841 -307.994)" fill="#779be7"/>
      <path id="Path_770" data-name="Path 770" d="M397.946,388.994s8.378-9.174,15.693-5.521c0,0-8.735,9.744-16.059,7.954Z" transform="translate(-309.715 -280.194)" fill="#779be7"/>
      <path id="Path_771" data-name="Path 771" d="M407.243,351.455s9.686-11.232,15.3-7.489c0,0-7.126,8.718-15.983,9.6Z" transform="translate(-316.085 -252.236)" fill="#779be7"/>
      <path id="Path_772" data-name="Path 772" d="M420.686,315.612s8.468-9.177,14.652-6.9c0,0-7.242,9.523-15.788,9.767Z" transform="translate(-325.3 -227.512)" fill="#779be7"/>
      <path id="Path_773" data-name="Path 773" d="M435.647,279.436s9.357-8.788,13.426-7.242c0,0-6.754,9.764-13.833,9.195Z" transform="translate(-336.431 -201.734)" fill="#779be7"/>
      <path id="Path_774" data-name="Path 774" d="M449.52,240.773s8.056-10.5,12.449-9.683c0,0-4.882,9.357-12.449,10.752Z" transform="translate(-346.561 -172.673)" fill="#779be7"/>
      <path id="Path_775" data-name="Path 775" d="M462.781,200.4s7.123-8.05,10.967-8.029c0,0-5.62,10.752-11.258,10.654Z" transform="translate(-355.762 -145.236)" fill="#779be7"/>
      <path id="Path_776" data-name="Path 776" d="M469.638,149.392l6.876-16.762s.346,15.152-7.753,19.871Z" transform="translate(-360.21 -102.857)" fill="#779be7"/>
      <path id="Path_777" data-name="Path 777" d="M481.267,89.755s1.139-14,.407-15.135c0,0,4.92,11.624-.453,21.319Z" transform="translate(-369.049 -61.705)" fill="#779be7"/>
      <path id="Path_778" data-name="Path 778" d="M372.039,625.547s-7.134-4.42-11.749,6.393c0,0,6.347,4.214,12.586-3.635Z" transform="translate(-283.262 -451.896)" fill="#779be7"/>
      <path id="Path_779" data-name="Path 779" d="M358.213,584.55s-8.747-3.99-12.993,7.3c0,0,6.759,4.65,13.789-4.446Z" transform="translate(-272.571 -422.962)" fill="#779be7"/>
      <path id="Path_780" data-name="Path 780" d="M347.083,543.495s-6.265-7.323-15.693,0c0,0,5.94,6.428,15.693,1.872Z" transform="translate(-262.76 -392.014)" fill="#779be7"/>
      <path id="Path_781" data-name="Path 781" d="M345.152,503.006s-6.35-7.652-15.382-.407c0,0,7.161,6.754,15.382,2.2Z" transform="translate(-261.611 -363.101)" fill="#779be7"/>
      <path id="Path_782" data-name="Path 782" d="M350.9,461s-4.452-11.028-14.129-6.286c0,0,5.231,9.782,13.737,8.117Z" transform="translate(-266.577 -330.505)" fill="#779be7"/>
      <path id="Path_783" data-name="Path 783" d="M357.88,421.119s-4.423-11.22-14.24-6.018c0,0,6.01,10.284,13.8,7.753Z" transform="translate(-271.45 -302.264)" fill="#779be7"/>
      <path id="Path_784" data-name="Path 784" d="M378,372.046s-1.744-12.3-9.866-13.406c0,0,1.723,12.973,8.782,15.62Z" transform="translate(-288.823 -263.188)" fill="#779be7"/>
      <path id="Path_785" data-name="Path 785" d="M391.54,334.235s-.683-14.821-7.41-15.335c0,0,.227,11.246,6.652,17.436Z" transform="translate(-300.174 -234.996)" fill="#779be7"/>
      <path id="Path_786" data-name="Path 786" d="M405.3,298.12s-2.008-12.322-8.427-13.83c0,0,.8,11.935,7.791,16.855Z" transform="translate(-309.211 -210.444)" fill="#779be7"/>
      <path id="Path_787" data-name="Path 787" d="M428.15,261.925s-.07-12.839-3.993-14.725c0,0-2.432,11.624,2.857,16.364Z" transform="translate(-328.173 -184.133)" fill="#779be7"/>
      <path id="Path_788" data-name="Path 788" d="M438.9,227.175s-.552-13.222-4.612-15.085c0,0-1.392,10.462,4,15.948Z" transform="translate(-335.64 -159.226)" fill="#779be7"/>
      <path id="Path_789" data-name="Path 789" d="M456,191.195s-.026-10.752-2.926-13.275c0,0-2.883,11.781,1.412,15.437Z" transform="translate(-348.407 -134.986)" fill="#779be7"/>
      <path id="Path_790" data-name="Path 790" d="M461.083,144.8l-2.819-17.9s-3.836,14.667,2.953,21.127Z" transform="translate(-351.998 -98.792)" fill="#779be7"/>
      <path id="Path_791" data-name="Path 791" d="M455.178,94.648s-7.245-12.028-7.094-13.368c0,0,.767,12.612,9.88,18.889Z" transform="translate(-345.541 -66.43)" fill="#779be7"/>
      <path id="Path_792" data-name="Path 792" d="M451.187,69.964s-6.835-17.09-9.927-18.474c0,0,9.764,4.964,10.5,17.985Z" transform="translate(-340.701 -45.297)" fill="#779be7"/>
      <path id="Path_793" data-name="Path 793" d="M461.218,145.606l-.468-.142c5.768-18.811,7.21-30.8,4.054-33.809l.337-.355C468.483,114.47,467.129,126.324,461.218,145.606Z" transform="translate(-354.527 -87.726)" fill="#444053"/>
      <path id="Path_794" data-name="Path 794" d="M406.019,270.005l-.689-.244c.61-1.723,1.27-3.473,1.962-5.2,6.021-15.007,11.148-28.964,14.434-39.682l.6-.291c-3.293,10.738-8.326,25.233-14.356,40.257C407.283,266.556,406.626,268.3,406.019,270.005Z" transform="translate(-315.213 -168.093)" fill="#444053"/>
      <path id="Path_795" data-name="Path 795" d="M403.327,480.484c-.093-.1-9.445-10.63-15.96-28.607a105.9,105.9,0,0,1-6.306-32.768c-.447-13.987,2.488-29.6,7.515-43.788l.546.639c-11.284,31.839-6.8,59.123-.854,75.557,6.451,17.811,15.693,28.226,15.786,28.328Z" transform="translate(-297.964 -275.021)" fill="#444053"/>
      <g id="Group_110" data-name="Group 110" transform="translate(-50)">
        <rect id="Rectangle_257" data-name="Rectangle 257" width="2.575" height="21.22" rx="1.287" transform="translate(186.801 84.223)" fill="#3a3768"/>
        <rect id="Rectangle_258" data-name="Rectangle 258" width="1.444" height="6.986" rx="0.722" transform="translate(101.239 67.598)" fill="#3a3768"/>
        <rect id="Rectangle_259" data-name="Rectangle 259" width="1.627" height="12.159" rx="0.814" transform="translate(101.186 80.39)" fill="#3a3768"/>
        <rect id="Rectangle_260" data-name="Rectangle 260" width="1.549" height="12.263" rx="0.774" transform="translate(101.213 96.803)" fill="#3a3768"/>
        <rect id="Rectangle_261" data-name="Rectangle 261" width="86.135" height="175.057" rx="9" transform="translate(102.055 44.512)" fill="#3a3768"/>
        <path id="Path_796" data-name="Path 796" d="M533.384,199H523.5v1.189a5.632,5.632,0,0,1-5.635,5.632H486.446a5.632,5.632,0,0,1-5.635-5.632V199h-9.25a6.841,6.841,0,0,0-6.841,6.841V358.108a6.841,6.841,0,0,0,6.841,6.841h61.823a6.841,6.841,0,0,0,6.841-6.841V205.852A6.841,6.841,0,0,0,533.384,199Z" transform="translate(-357.344 -149.94)" fill="#779be7"/>
        <rect id="Rectangle_262" data-name="Rectangle 262" width="12.028" height="2.441" rx="1.221" transform="translate(136.814 49.74)" fill="#e6e8ec"/>
        <circle id="Ellipse_158" data-name="Ellipse 158" cx="1.386" cy="1.386" r="1.386" transform="translate(150.662 49.575)" fill="#e6e8ec"/>
        <path id="Path_797" data-name="Path 797" d="M792.16,156.852s-24.469-1.476-21.586,15.669a4.166,4.166,0,0,0,2.174,4.406s.044-1.27,2.511-.837a11.48,11.48,0,0,0,2.659.128,5.539,5.539,0,0,0,3.249-1.328h0s6.879-2.842,9.552-14.083c0,0,1.979-2.453,1.9-3.083l-4.13,1.764s1.412,2.979.291,5.455c0,0-.134-5.347-.927-5.231-.16.023-2.145,1.032-2.145,1.032s2.427,5.187.6,8.959c0,0,.695-6.393-1.354-8.584l-2.906,1.7s2.836,5.359.912,9.732c0,0,.494-6.707-1.526-9.32l-2.633,2.055s2.665,5.28,1.04,8.907c0,0-.212-7.806-1.61-8.4a16.19,16.19,0,0,0-2.656,2.865s1.825,3.836.692,5.859c0,0-.695-5.2-1.264-5.231,0,0-2.3,3.447-2.534,5.812a12.522,12.522,0,0,1,1.979-6.138,6.918,6.918,0,0,0-3.516,1.819s.357-2.435,4.083-2.65c0,0,1.9-2.615,2.4-2.772,0,0-3.7-.311-5.949.686,0,0,1.976-2.3,6.629-1.252l2.6-2.124s-4.876-.665-6.945.07c0,0,2.38-2.034,7.646-.552l2.831-1.691a25.969,25.969,0,0,0-6.635-.581s2.615-1.409,7.466.119l2.034-.91s-3.046-.6-3.938-.695-.939-.34-.939-.34a10.563,10.563,0,0,1,5.722.636S792.232,157.122,792.16,156.852Z" transform="translate(-574.148 -120.018)" fill="#779be7"/>
        <path id="Path_798" data-name="Path 798" d="M735,130.655s-11.043-.665-9.753,7.082a1.89,1.89,0,0,0,.982,1.991s.02-.581,1.136-.381a5.086,5.086,0,0,0,1.2.058,2.488,2.488,0,0,0,1.468-.6h0s3.109-1.284,4.318-6.364c0,0,.892-1.107.857-1.392l-1.866.8a3.353,3.353,0,0,1,.137,2.464s-.061-2.415-.419-2.36c-.073,0-.971.468-.971.468s1.1,2.345.27,4.048c0,0,.314-2.889-.613-3.88l-1.314.779s1.281,2.421.413,4.4c0,0,.224-3.031-.689-4.211l-1.189.93s1.2,2.386.471,4.025c0,0-.1-3.528-.729-3.8a7.292,7.292,0,0,0-1.2,1.3s.825,1.744.314,2.647c0,0-.314-2.351-.581-2.363A7.82,7.82,0,0,0,726.1,138.9a5.673,5.673,0,0,1,.9-2.772,3.126,3.126,0,0,0-1.589.822s.163-1.1,1.845-1.2a7.949,7.949,0,0,1,1.087-1.255,6.814,6.814,0,0,0-2.688.311s.892-1.037,2.993-.567l1.162-.959a10.03,10.03,0,0,0-3.139.032s1.075-.918,3.455-.25l1.279-.764a11.644,11.644,0,0,0-3-.259,4.606,4.606,0,0,1,3.374.052l.915-.41s-1.377-.27-1.781-.314-.424-.154-.424-.154a4.763,4.763,0,0,1,2.586.291A11.828,11.828,0,0,0,735,130.655Z" transform="translate(-542.084 -101.446)" fill="#779be7"/>
        <rect id="Rectangle_263" data-name="Rectangle 263" width="60.14" height="127.645" transform="translate(115.054 65.729)" opacity="0.1"/>
        <path id="Path_799" data-name="Path 799" d="M549.479,550.713s-1.418-3.3-2.052-4.824a1.388,1.388,0,0,0-1.424-1l.026-.291.113-1.375.023-.291c1.1-.23,2.034-.41,2.034-.41l-.683-35.256a11.356,11.356,0,0,1-.994-2.615c-.349-1.119-2.034-2.493-3.609-3.589-.247-.172-.488-.334-.727-.491a18.115,18.115,0,0,1,1.8-1.331c.895-.52,1.191-3.487,1.191-3.487l-.148.291c.148-.291,0-7.867,0-7.867l-.523-7.864s-.372-9.349-3.278-11.8a17.772,17.772,0,0,0-6.576-3.307l-2.034-.523h0l-3.749-.962a4.794,4.794,0,0,1-.291-.54c-.038-.073-.073-.148-.108-.224a8.776,8.776,0,0,0,3.705-7.163,8.629,8.629,0,0,0-.113-1.406,1.409,1.409,0,0,0-.049-.264,7.319,7.319,0,0,0,.872-.7,3.96,3.96,0,0,0,1.064-1.3h0a2.211,2.211,0,0,0,.1-.305.172.172,0,0,1,.017-.09,1.171,1.171,0,0,0,.035-.232v-.407a2.028,2.028,0,0,0-.029-.291.036.036,0,0,0,0-.017h0a5,5,0,0,0-.262-.988,11.825,11.825,0,0,1-.8-2.252c-.169-.944.026-1.976-.424-2.825a2.519,2.519,0,0,0-1.77-1.218,4.17,4.17,0,0,0-2.185.25,3.107,3.107,0,0,1-1.078.291,2.251,2.251,0,0,1-.787-.192,11.68,11.68,0,0,1-2.441-1.311,11.679,11.679,0,0,0-1.744-1.139,2.359,2.359,0,0,0-2.011-.081c-1.075.546-1.279,2.069-2.278,2.74a4.517,4.517,0,0,1-2.418.448,2.506,2.506,0,0,0-2.182.956,2.759,2.759,0,0,0-.166,1.68l.017.2a.874.874,0,0,0,.017.212,5.338,5.338,0,0,1-.328,2.2c-.4,1.064-1.162,2.113-1.136,3.2h0a2.224,2.224,0,0,0,.067.512,2.45,2.45,0,0,0,.081.247h0a10.8,10.8,0,0,0,.538,1.049l.026.047c.02.041.041.081.058.122s.052.11.073.166.023.055.032.081.038.108.052.163a1.559,1.559,0,0,1,.061.506,4.692,4.692,0,0,0-.055.665.488.488,0,0,0,.389.474.648.648,0,0,0,.337-.1,5.406,5.406,0,0,0,.741-.509,1.7,1.7,0,0,0,.017.291,8.794,8.794,0,0,0,2.642,5.472,1.479,1.479,0,0,1-.02.29,2.331,2.331,0,0,0-.02.317h0l-3.255,1.023s.018.058.052.157l-.343.137h0a24.474,24.474,0,0,0-4.621,2.3c-.465.337-.889.613-1.27.843a7.265,7.265,0,0,0-3.011,3.647l-.043.11c-.291.666-1.715,5.193-1.715,5.193a18.848,18.848,0,0,0-1.194,4.156s-1.715,5.414-1.267,8.977c0,0-1.343,5.12-.82,5.934,0,0-.535,2.2,1.813,4.42-.171.1-.357.218-.552.343-1.819,1.145-4.443,3-4.891,4.435a11.229,11.229,0,0,1-.994,2.615l-.7,35.2s.939.18,2.034.407l.023.291.113,1.372.026.291a1.405,1.405,0,0,0-1.424,1c-.636,1.52-2.034,4.818-2.034,4.818s-3.13,2.906-1.232,5.6a1.949,1.949,0,0,0,.291.337c1.363,1.238,4.269.445,6.335-.363a6.178,6.178,0,0,0,2.615-2.11.993.993,0,0,1,.7-.386,2.848,2.848,0,0,0,1.3-.567,1.743,1.743,0,0,0,.715-1.453.22.22,0,0,1,0-.043l-.183-4.135s-.224-2.889-.936-2.7l-.183.044-.049-.291h0l-.1-.561-.049-.291h.4a17.306,17.306,0,0,1,1.293-5.835c1.194-2.569,1.979-23.321,1.979-23.321s14.783.241,15.277-1.145h0c.291,0,.607,0,.909-.02.5,1.386,14.449,1.453,14.449,1.453s.793,20.775,1.985,23.347a11.872,11.872,0,0,1,.625,1.7h0a19.009,19.009,0,0,1,.671,4.13h.4l-.052.291-.1.558-.049.291-.189-.044c-.706-.183-.93,2.706-.93,2.706l-.189,4.161a1.689,1.689,0,0,0,.692,1.453,2.906,2.906,0,0,0,1.322.581.97.97,0,0,1,.7.384,6.2,6.2,0,0,0,2.615,2.11c2.232.872,5.44,1.723,6.632.029C552.609,553.607,549.479,550.713,549.479,550.713ZM511.9,498.886Zm23.35-11.88a6.3,6.3,0,0,0,1.043,2.15c.669.741.337,5.344.337,5.344a4.133,4.133,0,0,0-.779.125C535.341,491.566,534.868,488.169,535.254,487.007Z" transform="translate(-376.127 -321.705)" fill="url(#linear-gradient)"/>
        <path id="Path_800" data-name="Path 800" d="M421.63,756.987l-5.844.581-.163-1.956-.113-1.346-.16-1.967,5.521.291.439,2.525.093.549h0Z" transform="translate(-294.647 -533.678)" fill="#8e6f7f"/>
        <path id="Path_801" data-name="Path 801" d="M568.073,753.31l-.16,1.964-.11,1.345-.166,1.956-5.847-.581.233-1.322.09-.546.439-2.525Z" transform="translate(-398.531 -534.395)" fill="#8e6f7f"/>
        <path id="Path_802" data-name="Path 802" d="M568.592,654l-17.378.817q-1.186.058-2.371,0L532.24,654V640.85h36.352Z" transform="translate(-405.242 -463.387)" fill="#5f5570"/>
        <path id="Path_803" data-name="Path 803" d="M568.592,654l-17.378.817q-1.186.058-2.371,0L532.24,654V640.85h36.352Z" transform="translate(-405.242 -463.387)" opacity="0.1"/>
        <path id="Path_804" data-name="Path 804" d="M544.105,518.91s-5.789,1.944-7.968,3.542c-.453.331-.872.6-1.238.828a7.09,7.09,0,0,0-2.926,3.569c-.015.041-.029.076-.044.108-.291.654-1.671,5.086-1.671,5.086a18.442,18.442,0,0,0-1.162,4.068c-.145,1.6,8.282,5.885,8.282,5.885s-4.068,8.863-2.252,11.116,28.334,3.342,27.753,0-1.6-8.863-1.09-10.389l9.009-6.539s-.363-9.154-3.2-11.551a17.661,17.661,0,0,0-6.393-3.269l-5.641-1.453s-1.988,4.94-4.167,5.594S544.445,523.138,544.105,518.91Z" transform="translate(-403.01 -376.883)" fill="#eaeaf2"/>
        <path id="Path_805" data-name="Path 805" d="M592.4,547.54s-2.458,2.052-3.749,0c0,0-1.162,3.47,0,4.632l-.044.235-.206,1.035-2.691,22.377,2.214,3.821,4.031-5.057-.325-20.923-.145-1.2-.035-.291h.689S593.966,549.01,592.4,547.54Z" transform="translate(-443.174 -397.193)" opacity="0.1"/>
        <path id="Path_806" data-name="Path 806" d="M594.4,547.54s-2.458,2.052-3.749,0c0,0-1.162,3.47,0,4.632l-.044.235-.206,1.035-2.691,22.377,2.214,3.821,4.031-5.057-.326-20.923-.145-1.2-.035-.291h.689S595.966,549.01,594.4,547.54Z" transform="translate(-444.592 -397.193)" opacity="0.1"/>
        <path id="Path_807" data-name="Path 807" d="M497.711,552.416l-4.031,5.048-2.22-3.8,2.694-22.388.206-1.035.047-.238.363-.942,2.435.942.035.291.145,1.2Z" transform="translate(-348.639 -375.313)" fill="#bc8487"/>
        <path id="Path_808" data-name="Path 808" d="M516.54,785.286a19.734,19.734,0,0,1-3.734-.381c-.607-.151-1.369-.32-2.063-.468l-.163-1.967,5.521.291Z" transform="translate(-389.877 -563.851)" opacity="0.1"/>
        <path id="Path_809" data-name="Path 809" d="M530.464,654.807c-.482,1.357-14.89,1.119-14.89,1.119s-.773,20.342-1.935,22.862a17.089,17.089,0,0,0-1.261,5.713,21.469,21.469,0,0,1-4.068-.387c-1.552-.386-4.068-.872-4.068-.872l.68-34.509a10.561,10.561,0,0,0,.968-2.546c.436-1.4,2.993-3.223,4.763-4.359.988-.622,1.726-1.029,1.726-1.029l8.6.349,5.306.215S530.949,653.45,530.464,654.807Z" transform="translate(-385.379 -463.351)" fill="#5f5570"/>
        <path id="Path_810" data-name="Path 810" d="M517.523,795.245l-5.847.581-.166-1.956a1.744,1.744,0,0,1,.636.14c1.066.767,4.115.157,5.147-.087h0Z" transform="translate(-390.537 -571.939)" opacity="0.1"/>
        <path id="Path_811" data-name="Path 811" d="M506.07,801.58a1.706,1.706,0,0,1-.7,1.421,2.777,2.777,0,0,1-1.264.555.944.944,0,0,0-.677.378A6.064,6.064,0,0,1,500.871,806c-2.014.791-4.847,1.566-6.175.355a1.837,1.837,0,0,1-.291-.328c-1.851-2.65,1.2-5.486,1.2-5.486s1.377-3.232,2-4.719a1.453,1.453,0,0,1,2-.837c1.162.837,4.687.035,5.376-.142s.91,2.647.91,2.647l.186,4.048A.222.222,0,0,0,506.07,801.58Z" transform="translate(-377.979 -572.621)" fill="#bc8487"/>
        <path id="Path_812" data-name="Path 812" d="M664.1,783.48l-.163,1.964c-.694.148-1.453.317-2.066.468a19.776,19.776,0,0,1-3.731.384l.439-2.525Z" transform="translate(-494.555 -564.568)" opacity="0.1"/>
        <path id="Path_813" data-name="Path 813" d="M622.9,684.278s-2.517.485-4.068.872a21.475,21.475,0,0,1-4.068.386,17.035,17.035,0,0,0-1.258-5.713c-1.162-2.517-1.938-22.862-1.938-22.862s-13.594-.078-14.08-1.436,5.925-13.077,5.925-13.077l3.909-.2,7.442-.4a35.029,35.029,0,0,1,2.976,1.857c1.523,1.067,3.176,2.421,3.516,3.516a10.557,10.557,0,0,0,.968,2.546Z" transform="translate(-451.509 -464.096)" fill="#5f5570"/>
        <path id="Path_814" data-name="Path 814" d="M663.033,794.87l-.163,1.956-5.85-.581.233-1.322c1.032.247,4.068.854,5.144.087A1.743,1.743,0,0,1,663.033,794.87Z" transform="translate(-493.761 -572.648)" opacity="0.1"/>
        <path id="Path_815" data-name="Path 815" d="M659.731,795.976a1.453,1.453,0,0,1,2,.837c.616,1.488,2,4.722,2,4.722s3.051,2.833,1.2,5.484c-1.163,1.662-4.289.828-6.463-.026a6.026,6.026,0,0,1-2.557-2.066.948.948,0,0,0-.68-.378,2.852,2.852,0,0,1-1.29-.581,1.663,1.663,0,0,1-.671-1.418l.183-4.068s.218-2.828.907-2.65S658.569,796.813,659.731,795.976Z" transform="translate(-491.095 -573.324)" fill="#bc8487"/>
        <path id="Path_816" data-name="Path 816" d="M591.829,514.66l-5.867,6.219-.163.174-.212-.125c-1.226-.726-7.361-4.429-6.835-5.542a11.4,11.4,0,0,0,.552-3.089c0-.137.017-.27.029-.4.058-.9.073-1.6.073-1.6s11.043-1.889,10.607,0a3.692,3.692,0,0,0,.462,2.377c.11.218.233.424.352.619A9.591,9.591,0,0,0,591.829,514.66Z" transform="translate(-438.215 -370.18)" fill="#ffc4d0"/>
        <path id="Path_817" data-name="Path 817" d="M591.972,512.678a8.616,8.616,0,0,1-11.142-.782c.058-.9.073-1.6.073-1.6s11.043-1.889,10.607,0A3.74,3.74,0,0,0,591.972,512.678Z" transform="translate(-439.712 -370.18)" opacity="0.1"/>
        <path id="Path_818" data-name="Path 818" d="M589.13,474.592a8.622,8.622,0,0,1-17.215.82q-.035-.407-.035-.82a8.621,8.621,0,1,1,17.243,0Z" transform="translate(-433.363 -339.327)" fill="#ffc4d0"/>
        <path id="Path_819" data-name="Path 819" d="M589.079,473.023a2.063,2.063,0,0,1-1.622.439c-1.331-.291-1.787-2.325-3.147-2.464s-2.264,1.744-3.641,1.706a4.219,4.219,0,0,1-1.639-.66,5.2,5.2,0,0,0-3.487-.4c-1.52.52-2.034,1.927-3,3.046a4.434,4.434,0,0,1-.543.526q-.035-.407-.035-.819a8.622,8.622,0,0,1,17.146-1.378Z" transform="translate(-433.419 -339.136)" opacity="0.1"/>
        <path id="Path_820" data-name="Path 820" d="M573.316,457.936a4.194,4.194,0,0,0,1.639.66c1.375.035,2.272-1.857,3.638-1.709s1.816,2.165,3.153,2.464a2.917,2.917,0,0,0,2.415-1.093,3.846,3.846,0,0,0,1.037-1.276,3.225,3.225,0,0,0-.131-2.284,12.937,12.937,0,0,1-.785-2.206,9.149,9.149,0,0,0-.413-2.767,2.449,2.449,0,0,0-1.726-1.191,4.069,4.069,0,0,0-2.13.241,3.015,3.015,0,0,1-1.049.291,2.222,2.222,0,0,1-.77-.189,11.375,11.375,0,0,1-2.377-1.282,11.143,11.143,0,0,0-1.694-1.116,2.284,2.284,0,0,0-1.959-.078c-1.046.535-1.247,2.034-2.22,2.682a4.431,4.431,0,0,1-2.354.439,2.427,2.427,0,0,0-2.127.933,3.662,3.662,0,0,0-.128,2.049,5.258,5.258,0,0,1-.323,2.15c-.45,1.2-1.366,2.389-1.04,3.633.212.817.945,1.494.9,2.325a4.433,4.433,0,0,0-.055.648.48.48,0,0,0,.381.465.582.582,0,0,0,.326-.1,4.857,4.857,0,0,0,1.282-1.037c.982-1.122,1.491-2.525,3.011-3.045A5.255,5.255,0,0,1,573.316,457.936Z" transform="translate(-427.705 -325.316)" fill="#8e6f7f"/>
        <path id="Path_821" data-name="Path 821" d="M598.783,651.452l-1.569.427-3.624,1a8.758,8.758,0,0,1-2.787,1.386c-2.217.561-3.65-.66-4.841-2.549a1.24,1.24,0,0,1,.389-1.834c1.511-1.142,5.248-1.514,6.393-1.363a4.783,4.783,0,0,0,2.206-.343,8.523,8.523,0,0,0,1.427-.674Z" transform="translate(-443.173 -468.104)" fill="#ffc4d0"/>
        <path id="Path_822" data-name="Path 822" d="M621.371,651.431l-1.569.427c-.451-1.357-1.192-3.06-2.252-3.714a8.531,8.531,0,0,0,1.427-.674Z" transform="translate(-465.761 -468.083)" opacity="0.1"/>
        <path id="Path_823" data-name="Path 823" d="M633.424,643.707c-.651.526-1.2,1.005-1.2,1.005s-7.556,2.368-9.009,5.347c0,0-1.162-5.812-3.633-5.885a12.43,12.43,0,0,0,3.426-1.936l7.448-.389A34.434,34.434,0,0,1,633.424,643.707Z" transform="translate(-467.201 -464.096)" opacity="0.1"/>
        <path id="Path_824" data-name="Path 824" d="M631.892,569.85l1.671,2.47.509,7.7s.145,7.41,0,7.7l.145-.291s-.291,2.906-1.162,3.415a30.515,30.515,0,0,0-2.834,2.209s-7.556,2.368-9.009,5.347c0,0-1.162-5.812-3.632-5.885,0,0,3.705-1.453,3.632-2.4,0,0,2.833-2.543,3.051-3.2s1.633-.726,1.633-.726.328-4.5-.325-5.231a6.141,6.141,0,0,1-1.017-2.107Z" transform="translate(-465.782 -413.02)" fill="#eaeaf2"/>
        <path id="Path_825" data-name="Path 825" d="M590.8,660.042c-2.217.561-3.65-.66-4.841-2.549a1.24,1.24,0,0,1,.389-1.834l.227.09S590.574,657.482,590.8,660.042Z" transform="translate(-443.173 -473.893)" opacity="0.1"/>
        <path id="Path_826" data-name="Path 826" d="M572.5,660.016c-2.615,3.633-7.483-1.418-7.846-2.435a2.232,2.232,0,0,0-1.2-.962,12.943,12.943,0,0,0-2.252-.747l4.324-3.522.828.331,2.549,1.02S575.114,656.384,572.5,660.016Z" transform="translate(-425.786 -471.545)" fill="#ffc4d0"/>
        <path id="Path_827" data-name="Path 827" d="M566.338,652.681c-2.383,1.133-2.891,2.764-2.906,3.938a12.945,12.945,0,0,0-2.252-.747l4.324-3.522Z" transform="translate(-425.772 -471.545)" opacity="0.1"/>
        <path id="Path_828" data-name="Path 828" d="M537.809,650.8s-6.975-5.521-10.316-7.919a8.176,8.176,0,0,1-1.162-1.006c.988-.622,1.726-1.029,1.726-1.029l8.6.349c.229.4.366.668.366.668l4.65,3.051C536.065,646.735,537.809,650.8,537.809,650.8Z" transform="translate(-401.05 -463.387)" opacity="0.1"/>
        <path id="Path_829" data-name="Path 829" d="M525.208,575.35l-1.38.8s-1.671,5.3-1.235,8.791c0,0-1.308,5.013-.8,5.812,0,0-.654,2.688,2.688,5.086s10.316,7.919,10.316,7.919-1.744-4.068,3.851-5.885L534,594.82s-1.561-3.1-3.051-3.778c0,0-1.162-1.162-.436-1.962a4.144,4.144,0,0,0,1.308-2.47c0-.8.291-4.577.291-4.577l.872-4.068Z" transform="translate(-397.748 -416.921)" fill="#eaeaf2"/>
        <path id="Path_830" data-name="Path 830" d="M599.55,560.462h-2.833a.383.383,0,0,1-.047-.052l.047-.238.363-.942,2.435.942Z" transform="translate(-450.949 -405.486)" opacity="0.1"/>
        <path id="Path_831" data-name="Path 831" d="M599.318,546.54s-2.458,2.052-3.749,0c0,0-1.162,3.47,0,4.632h3.487S600.884,548.01,599.318,546.54Z" transform="translate(-449.801 -396.484)" fill="#bc8487"/>
        <path id="Path_832" data-name="Path 832" d="M609.046,523.35l3.662.944s-3.47,9.009-4.234,9.009L604.08,531.2Z" transform="translate(-456.205 -380.033)" opacity="0.1"/>
        <path id="Path_833" data-name="Path 833" d="M608.592,523.555l-5.867,6.219-.163.174-.212-.125L607.479,522l.125.206A9.6,9.6,0,0,0,608.592,523.555Z" transform="translate(-454.978 -379.075)" opacity="0.1"/>
        <path id="Path_834" data-name="Path 834" d="M608.046,522.35l3.661.945s-3.47,9.009-4.234,9.009L603.08,530.2Z" transform="translate(-455.496 -379.323)" fill="#eaeaf2"/>
        <path id="Path_835" data-name="Path 835" d="M572,519.91l-3.173,1s3.124,9.445,4,9.953l5.667-2.107Z" transform="translate(-431.199 -377.592)" opacity="0.1"/>
        <path id="Path_836" data-name="Path 836" d="M585.963,527.369l-.163.174s-7.628-4.432-7.047-5.667a11.4,11.4,0,0,0,.552-3.089v-.177Z" transform="translate(-438.216 -376.67)" opacity="0.1"/>
        <path id="Path_837" data-name="Path 837" d="M573,518.91l-3.173,1s3.124,9.445,4,9.953l5.667-2.107Z" transform="translate(-431.909 -376.883)" fill="#eaeaf2"/>
        <path id="Path_838" data-name="Path 838" d="M554.74,571.411a2.306,2.306,0,0,1,1.877,2.325c-.035,1.985.788-2.566.788-2.566Z" transform="translate(-421.204 -413.956)" opacity="0.1"/>
        <path id="Path_839" data-name="Path 839" d="M555.663,593a18.012,18.012,0,0,0,0,5.716c.532,2.714.485,3.632.9,3.778S555.663,593,555.663,593Z" transform="translate(-421.691 -429.442)" opacity="0.1"/>
        <path id="Path_840" data-name="Path 840" d="M638,592a1.052,1.052,0,0,0-.872,1.357C637.367,594.572,638,592,638,592Z" transform="translate(-479.612 -428.733)" opacity="0.1"/>
        <path id="Path_841" data-name="Path 841" d="M525.91,626.69s6.228-.532,7.265.581S525.91,626.69,525.91,626.69Z" transform="translate(-400.752 -453.252)" opacity="0.1"/>
        <path id="Path_842" data-name="Path 842" d="M650.24,627.972s4.554-.561,5.62.215" transform="translate(-488.951 -454.112)" opacity="0.1"/>
        <path id="Path_843" data-name="Path 843" d="M656.58,631a14.537,14.537,0,0,1,3.342.436" transform="translate(-493.449 -456.399)" opacity="0.1"/>
        <path id="Path_844" data-name="Path 844" d="M658.41,634.324s2.47-.1,2.81.291" transform="translate(-494.747 -458.75)" opacity="0.1"/>
        <path id="Path_845" data-name="Path 845" d="M538.54,681.35s2.116,1.1,1.9,2.226S538.54,681.35,538.54,681.35Z" transform="translate(-409.711 -492.117)" opacity="0.1"/>
        <path id="Path_846" data-name="Path 846" d="M532.24,683.19s3.229,4.188,2.79,5.568S532.24,683.19,532.24,683.19Z" transform="translate(-405.242 -493.422)" opacity="0.1"/>
        <path id="Path_847" data-name="Path 847" d="M647.533,685.58s-1.6,1.316-1.555,2.4" transform="translate(-485.927 -495.118)" opacity="0.1"/>
        <path id="Path_848" data-name="Path 848" d="M524.33,774.85s0,1.235,2.287,3.051" transform="translate(-399.631 -558.446)" opacity="0.1"/>
        <path id="Path_849" data-name="Path 849" d="M657.21,764.85a5.508,5.508,0,0,1-2.47,3.9" transform="translate(-492.143 -551.352)" opacity="0.1"/>
        <g id="Group_103" data-name="Group 103" transform="translate(136.2 125.695)" opacity="0.1">
          <path id="Path_850" data-name="Path 850" d="M568.653,463.32c0-.2-.035-.407-.052-.61a5.857,5.857,0,0,0,.041,1.331A5.42,5.42,0,0,0,568.653,463.32Z" transform="translate(-567.222 -462.71)"/>
          <path id="Path_851" data-name="Path 851" d="M564.876,486.784c.044-.843-.689-1.52-.9-2.325a.8.8,0,0,1-.023-.119,2.243,2.243,0,0,0,.023.991c.172.665.689,1.235.852,1.88C564.841,487.06,564.87,486.923,564.876,486.784Z" transform="translate(-563.907 -478.054)"/>
          <path id="Path_852" data-name="Path 852" d="M587.458,479.168a3.874,3.874,0,0,1-1.037,1.276,2.924,2.924,0,0,1-2.415,1.093c-1.334-.291-1.793-2.325-3.153-2.464s-2.264,1.744-3.638,1.706a4.219,4.219,0,0,1-1.639-.66,5.194,5.194,0,0,0-3.487-.4c-1.52.52-2.034,1.927-3.011,3.046a4.9,4.9,0,0,1-1.279,1.04.617.617,0,0,1-.329.1.4.4,0,0,1-.325-.262v.02a4.489,4.489,0,0,0-.055.651.48.48,0,0,0,.381.462.617.617,0,0,0,.329-.1,4.9,4.9,0,0,0,1.279-1.04c.982-1.119,1.491-2.525,3.011-3.046a5.177,5.177,0,0,1,3.487.4,4.151,4.151,0,0,0,1.639.66c1.375.035,2.272-1.857,3.638-1.706s1.819,2.162,3.153,2.464a2.917,2.917,0,0,0,2.415-1.093,3.875,3.875,0,0,0,1.037-1.276,2.453,2.453,0,0,0,.125-1.319A2.057,2.057,0,0,1,587.458,479.168Z" transform="translate(-566.165 -474.068)"/>
        </g>
        <path id="Path_853" data-name="Path 853" d="M500,814.009s2.374-.732,3.359.657" transform="translate(-382.371 -586.088)" opacity="0.1"/>
        <path id="Path_854" data-name="Path 854" d="M680.037,815.429s-3.932-.229-3.778.834" transform="translate(-507.406 -587.218)" opacity="0.1"/>
      </g>
    </g>
    <g id="undraw_mobile_feed_73bd" transform="translate(689.843 686.264)">
      <path id="Path_858" data-name="Path 858" d="M618.39,129.008H617.4V101.837a15.726,15.726,0,0,0-15.726-15.726H544.107a15.726,15.726,0,0,0-15.726,15.726V250.9a15.726,15.726,0,0,0,15.726,15.726h57.565A15.726,15.726,0,0,0,617.4,250.9V148.348h.992Z" transform="translate(-308.73 -86.111)" fill="#3f3d56"/>
      <path id="Path_859" data-name="Path 859" d="M615.462,102.606h-7.514a5.579,5.579,0,0,1-5.166,7.687H569.8a5.579,5.579,0,0,1-5.166-7.687h-7.018a11.744,11.744,0,0,0-11.744,11.744V263.193a11.744,11.744,0,0,0,11.744,11.744h57.843a11.744,11.744,0,0,0,11.744-11.744h0V114.35a11.744,11.744,0,0,0-11.744-11.744Z" transform="translate(-321.885 -98.515)" fill="#fff"/>
      <rect id="Rectangle_266" data-name="Rectangle 266" width="33.634" height="57.459" transform="translate(230.921 31.81)" fill="#e6e6e6"/>
      <rect id="Rectangle_267" data-name="Rectangle 267" width="27.955" height="65.051" transform="translate(270.334 93.77)" fill="#e6e6e6"/>
      <rect id="Rectangle_268" data-name="Rectangle 268" width="28.029" height="15.816" transform="translate(270.362 31.81)" fill="#e6e6e6"/>
      <rect id="Rectangle_269" data-name="Rectangle 269" width="28.029" height="17.017" transform="translate(270.362 52.03)" fill="#e6e6e6"/>
      <rect id="Rectangle_270" data-name="Rectangle 270" width="28.029" height="15.816" transform="translate(270.362 73.452)" fill="#e6e6e6"/>
      <rect id="Rectangle_271" data-name="Rectangle 271" width="33.634" height="25.04" transform="translate(230.963 93.77)" fill="#779be7"/>
      <rect id="Rectangle_272" data-name="Rectangle 272" width="33.634" height="35.21" transform="translate(230.963 123.664)" fill="#e6e6e6"/>
      <g id="Group_109" data-name="Group 109" transform="translate(234.62 34.831)">
        <path id="Path_860" data-name="Path 860" d="M448.651,418.557l4.682,2.377c1.671.849,3.284.7,3.9-1.066h0a3.1,3.1,0,0,0-2.355-4.063l-4.449-.831-19.056-6.322-11.543-8.185-4.232,6.742,13.338,7.2Z" transform="translate(-389.091 -375.186)" fill="#ffb8b8"/>
        <path id="Path_861" data-name="Path 861" d="M150.208,683.114l3.582-.6-.4-6.766h-3.781Z" transform="translate(-112.503 -560.831)" fill="#ffb8b8"/>
        <path id="Path_862" data-name="Path 862" d="M11.857,658.052l3.467,1.081,2.694-6.219-3.375-1.7Z" transform="translate(-8.917 -542.377)" fill="#ffb8b8"/>
        <path id="Path_863" data-name="Path 863" d="M387.016,319.4c6.82-2.9,15.315-1.063,23.611.213.077-1.545,1.013-3.425.033-4.5a3.274,3.274,0,0,1-.365-4.069c1.832-3.538-.793-7.3-3.444-10.434a5.871,5.871,0,0,0-4.9-2.057l-4.91.351a5.881,5.881,0,0,0-5.222,4.2h0c-1.172,1.595-1.8,3.185-1.4,4.767-1.756,1.2-2.051,2.649-1.262,4.282a2.462,2.462,0,0,1-.031,3,13.865,13.865,0,0,0-2.061,4.094Z" transform="translate(-367.599 -298.54)" fill="#2f2e41"/>
        <path id="Path_864" data-name="Path 864" d="M328.37,545.536l4.378,1.791,20.895-27.461,6.567,32.237,4.378-.8c2.808-27.793,5.1-56.141,2.288-69.549l-16.218-.7-7.363,23.481-3.582,15.92Z" transform="translate(-323.499 -435.79)" fill="#2f2e41"/>
        <path id="Path_865" data-name="Path 865" d="M454.01,788.684h0a3.143,3.143,0,0,0,1.948-.207l2.128-.958c1.784-.092,3,.264,3.992-1.033a2.6,2.6,0,0,0,.3-2.625h0a2.622,2.622,0,0,0-2.141-1.558l-2.923-1.842-.153,1.381c-1.336.757-2.922.43-4.6-.307l-.917,3.211a3.143,3.143,0,0,0,2.364,3.937Z" transform="translate(-416.108 -660.93)" fill="#2f2e41"/>
        <path id="Path_866" data-name="Path 866" d="M310.254,765.138h0a3.143,3.143,0,0,0,1.91.437l2.323-.215c1.717.493,2.751,1.223,4.111.32a2.6,2.6,0,0,0,1.14-2.384h0a2.621,2.621,0,0,0-1.519-2.168l-2.166-2.691-.593,1.256c-1.509.282-2.9-.542-4.253-1.785l-1.91,2.739a3.143,3.143,0,0,0,.957,4.491Z" transform="translate(-308.732 -643.969)" fill="#2f2e41"/>
        <circle id="Ellipse_159" data-name="Ellipse 159" cx="7.164" cy="7.164" r="7.164" transform="translate(25.964 2.687)" fill="#ffb8b8"/>
        <path id="Path_867" data-name="Path 867" d="M98.264,279.333l9.353-1.99,1.194-7.761-6.567-1.393Z" transform="translate(-73.892 -254.359)" fill="#ffb8b8"/>
        <path id="Path_868" data-name="Path 868" d="M402.718,408.365h16.716l-3.768-9.459c.274-3.255-1.106-5.649-3.08-7.733l-2.5-6.289c-4.047-2.664-7.1-2.465-10.348.995C395.881,391.333,398.548,399.532,402.718,408.365Z" transform="translate(-375.759 -362.098)" fill="#779be7"/>
        <path id="Path_869" data-name="Path 869" d="M423.779,462.941l.475,5.229c.17,1.866,1.15,3.155,2.977,2.738h0a3.1,3.1,0,0,0,2.19-4.154l-1.662-4.21-4.776-19.5.8-14.129h-7.96l.995,15.124Z" transform="translate(-389.258 -396.576)" fill="#ffb8b8"/>
        <path id="Path_870" data-name="Path 870" d="M397.307,322.461c.77-6.979,2.744-12.921,6.168-17.615l.513-.017V304.7l1.665.071,4.629-.156c-.108.113-.212.226-.317.339l3.375.144,3.184,6.567a21.149,21.149,0,0,0-9.424-.535,2.254,2.254,0,0,0-1.761,1.4.839.839,0,0,0,.006.738,7.622,7.622,0,0,1-.089,7.588c-.3.587.273,1.295.452,1.943Z" transform="translate(-375.337 -303.11)" fill="#2f2e41"/>
        <path id="Path_871" data-name="Path 871" d="M413.413,400.367h9.154l-.642-5.971a4.142,4.142,0,0,0-3.932-3.968h0a4.142,4.142,0,0,0-4.346,3.975Z" transform="translate(-387.448 -367.632)" fill="#779be7"/>
      </g>
    </g>
  </g>
</svg>
